midi.Pattern(format=1, resolution=480, tracks=\
[midi.Track(\
  [midi.SetTempoEvent(tick=0, data=[5, 222, 103]),
   midi.TrackNameEvent(tick=0, text='Track 0', data=[84, 114, 97, 99, 107, 32, 48]),
   midi.TimeSignatureEvent(tick=0, data=[4, 2, 5, 222]),
   midi.EndOfTrackEvent(tick=0, data=[])]),
 midi.Track(\
  [midi.TrackNameEvent(tick=0, text='lead', data=[108, 101, 97, 100]),
   midi.ControlChangeEvent(tick=0, channel=10, data=[100, 0]),
   midi.ControlChangeEvent(tick=0, channel=10, data=[101, 0]),
   midi.ControlChangeEvent(tick=0, channel=10, data=[6, 12]),
   midi.PitchWheelEvent(tick=0, channel=10, data=[0, 64]),
   midi.ControlChangeEvent(tick=0, channel=10, data=[101, 0]),
   midi.ControlChangeEvent(tick=0, channel=10, data=[100, 1]),
   midi.ControlChangeEvent(tick=0, channel=10, data=[6, 64]),
   midi.ControlChangeEvent(tick=0, channel=10, data=[38, 0]),
   midi.ControlChangeEvent(tick=0, channel=10, data=[101, 127]),
   midi.ControlChangeEvent(tick=0, channel=10, data=[100, 127]),
   midi.ControlChangeEvent(tick=0, channel=8, data=[100, 0]),
   midi.ControlChangeEvent(tick=0, channel=8, data=[101, 0]),
   midi.ControlChangeEvent(tick=0, channel=8, data=[6, 12]),
   midi.PitchWheelEvent(tick=0, channel=8, data=[0, 64]),
   midi.ControlChangeEvent(tick=0, channel=8, data=[101, 0]),
   midi.ControlChangeEvent(tick=0, channel=8, data=[100, 1]),
   midi.ControlChangeEvent(tick=0, channel=8, data=[6, 64]),
   midi.ControlChangeEvent(tick=0, channel=8, data=[38, 0]),
   midi.ControlChangeEvent(tick=0, channel=8, data=[101, 127]),
   midi.ControlChangeEvent(tick=0, channel=8, data=[100, 127]),
   midi.ControlChangeEvent(tick=0, channel=10, data=[101, 0]),
   midi.ControlChangeEvent(tick=0, channel=10, data=[100, 2]),
   midi.ControlChangeEvent(tick=0, channel=10, data=[6, 64]),
   midi.ControlChangeEvent(tick=0, channel=10, data=[101, 127]),
   midi.ControlChangeEvent(tick=0, channel=10, data=[100, 127]),
   midi.ControlChangeEvent(tick=0, channel=8, data=[101, 0]),
   midi.ControlChangeEvent(tick=0, channel=8, data=[100, 2]),
   midi.ControlChangeEvent(tick=0, channel=8, data=[6, 64]),
   midi.ControlChangeEvent(tick=0, channel=8, data=[101, 127]),
   midi.ControlChangeEvent(tick=0, channel=8, data=[100, 127]),
   midi.ProgramChangeEvent(tick=0, channel=10, data=[30]),
   midi.ProgramChangeEvent(tick=0, channel=8, data=[30]),
   midi.ControlChangeEvent(tick=0, channel=10, data=[0, 0]),
   midi.ControlChangeEvent(tick=0, channel=8, data=[0, 0]),
   midi.ControlChangeEvent(tick=0, channel=10, data=[7, 127]),
   midi.ControlChangeEvent(tick=0, channel=8, data=[7, 127]),
   midi.ControlChangeEvent(tick=0, channel=10, data=[10, 64]),
   midi.ControlChangeEvent(tick=0, channel=8, data=[10, 64]),
   midi.ControlChangeEvent(tick=0, channel=10, data=[93, 0]),
   midi.ControlChangeEvent(tick=0, channel=8, data=[93, 0]),
   midi.ControlChangeEvent(tick=0, channel=10, data=[91, 0]),
   midi.ControlChangeEvent(tick=0, channel=8, data=[91, 0]),
   midi.ControlChangeEvent(tick=0, channel=10, data=[92, 0]),
   midi.ControlChangeEvent(tick=0, channel=8, data=[92, 0]),
   midi.ControlChangeEvent(tick=0, channel=10, data=[95, 0]),
   midi.ControlChangeEvent(tick=0, channel=8, data=[95, 0]),
   midi.NoteOnEvent(tick=960, channel=8, data=[72, 127]),
   midi.NoteOffEvent(tick=240, channel=8, data=[72, 80]),
   midi.NoteOnEvent(tick=0, channel=8, data=[74, 127]),
   midi.NoteOffEvent(tick=240, channel=8, data=[74, 80]),
   midi.NoteOnEvent(tick=0, channel=8, data=[75, 127]),
   midi.NoteOffEvent(tick=720, channel=8, data=[75, 80]),
   midi.NoteOnEvent(tick=0, channel=8, data=[77, 127]),
   midi.NoteOffEvent(tick=240, channel=8, data=[77, 80]),
   midi.NoteOnEvent(tick=0, channel=8, data=[75, 127]),
   midi.NoteOffEvent(tick=240, channel=8, data=[75, 80]),
   midi.NoteOnEvent(tick=0, channel=8, data=[74, 127]),
   midi.NoteOffEvent(tick=240, channel=8, data=[74, 80]),
   midi.NoteOnEvent(tick=0, channel=8, data=[72, 127]),
   midi.NoteOffEvent(tick=240, channel=8, data=[72, 80]),
   midi.NoteOnEvent(tick=0, channel=8, data=[70, 127]),
   midi.NoteOffEvent(tick=240, channel=8, data=[70, 80]),
   midi.NoteOnEvent(tick=0, channel=8, data=[72, 127]),
   midi.NoteOffEvent(tick=240, channel=8, data=[72, 80]),
   midi.NoteOnEvent(tick=0, channel=8, data=[68, 127]),
   midi.NoteOffEvent(tick=1200, channel=8, data=[68, 80]),
   midi.NoteOnEvent(tick=0, channel=8, data=[77, 127]),
   midi.NoteOffEvent(tick=960, channel=8, data=[77, 80]),
   midi.NoteOnEvent(tick=0, channel=8, data=[79, 127]),
   midi.NoteOffEvent(tick=360, channel=8, data=[79, 80]),
   midi.NoteOnEvent(tick=0, channel=8, data=[77, 127]),
   midi.NoteOffEvent(tick=360, channel=8, data=[77, 80]),
   midi.NoteOnEvent(tick=0, channel=8, data=[75, 127]),
   midi.NoteOffEvent(tick=240, channel=8, data=[75, 80]),
   midi.NoteOnEvent(tick=0, channel=8, data=[73, 127]),
   midi.NoteOffEvent(tick=1920, channel=8, data=[73, 80]),
   midi.NoteOnEvent(tick=240, channel=8, data=[68, 95]),
   midi.NoteOffEvent(tick=120, channel=8, data=[68, 80]),
   midi.NoteOnEvent(tick=0, channel=8, data=[68, 95]),
   midi.NoteOnEvent(tick=120, channel=8, data=[75, 95]),
   midi.NoteOffEvent(tick=120, channel=8, data=[68, 80]),
   midi.NoteOffEvent(tick=0, channel=8, data=[75, 80]),
   midi.NoteOnEvent(tick=0, channel=8, data=[75, 95]),
   midi.NoteOnEvent(tick=120, channel=8, data=[68, 95]),
   midi.NoteOffEvent(tick=120, channel=8, data=[75, 80]),
   midi.NoteOffEvent(tick=0, channel=8, data=[68, 80]),
   midi.NoteOnEvent(tick=0, channel=8, data=[68, 95]),
   midi.NoteOnEvent(tick=120, channel=8, data=[80, 95]),
   midi.NoteOffEvent(tick=120, channel=8, data=[68, 80]),
   midi.NoteOffEvent(tick=0, channel=8, data=[80, 80]),
   midi.NoteOnEvent(tick=0, channel=8, data=[80, 95]),
   midi.NoteOnEvent(tick=120, channel=8, data=[68, 95]),
   midi.NoteOffEvent(tick=120, channel=8, data=[80, 80]),
   midi.NoteOffEvent(tick=0, channel=8, data=[68, 80]),
   midi.NoteOnEvent(tick=0, channel=8, data=[68, 95]),
   midi.NoteOnEvent(tick=120, channel=8, data=[75, 95]),
   midi.NoteOffEvent(tick=120, channel=8, data=[68, 80]),
   midi.NoteOffEvent(tick=0, channel=8, data=[75, 80]),
   midi.NoteOnEvent(tick=0, channel=8, data=[75, 95]),
   midi.NoteOnEvent(tick=120, channel=8, data=[68, 95]),
   midi.NoteOffEvent(tick=120, channel=8, data=[75, 80]),
   midi.NoteOffEvent(tick=0, channel=8, data=[68, 80]),
   midi.NoteOnEvent(tick=0, channel=8, data=[68, 95]),
   midi.NoteOnEvent(tick=120, channel=8, data=[77, 95]),
   midi.NoteOffEvent(tick=120, channel=8, data=[68, 80]),
   midi.NoteOffEvent(tick=0, channel=8, data=[77, 80]),
   midi.NoteOnEvent(tick=0, channel=8, data=[77, 95]),
   midi.NoteOnEvent(tick=120, channel=8, data=[70, 95]),
   midi.NoteOffEvent(tick=120, channel=8, data=[77, 80]),
   midi.NoteOffEvent(tick=0, channel=8, data=[70, 80]),
   midi.NoteOnEvent(tick=0, channel=8, data=[70, 95]),
   midi.NoteOnEvent(tick=120, channel=8, data=[77, 95]),
   midi.NoteOffEvent(tick=120, channel=8, data=[70, 80]),
   midi.NoteOffEvent(tick=0, channel=8, data=[77, 80]),
   midi.NoteOnEvent(tick=0, channel=8, data=[77, 95]),
   midi.NoteOnEvent(tick=120, channel=8, data=[70, 95]),
   midi.NoteOffEvent(tick=120, channel=8, data=[77, 80]),
   midi.NoteOffEvent(tick=0, channel=8, data=[70, 80]),
   midi.NoteOnEvent(tick=0, channel=8, data=[70, 95]),
   midi.NoteOnEvent(tick=120, channel=8, data=[82, 95]),
   midi.NoteOffEvent(tick=120, channel=8, data=[70, 80]),
   midi.NoteOffEvent(tick=0, channel=8, data=[82, 80]),
   midi.NoteOnEvent(tick=0, channel=8, data=[82, 95]),
   midi.NoteOnEvent(tick=120, channel=8, data=[70, 95]),
   midi.NoteOffEvent(tick=120, channel=8, data=[82, 80]),
   midi.NoteOffEvent(tick=0, channel=8, data=[70, 80]),
   midi.NoteOnEvent(tick=0, channel=8, data=[70, 95]),
   midi.NoteOnEvent(tick=120, channel=8, data=[77, 95]),
   midi.NoteOffEvent(tick=120, channel=8, data=[70, 80]),
   midi.NoteOffEvent(tick=0, channel=8, data=[77, 80]),
   midi.NoteOnEvent(tick=0, channel=8, data=[77, 95]),
   midi.NoteOnEvent(tick=120, channel=8, data=[70, 95]),
   midi.NoteOffEvent(tick=120, channel=8, data=[77, 80]),
   midi.NoteOffEvent(tick=0, channel=8, data=[70, 80]),
   midi.NoteOnEvent(tick=0, channel=8, data=[70, 95]),
   midi.NoteOnEvent(tick=120, channel=8, data=[77, 95]),
   midi.NoteOffEvent(tick=120, channel=8, data=[70, 80]),
   midi.NoteOffEvent(tick=0, channel=8, data=[77, 80]),
   midi.NoteOnEvent(tick=0, channel=8, data=[77, 95]),
   midi.NoteOnEvent(tick=120, channel=8, data=[70, 95]),
   midi.NoteOffEvent(tick=120, channel=8, data=[77, 80]),
   midi.NoteOffEvent(tick=0, channel=8, data=[70, 80]),
   midi.NoteOnEvent(tick=0, channel=8, data=[70, 95]),
   midi.NoteOnEvent(tick=120, channel=8, data=[77, 95]),
   midi.NoteOffEvent(tick=120, channel=8, data=[70, 80]),
   midi.NoteOffEvent(tick=0, channel=8, data=[77, 80]),
   midi.NoteOnEvent(tick=0, channel=8, data=[77, 95]),
   midi.NoteOnEvent(tick=120, channel=8, data=[70, 95]),
   midi.NoteOffEvent(tick=120, channel=8, data=[77, 80]),
   midi.NoteOffEvent(tick=0, channel=8, data=[70, 80]),
   midi.NoteOnEvent(tick=0, channel=8, data=[70, 95]),
   midi.NoteOnEvent(tick=120, channel=8, data=[82, 95]),
   midi.NoteOffEvent(tick=120, channel=8, data=[70, 80]),
   midi.NoteOffEvent(tick=0, channel=8, data=[82, 80]),
   midi.NoteOnEvent(tick=0, channel=8, data=[82, 95]),
   midi.NoteOnEvent(tick=120, channel=8, data=[70, 95]),
   midi.NoteOffEvent(tick=120, channel=8, data=[82, 80]),
   midi.NoteOffEvent(tick=0, channel=8, data=[70, 80]),
   midi.NoteOnEvent(tick=0, channel=8, data=[70, 95]),
   midi.NoteOnEvent(tick=120, channel=8, data=[77, 95]),
   midi.NoteOffEvent(tick=120, channel=8, data=[70, 80]),
   midi.NoteOffEvent(tick=0, channel=8, data=[77, 80]),
   midi.NoteOnEvent(tick=0, channel=8, data=[77, 95]),
   midi.NoteOnEvent(tick=120, channel=8, data=[70, 95]),
   midi.NoteOffEvent(tick=120, channel=8, data=[77, 80]),
   midi.NoteOffEvent(tick=0, channel=8, data=[70, 80]),
   midi.NoteOnEvent(tick=0, channel=8, data=[70, 95]),
   midi.NoteOnEvent(tick=120, channel=8, data=[79, 95]),
   midi.NoteOffEvent(tick=120, channel=8, data=[70, 80]),
   midi.NoteOffEvent(tick=0, channel=8, data=[79, 80]),
   midi.NoteOnEvent(tick=0, channel=8, data=[79, 95]),
   midi.NoteOnEvent(tick=120, channel=8, data=[72, 95]),
   midi.NoteOffEvent(tick=120, channel=8, data=[79, 80]),
   midi.NoteOffEvent(tick=0, channel=8, data=[72, 80]),
   midi.NoteOnEvent(tick=0, channel=8, data=[72, 95]),
   midi.NoteOnEvent(tick=120, channel=8, data=[79, 95]),
   midi.NoteOffEvent(tick=120, channel=8, data=[72, 80]),
   midi.NoteOffEvent(tick=0, channel=8, data=[79, 80]),
   midi.NoteOnEvent(tick=0, channel=8, data=[79, 95]),
   midi.NoteOnEvent(tick=120, channel=8, data=[72, 95]),
   midi.NoteOffEvent(tick=120, channel=8, data=[79, 80]),
   midi.NoteOffEvent(tick=0, channel=8, data=[72, 80]),
   midi.NoteOnEvent(tick=0, channel=8, data=[72, 95]),
   midi.NoteOnEvent(tick=120, channel=8, data=[84, 95]),
   midi.NoteOffEvent(tick=120, channel=8, data=[72, 80]),
   midi.NoteOffEvent(tick=0, channel=8, data=[84, 80]),
   midi.NoteOnEvent(tick=0, channel=8, data=[84, 95]),
   midi.NoteOnEvent(tick=120, channel=8, data=[72, 95]),
   midi.NoteOffEvent(tick=120, channel=8, data=[84, 80]),
   midi.NoteOffEvent(tick=0, channel=8, data=[72, 80]),
   midi.NoteOnEvent(tick=0, channel=8, data=[72, 95]),
   midi.NoteOnEvent(tick=120, channel=8, data=[79, 95]),
   midi.NoteOffEvent(tick=120, channel=8, data=[72, 80]),
   midi.NoteOffEvent(tick=0, channel=8, data=[79, 80]),
   midi.NoteOnEvent(tick=0, channel=8, data=[79, 95]),
   midi.NoteOnEvent(tick=120, channel=8, data=[72, 95]),
   midi.NoteOffEvent(tick=120, channel=8, data=[79, 80]),
   midi.NoteOffEvent(tick=0, channel=8, data=[72, 80]),
   midi.NoteOnEvent(tick=0, channel=8, data=[72, 95]),
   midi.NoteOffEvent(tick=120, channel=8, data=[72, 80]),
   midi.NoteOnEvent(tick=0, channel=8, data=[68, 127]),
   midi.NoteOnEvent(tick=0, channel=8, data=[65, 127]),
   midi.NoteOffEvent(tick=840, channel=8, data=[68, 80]),
   midi.NoteOffEvent(tick=0, channel=8, data=[65, 80]),
   midi.NoteOnEvent(tick=120, channel=8, data=[72, 127]),
   midi.NoteOffEvent(tick=360, channel=8, data=[72, 80]),
   midi.NoteOnEvent(tick=0, channel=8, data=[70, 127]),
   midi.NoteOffEvent(tick=360, channel=8, data=[70, 80]),
   midi.NoteOnEvent(tick=0, channel=8, data=[68, 127]),
   midi.NoteOffEvent(tick=240, channel=8, data=[68, 80]),
   midi.NoteOnEvent(tick=0, channel=8, data=[67, 127]),
   midi.NoteOffEvent(tick=840, channel=8, data=[67, 80]),
   midi.NoteOnEvent(tick=120, channel=8, data=[70, 127]),
   midi.NoteOffEvent(tick=360, channel=8, data=[70, 80]),
   midi.NoteOnEvent(tick=0, channel=8, data=[68, 127]),
   midi.NoteOffEvent(tick=360, channel=8, data=[68, 80]),
   midi.NoteOnEvent(tick=0, channel=8, data=[67, 127]),
   midi.NoteOffEvent(tick=240, channel=8, data=[67, 80]),
   midi.NoteOnEvent(tick=0, channel=8, data=[65, 127]),
   midi.NoteOnEvent(tick=0, channel=8, data=[61, 95]),
   midi.NoteOffEvent(tick=840, channel=8, data=[65, 80]),
   midi.NoteOffEvent(tick=0, channel=8, data=[61, 80]),
   midi.NoteOnEvent(tick=120, channel=8, data=[67, 127]),
   midi.NoteOffEvent(tick=360, channel=8, data=[67, 80]),
   midi.NoteOnEvent(tick=0, channel=8, data=[68, 127]),
   midi.NoteOffEvent(tick=360, channel=8, data=[68, 80]),
   midi.NoteOnEvent(tick=0, channel=8, data=[70, 127]),
   midi.NoteOffEvent(tick=240, channel=8, data=[70, 80]),
   midi.NoteOnEvent(tick=0, channel=8, data=[68, 127]),
   midi.NoteOffEvent(tick=720, channel=8, data=[68, 80]),
   midi.NoteOnEvent(tick=0, channel=8, data=[65, 127]),
   midi.NoteOnEvent(tick=0, channel=8, data=[61, 127]),
   midi.NoteOffEvent(tick=1080, channel=8, data=[65, 80]),
   midi.NoteOffEvent(tick=0, channel=8, data=[61, 80]),
   midi.NoteOnEvent(tick=120, channel=8, data=[68, 127]),
   midi.NoteOffEvent(tick=840, channel=8, data=[68, 80]),
   midi.NoteOnEvent(tick=120, channel=8, data=[72, 127]),
   midi.NoteOffEvent(tick=360, channel=8, data=[72, 80]),
   midi.NoteOnEvent(tick=0, channel=8, data=[70, 127]),
   midi.NoteOffEvent(tick=360, channel=8, data=[70, 80]),
   midi.NoteOnEvent(tick=0, channel=8, data=[68, 127]),
   midi.NoteOffEvent(tick=240, channel=8, data=[68, 80]),
   midi.NoteOnEvent(tick=0, channel=8, data=[67, 127]),
   midi.NoteOnEvent(tick=0, channel=8, data=[63, 127]),
   midi.NoteOffEvent(tick=840, channel=8, data=[67, 80]),
   midi.NoteOffEvent(tick=0, channel=8, data=[63, 80]),
   midi.NoteOnEvent(tick=120, channel=8, data=[70, 127]),
   midi.NoteOffEvent(tick=360, channel=8, data=[70, 80]),
   midi.NoteOnEvent(tick=0, channel=8, data=[68, 127]),
   midi.NoteOffEvent(tick=360, channel=8, data=[68, 80]),
   midi.NoteOnEvent(tick=0, channel=8, data=[67, 127]),
   midi.NoteOffEvent(tick=240, channel=8, data=[67, 80]),
   midi.NoteOnEvent(tick=0, channel=8, data=[65, 127]),
   midi.NoteOnEvent(tick=0, channel=8, data=[61, 127]),
   midi.NoteOffEvent(tick=840, channel=8, data=[65, 80]),
   midi.NoteOffEvent(tick=0, channel=8, data=[61, 80]),
   midi.NoteOnEvent(tick=120, channel=8, data=[67, 127]),
   midi.NoteOffEvent(tick=360, channel=8, data=[67, 80]),
   midi.NoteOnEvent(tick=0, channel=8, data=[68, 127]),
   midi.NoteOffEvent(tick=360, channel=8, data=[68, 80]),
   midi.NoteOnEvent(tick=0, channel=8, data=[70, 127]),
   midi.NoteOffEvent(tick=240, channel=8, data=[70, 80]),
   midi.NoteOnEvent(tick=0, channel=8, data=[70, 127]),
   midi.NoteOnEvent(tick=0, channel=8, data=[65, 127]),
   midi.NoteOffEvent(tick=600, channel=8, data=[70, 80]),
   midi.NoteOffEvent(tick=0, channel=8, data=[65, 80]),
   midi.NoteOnEvent(tick=120, channel=8, data=[69, 127]),
   midi.NoteOnEvent(tick=0, channel=8, data=[65, 127]),
   midi.NoteOffEvent(tick=1080, channel=8, data=[69, 80]),
   midi.NoteOffEvent(tick=0, channel=8, data=[65, 80]),
   midi.NoteOnEvent(tick=120, channel=8, data=[84, 127]),
   midi.NoteOffEvent(tick=240, channel=8, data=[84, 80]),
   midi.NoteOnEvent(tick=0, channel=8, data=[82, 127]),
   midi.NoteOffEvent(tick=240, channel=8, data=[82, 80]),
   midi.NoteOnEvent(tick=0, channel=8, data=[80, 127]),
   midi.NoteOffEvent(tick=240, channel=8, data=[80, 80]),
   midi.NoteOnEvent(tick=0, channel=8, data=[79, 95]),
   midi.NoteOffEvent(tick=240, channel=8, data=[79, 80]),
   midi.NoteOnEvent(tick=0, channel=8, data=[80, 127]),
   midi.NoteOffEvent(tick=240, channel=8, data=[80, 80]),
   midi.NoteOnEvent(tick=0, channel=8, data=[77, 127]),
   midi.NoteOffEvent(tick=240, channel=8, data=[77, 80]),
   midi.NoteOnEvent(tick=0, channel=8, data=[79, 127]),
   midi.NoteOffEvent(tick=960, channel=8, data=[79, 80]),
   midi.NoteOnEvent(tick=0, channel=8, data=[80, 127]),
   midi.NoteOffEvent(tick=240, channel=8, data=[80, 80]),
   midi.NoteOnEvent(tick=0, channel=8, data=[82, 127]),
   midi.NoteOffEvent(tick=240, channel=8, data=[82, 80]),
   midi.NoteOnEvent(tick=0, channel=8, data=[84, 127]),
   midi.NoteOffEvent(tick=240, channel=8, data=[84, 80]),
   midi.NoteOnEvent(tick=0, channel=8, data=[82, 127]),
   midi.NoteOffEvent(tick=240, channel=8, data=[82, 80]),
   midi.NoteOnEvent(tick=0, channel=8, data=[80, 127]),
   midi.NoteOffEvent(tick=240, channel=8, data=[80, 80]),
   midi.NoteOnEvent(tick=0, channel=8, data=[79, 127]),
   midi.NoteOffEvent(tick=240, channel=8, data=[79, 80]),
   midi.NoteOnEvent(tick=0, channel=8, data=[77, 127]),
   midi.NoteOffEvent(tick=240, channel=8, data=[77, 80]),
   midi.NoteOnEvent(tick=0, channel=8, data=[79, 127]),
   midi.NoteOffEvent(tick=240, channel=8, data=[79, 80]),
   midi.NoteOnEvent(tick=0, channel=8, data=[80, 127]),
   midi.NoteOffEvent(tick=240, channel=8, data=[80, 80]),
   midi.NoteOnEvent(tick=0, channel=8, data=[82, 127]),
   midi.NoteOffEvent(tick=240, channel=8, data=[82, 80]),
   midi.NoteOnEvent(tick=0, channel=8, data=[80, 127]),
   midi.NoteOffEvent(tick=240, channel=8, data=[80, 80]),
   midi.NoteOnEvent(tick=0, channel=8, data=[82, 127]),
   midi.NoteOffEvent(tick=240, channel=8, data=[82, 80]),
   midi.NoteOnEvent(tick=0, channel=8, data=[77, 127]),
   midi.NoteOffEvent(tick=960, channel=8, data=[77, 80]),
   midi.NoteOnEvent(tick=0, channel=8, data=[77, 127]),
   midi.NoteOffEvent(tick=360, channel=8, data=[77, 80]),
   midi.NoteOnEvent(tick=120, channel=8, data=[75, 127]),
   midi.NoteOffEvent(tick=360, channel=8, data=[75, 80]),
   midi.NoteOnEvent(tick=120, channel=8, data=[77, 127]),
   midi.NoteOffEvent(tick=360, channel=8, data=[77, 80]),
   midi.NoteOnEvent(tick=120, channel=8, data=[77, 127]),
   midi.NoteOffEvent(tick=240, channel=8, data=[77, 80]),
   midi.NoteOnEvent(tick=0, channel=8, data=[75, 127]),
   midi.NoteOffEvent(tick=240, channel=8, data=[75, 80]),
   midi.NoteOnEvent(tick=0, channel=8, data=[77, 127]),
   midi.NoteOffEvent(tick=240, channel=8, data=[77, 80]),
   midi.NoteOnEvent(tick=0, channel=8, data=[80, 127]),
   midi.NoteOffEvent(tick=240, channel=8, data=[80, 80]),
   midi.NoteOnEvent(tick=0, channel=8, data=[79, 127]),
   midi.NoteOffEvent(tick=240, channel=8, data=[79, 80]),
   midi.NoteOnEvent(tick=0, channel=8, data=[75, 127]),
   midi.NoteOffEvent(tick=240, channel=8, data=[75, 80]),
   midi.NoteOnEvent(tick=0, channel=8, data=[72, 127]),
   midi.NoteOffEvent(tick=720, channel=8, data=[72, 80]),
   midi.NoteOnEvent(tick=0, channel=8, data=[77, 127]),
   midi.NoteOffEvent(tick=240, channel=8, data=[77, 80]),
   midi.NoteOnEvent(tick=0, channel=8, data=[75, 127]),
   midi.NoteOffEvent(tick=240, channel=8, data=[75, 80]),
   midi.NoteOnEvent(tick=0, channel=8, data=[77, 127]),
   midi.NoteOffEvent(tick=240, channel=8, data=[77, 80]),
   midi.NoteOnEvent(tick=0, channel=8, data=[79, 127]),
   midi.NoteOffEvent(tick=240, channel=8, data=[79, 80]),
   midi.NoteOnEvent(tick=0, channel=8, data=[80, 127]),
   midi.NoteOffEvent(tick=240, channel=8, data=[80, 80]),
   midi.NoteOnEvent(tick=0, channel=8, data=[82, 127]),
   midi.NoteOffEvent(tick=240, channel=8, data=[82, 80]),
   midi.NoteOnEvent(tick=0, channel=8, data=[84, 127]),
   midi.NoteOffEvent(tick=240, channel=8, data=[84, 80]),
   midi.NoteOnEvent(tick=0, channel=8, data=[82, 127]),
   midi.NoteOffEvent(tick=720, channel=8, data=[82, 80]),
   midi.NoteOnEvent(tick=0, channel=8, data=[80, 127]),
   midi.NoteOffEvent(tick=480, channel=8, data=[80, 80]),
   midi.NoteOnEvent(tick=0, channel=8, data=[79, 127]),
   midi.NoteOffEvent(tick=240, channel=8, data=[79, 80]),
   midi.NoteOnEvent(tick=0, channel=8, data=[77, 127]),
   midi.NoteOffEvent(tick=2400, channel=8, data=[77, 80]),
   midi.EndOfTrackEvent(tick=0, data=[])]),
 midi.Track(\
  [midi.TrackNameEvent(tick=0, text='Percussion', data=[80, 101, 114, 99, 117, 115, 115, 105, 111, 110]),
   midi.ControlChangeEvent(tick=0, channel=9, data=[100, 0]),
   midi.ControlChangeEvent(tick=0, channel=9, data=[101, 0]),
   midi.ControlChangeEvent(tick=0, channel=9, data=[6, 12]),
   midi.PitchWheelEvent(tick=0, channel=9, data=[0, 64]),
   midi.ControlChangeEvent(tick=0, channel=9, data=[101, 0]),
   midi.ControlChangeEvent(tick=0, channel=9, data=[100, 1]),
   midi.ControlChangeEvent(tick=0, channel=9, data=[6, 64]),
   midi.ControlChangeEvent(tick=0, channel=9, data=[38, 0]),
   midi.ControlChangeEvent(tick=0, channel=9, data=[101, 127]),
   midi.ControlChangeEvent(tick=0, channel=9, data=[100, 127]),
   midi.ProgramChangeEvent(tick=0, channel=9, data=[8]),
   midi.ControlChangeEvent(tick=0, channel=9, data=[0, 0]),
   midi.ControlChangeEvent(tick=0, channel=9, data=[7, 104]),
   midi.ControlChangeEvent(tick=0, channel=9, data=[10, 64]),
   midi.ControlChangeEvent(tick=0, channel=9, data=[93, 0]),
   midi.ControlChangeEvent(tick=0, channel=9, data=[91, 0]),
   midi.ControlChangeEvent(tick=0, channel=9, data=[92, 0]),
   midi.ControlChangeEvent(tick=0, channel=9, data=[95, 0]),
   midi.NoteOnEvent(tick=0, channel=9, data=[40, 127]),
   midi.NoteOnEvent(tick=0, channel=9, data=[49, 127]),
   midi.NoteOffEvent(tick=120, channel=9, data=[40, 80]),
   midi.NoteOnEvent(tick=0, channel=9, data=[36, 127]),
   midi.NoteOffEvent(tick=240, channel=9, data=[36, 80]),
   midi.NoteOnEvent(tick=0, channel=9, data=[36, 127]),
   midi.NoteOffEvent(tick=120, channel=9, data=[36, 80]),
   midi.NoteOnEvent(tick=0, channel=9, data=[40, 127]),
   midi.NoteOffEvent(tick=120, channel=9, data=[40, 80]),
   midi.NoteOnEvent(tick=0, channel=9, data=[40, 127]),
   midi.NoteOffEvent(tick=120, channel=9, data=[40, 80]),
   midi.NoteOnEvent(tick=0, channel=9, data=[40, 127]),
   midi.NoteOffEvent(tick=120, channel=9, data=[40, 80]),
   midi.NoteOnEvent(tick=0, channel=9, data=[40, 127]),
   midi.NoteOffEvent(tick=120, channel=9, data=[49, 80]),
   midi.NoteOffEvent(tick=0, channel=9, data=[40, 80]),
   midi.NoteOnEvent(tick=0, channel=9, data=[49, 127]),
   midi.NoteOnEvent(tick=0, channel=9, data=[36, 127]),
   midi.NoteOffEvent(tick=480, channel=9, data=[36, 80]),
   midi.NoteOnEvent(tick=0, channel=9, data=[40, 127]),
   midi.NoteOffEvent(tick=480, channel=9, data=[49, 80]),
   midi.NoteOffEvent(tick=0, channel=9, data=[40, 80]),
   midi.NoteOnEvent(tick=240, channel=9, data=[36, 127]),
   midi.NoteOffEvent(tick=240, channel=9, data=[36, 80]),
   midi.NoteOnEvent(tick=0, channel=9, data=[40, 127]),
   midi.NoteOffEvent(tick=480, channel=9, data=[40, 80]),
   midi.NoteOnEvent(tick=0, channel=9, data=[36, 127]),
   midi.NoteOffEvent(tick=480, channel=9, data=[36, 80]),
   midi.NoteOnEvent(tick=0, channel=9, data=[40, 127]),
   midi.NoteOffEvent(tick=480, channel=9, data=[40, 80]),
   midi.NoteOnEvent(tick=240, channel=9, data=[36, 127]),
   midi.NoteOffEvent(tick=240, channel=9, data=[36, 80]),
   midi.NoteOnEvent(tick=0, channel=9, data=[40, 127]),
   midi.NoteOffEvent(tick=240, channel=9, data=[40, 80]),
   midi.NoteOnEvent(tick=0, channel=9, data=[40, 127]),
   midi.NoteOffEvent(tick=240, channel=9, data=[40, 80]),
   midi.NoteOnEvent(tick=0, channel=9, data=[36, 127]),
   midi.NoteOnEvent(tick=0, channel=9, data=[49, 127]),
   midi.NoteOffEvent(tick=240, channel=9, data=[36, 80]),
   midi.NoteOnEvent(tick=0, channel=9, data=[36, 127]),
   midi.NoteOffEvent(tick=240, channel=9, data=[36, 80]),
   midi.NoteOnEvent(tick=0, channel=9, data=[40, 127]),
   midi.NoteOffEvent(tick=480, channel=9, data=[49, 80]),
   midi.NoteOffEvent(tick=0, channel=9, data=[40, 80]),
   midi.NoteOnEvent(tick=0, channel=9, data=[36, 127]),
   midi.NoteOnEvent(tick=0, channel=9, data=[49, 127]),
   midi.NoteOffEvent(tick=240, channel=9, data=[36, 80]),
   midi.NoteOnEvent(tick=0, channel=9, data=[36, 127]),
   midi.NoteOffEvent(tick=240, channel=9, data=[36, 80]),
   midi.NoteOnEvent(tick=0, channel=9, data=[40, 127]),
   midi.NoteOffEvent(tick=480, channel=9, data=[49, 80]),
   midi.NoteOffEvent(tick=0, channel=9, data=[40, 80]),
   midi.NoteOnEvent(tick=0, channel=9, data=[36, 127]),
   midi.NoteOnEvent(tick=0, channel=9, data=[49, 127]),
   midi.NoteOffEvent(tick=240, channel=9, data=[36, 80]),
   midi.NoteOnEvent(tick=0, channel=9, data=[36, 127]),
   midi.NoteOffEvent(tick=240, channel=9, data=[36, 80]),
   midi.NoteOnEvent(tick=0, channel=9, data=[40, 127]),
   midi.NoteOffEvent(tick=480, channel=9, data=[49, 80]),
   midi.NoteOffEvent(tick=0, channel=9, data=[40, 80]),
   midi.NoteOnEvent(tick=0, channel=9, data=[36, 127]),
   midi.NoteOffEvent(tick=240, channel=9, data=[36, 80]),
   midi.NoteOnEvent(tick=0, channel=9, data=[36, 127]),
   midi.NoteOffEvent(tick=240, channel=9, data=[36, 80]),
   midi.NoteOnEvent(tick=0, channel=9, data=[40, 127]),
   midi.NoteOffEvent(tick=120, channel=9, data=[40, 80]),
   midi.NoteOnEvent(tick=0, channel=9, data=[40, 127]),
   midi.NoteOffEvent(tick=120, channel=9, data=[40, 80]),
   midi.NoteOnEvent(tick=0, channel=9, data=[40, 127]),
   midi.NoteOffEvent(tick=120, channel=9, data=[40, 80]),
   midi.NoteOnEvent(tick=0, channel=9, data=[40, 127]),
   midi.NoteOffEvent(tick=120, channel=9, data=[40, 80]),
   midi.NoteOnEvent(tick=0, channel=9, data=[49, 127]),
   midi.NoteOnEvent(tick=0, channel=9, data=[36, 127]),
   midi.NoteOffEvent(tick=240, channel=9, data=[36, 80]),
   midi.NoteOnEvent(tick=0, channel=9, data=[42, 127]),
   midi.NoteOffEvent(tick=120, channel=9, data=[42, 80]),
   midi.NoteOnEvent(tick=0, channel=9, data=[42, 127]),
   midi.NoteOffEvent(tick=120, channel=9, data=[42, 80]),
   midi.NoteOnEvent(tick=0, channel=9, data=[40, 127]),
   midi.NoteOffEvent(tick=240, channel=9, data=[40, 80]),
   midi.NoteOnEvent(tick=0, channel=9, data=[42, 127]),
   midi.NoteOffEvent(tick=120, channel=9, data=[42, 80]),
   midi.NoteOnEvent(tick=0, channel=9, data=[42, 127]),
   midi.NoteOffEvent(tick=120, channel=9, data=[49, 80]),
   midi.NoteOffEvent(tick=0, channel=9, data=[42, 80]),
   midi.NoteOnEvent(tick=0, channel=9, data=[36, 127]),
   midi.NoteOffEvent(tick=240, channel=9, data=[36, 80]),
   midi.NoteOnEvent(tick=0, channel=9, data=[42, 127]),
   midi.NoteOffEvent(tick=120, channel=9, data=[42, 80]),
   midi.NoteOnEvent(tick=0, channel=9, data=[42, 127]),
   midi.NoteOffEvent(tick=120, channel=9, data=[42, 80]),
   midi.NoteOnEvent(tick=0, channel=9, data=[40, 127]),
   midi.NoteOffEvent(tick=240, channel=9, data=[40, 80]),
   midi.NoteOnEvent(tick=0, channel=9, data=[42, 127]),
   midi.NoteOffEvent(tick=120, channel=9, data=[42, 80]),
   midi.NoteOnEvent(tick=0, channel=9, data=[42, 127]),
   midi.NoteOffEvent(tick=120, channel=9, data=[42, 80]),
   midi.NoteOnEvent(tick=0, channel=9, data=[36, 127]),
   midi.NoteOffEvent(tick=240, channel=9, data=[36, 80]),
   midi.NoteOnEvent(tick=0, channel=9, data=[42, 127]),
   midi.NoteOffEvent(tick=120, channel=9, data=[42, 80]),
   midi.NoteOnEvent(tick=0, channel=9, data=[42, 127]),
   midi.NoteOffEvent(tick=120, channel=9, data=[42, 80]),
   midi.NoteOnEvent(tick=0, channel=9, data=[40, 127]),
   midi.NoteOffEvent(tick=240, channel=9, data=[40, 80]),
   midi.NoteOnEvent(tick=0, channel=9, data=[42, 127]),
   midi.NoteOffEvent(tick=120, channel=9, data=[42, 80]),
   midi.NoteOnEvent(tick=0, channel=9, data=[42, 127]),
   midi.NoteOffEvent(tick=120, channel=9, data=[42, 80]),
   midi.NoteOnEvent(tick=0, channel=9, data=[36, 127]),
   midi.NoteOffEvent(tick=240, channel=9, data=[36, 80]),
   midi.NoteOnEvent(tick=0, channel=9, data=[42, 127]),
   midi.NoteOffEvent(tick=120, channel=9, data=[42, 80]),
   midi.NoteOnEvent(tick=0, channel=9, data=[42, 127]),
   midi.NoteOffEvent(tick=120, channel=9, data=[42, 80]),
   midi.NoteOnEvent(tick=0, channel=9, data=[40, 127]),
   midi.NoteOffEvent(tick=240, channel=9, data=[40, 80]),
   midi.NoteOnEvent(tick=0, channel=9, data=[42, 127]),
   midi.NoteOffEvent(tick=120, channel=9, data=[42, 80]),
   midi.NoteOnEvent(tick=0, channel=9, data=[42, 127]),
   midi.NoteOffEvent(tick=120, channel=9, data=[42, 80]),
   midi.NoteOnEvent(tick=0, channel=9, data=[36, 127]),
   midi.NoteOffEvent(tick=240, channel=9, data=[36, 80]),
   midi.NoteOnEvent(tick=0, channel=9, data=[42, 127]),
   midi.NoteOffEvent(tick=120, channel=9, data=[42, 80]),
   midi.NoteOnEvent(tick=0, channel=9, data=[42, 127]),
   midi.NoteOffEvent(tick=120, channel=9, data=[42, 80]),
   midi.NoteOnEvent(tick=0, channel=9, data=[40, 127]),
   midi.NoteOffEvent(tick=240, channel=9, data=[40, 80]),
   midi.NoteOnEvent(tick=0, channel=9, data=[42, 127]),
   midi.NoteOffEvent(tick=120, channel=9, data=[42, 80]),
   midi.NoteOnEvent(tick=0, channel=9, data=[42, 127]),
   midi.NoteOffEvent(tick=120, channel=9, data=[42, 80]),
   midi.NoteOnEvent(tick=0, channel=9, data=[36, 127]),
   midi.NoteOffEvent(tick=240, channel=9, data=[36, 80]),
   midi.NoteOnEvent(tick=0, channel=9, data=[42, 127]),
   midi.NoteOffEvent(tick=120, channel=9, data=[42, 80]),
   midi.NoteOnEvent(tick=0, channel=9, data=[42, 127]),
   midi.NoteOffEvent(tick=120, channel=9, data=[42, 80]),
   midi.NoteOnEvent(tick=0, channel=9, data=[40, 127]),
   midi.NoteOffEvent(tick=240, channel=9, data=[40, 80]),
   midi.NoteOnEvent(tick=0, channel=9, data=[42, 127]),
   midi.NoteOffEvent(tick=120, channel=9, data=[42, 80]),
   midi.NoteOnEvent(tick=0, channel=9, data=[42, 127]),
   midi.NoteOffEvent(tick=120, channel=9, data=[42, 80]),
   midi.NoteOnEvent(tick=0, channel=9, data=[36, 127]),
   midi.NoteOffEvent(tick=240, channel=9, data=[36, 80]),
   midi.NoteOnEvent(tick=0, channel=9, data=[42, 127]),
   midi.NoteOffEvent(tick=120, channel=9, data=[42, 80]),
   midi.NoteOnEvent(tick=0, channel=9, data=[42, 127]),
   midi.NoteOffEvent(tick=120, channel=9, data=[42, 80]),
   midi.NoteOnEvent(tick=0, channel=9, data=[40, 127]),
   midi.NoteOffEvent(tick=240, channel=9, data=[40, 80]),
   midi.NoteOnEvent(tick=0, channel=9, data=[42, 127]),
   midi.NoteOffEvent(tick=120, channel=9, data=[42, 80]),
   midi.NoteOnEvent(tick=0, channel=9, data=[42, 127]),
   midi.NoteOffEvent(tick=120, channel=9, data=[42, 80]),
   midi.NoteOnEvent(tick=0, channel=9, data=[36, 127]),
   midi.NoteOffEvent(tick=240, channel=9, data=[36, 80]),
   midi.NoteOnEvent(tick=0, channel=9, data=[42, 127]),
   midi.NoteOffEvent(tick=120, channel=9, data=[42, 80]),
   midi.NoteOnEvent(tick=0, channel=9, data=[42, 127]),
   midi.NoteOffEvent(tick=120, channel=9, data=[42, 80]),
   midi.NoteOnEvent(tick=0, channel=9, data=[48, 127]),
   midi.NoteOffEvent(tick=120, channel=9, data=[48, 80]),
   midi.NoteOnEvent(tick=0, channel=9, data=[48, 127]),
   midi.NoteOffEvent(tick=120, channel=9, data=[48, 80]),
   midi.NoteOnEvent(tick=0, channel=9, data=[45, 127]),
   midi.NoteOffEvent(tick=120, channel=9, data=[45, 80]),
   midi.NoteOnEvent(tick=0, channel=9, data=[41, 127]),
   midi.NoteOffEvent(tick=120, channel=9, data=[41, 80]),
   midi.NoteOnEvent(tick=0, channel=9, data=[49, 127]),
   midi.NoteOnEvent(tick=0, channel=9, data=[36, 127]),
   midi.NoteOffEvent(tick=480, channel=9, data=[36, 80]),
   midi.NoteOnEvent(tick=0, channel=9, data=[40, 127]),
   midi.NoteOffEvent(tick=480, channel=9, data=[49, 80]),
   midi.NoteOffEvent(tick=0, channel=9, data=[40, 80]),
   midi.NoteOnEvent(tick=240, channel=9, data=[36, 127]),
   midi.NoteOffEvent(tick=240, channel=9, data=[36, 80]),
   midi.NoteOnEvent(tick=0, channel=9, data=[40, 127]),
   midi.NoteOffEvent(tick=480, channel=9, data=[40, 80]),
   midi.NoteOnEvent(tick=0, channel=9, data=[36, 127]),
   midi.NoteOffEvent(tick=480, channel=9, data=[36, 80]),
   midi.NoteOnEvent(tick=0, channel=9, data=[40, 127]),
   midi.NoteOffEvent(tick=480, channel=9, data=[40, 80]),
   midi.NoteOnEvent(tick=240, channel=9, data=[36, 127]),
   midi.NoteOffEvent(tick=240, channel=9, data=[36, 80]),
   midi.NoteOnEvent(tick=0, channel=9, data=[40, 127]),
   midi.NoteOffEvent(tick=240, channel=9, data=[40, 80]),
   midi.NoteOnEvent(tick=0, channel=9, data=[40, 127]),
   midi.NoteOffEvent(tick=240, channel=9, data=[40, 80]),
   midi.NoteOnEvent(tick=0, channel=9, data=[36, 127]),
   midi.NoteOnEvent(tick=0, channel=9, data=[49, 127]),
   midi.NoteOffEvent(tick=240, channel=9, data=[36, 80]),
   midi.NoteOnEvent(tick=0, channel=9, data=[36, 127]),
   midi.NoteOffEvent(tick=240, channel=9, data=[36, 80]),
   midi.NoteOnEvent(tick=0, channel=9, data=[40, 127]),
   midi.NoteOffEvent(tick=480, channel=9, data=[49, 80]),
   midi.NoteOffEvent(tick=0, channel=9, data=[40, 80]),
   midi.NoteOnEvent(tick=0, channel=9, data=[36, 127]),
   midi.NoteOnEvent(tick=0, channel=9, data=[49, 127]),
   midi.NoteOffEvent(tick=240, channel=9, data=[36, 80]),
   midi.NoteOnEvent(tick=0, channel=9, data=[36, 127]),
   midi.NoteOffEvent(tick=240, channel=9, data=[36, 80]),
   midi.NoteOnEvent(tick=0, channel=9, data=[40, 127]),
   midi.NoteOffEvent(tick=480, channel=9, data=[49, 80]),
   midi.NoteOffEvent(tick=0, channel=9, data=[40, 80]),
   midi.NoteOnEvent(tick=0, channel=9, data=[36, 127]),
   midi.NoteOnEvent(tick=0, channel=9, data=[49, 127]),
   midi.NoteOffEvent(tick=240, channel=9, data=[36, 80]),
   midi.NoteOnEvent(tick=0, channel=9, data=[36, 127]),
   midi.NoteOffEvent(tick=240, channel=9, data=[36, 80]),
   midi.NoteOnEvent(tick=0, channel=9, data=[40, 127]),
   midi.NoteOffEvent(tick=480, channel=9, data=[49, 80]),
   midi.NoteOffEvent(tick=0, channel=9, data=[40, 80]),
   midi.NoteOnEvent(tick=0, channel=9, data=[36, 127]),
   midi.NoteOffEvent(tick=240, channel=9, data=[36, 80]),
   midi.NoteOnEvent(tick=0, channel=9, data=[36, 127]),
   midi.NoteOffEvent(tick=240, channel=9, data=[36, 80]),
   midi.NoteOnEvent(tick=0, channel=9, data=[40, 127]),
   midi.NoteOffEvent(tick=120, channel=9, data=[40, 80]),
   midi.NoteOnEvent(tick=0, channel=9, data=[40, 127]),
   midi.NoteOffEvent(tick=120, channel=9, data=[40, 80]),
   midi.NoteOnEvent(tick=0, channel=9, data=[40, 127]),
   midi.NoteOffEvent(tick=120, channel=9, data=[40, 80]),
   midi.NoteOnEvent(tick=0, channel=9, data=[40, 127]),
   midi.NoteOffEvent(tick=120, channel=9, data=[40, 80]),
   midi.NoteOnEvent(tick=0, channel=9, data=[49, 127]),
   midi.NoteOnEvent(tick=0, channel=9, data=[36, 127]),
   midi.NoteOffEvent(tick=480, channel=9, data=[36, 80]),
   midi.NoteOnEvent(tick=0, channel=9, data=[40, 127]),
   midi.NoteOffEvent(tick=480, channel=9, data=[49, 80]),
   midi.NoteOffEvent(tick=0, channel=9, data=[40, 80]),
   midi.NoteOnEvent(tick=240, channel=9, data=[36, 127]),
   midi.NoteOffEvent(tick=240, channel=9, data=[36, 80]),
   midi.NoteOnEvent(tick=0, channel=9, data=[40, 127]),
   midi.NoteOffEvent(tick=480, channel=9, data=[40, 80]),
   midi.NoteOnEvent(tick=0, channel=9, data=[36, 127]),
   midi.NoteOffEvent(tick=480, channel=9, data=[36, 80]),
   midi.NoteOnEvent(tick=0, channel=9, data=[40, 127]),
   midi.NoteOffEvent(tick=480, channel=9, data=[40, 80]),
   midi.NoteOnEvent(tick=240, channel=9, data=[36, 127]),
   midi.NoteOffEvent(tick=240, channel=9, data=[36, 80]),
   midi.NoteOnEvent(tick=0, channel=9, data=[40, 127]),
   midi.NoteOffEvent(tick=240, channel=9, data=[40, 80]),
   midi.NoteOnEvent(tick=0, channel=9, data=[40, 127]),
   midi.NoteOffEvent(tick=240, channel=9, data=[40, 80]),
   midi.NoteOnEvent(tick=0, channel=9, data=[36, 127]),
   midi.NoteOnEvent(tick=0, channel=9, data=[49, 127]),
   midi.NoteOffEvent(tick=240, channel=9, data=[36, 80]),
   midi.NoteOnEvent(tick=0, channel=9, data=[36, 127]),
   midi.NoteOffEvent(tick=240, channel=9, data=[36, 80]),
   midi.NoteOnEvent(tick=0, channel=9, data=[40, 127]),
   midi.NoteOffEvent(tick=480, channel=9, data=[49, 80]),
   midi.NoteOffEvent(tick=0, channel=9, data=[40, 80]),
   midi.NoteOnEvent(tick=0, channel=9, data=[36, 127]),
   midi.NoteOnEvent(tick=0, channel=9, data=[49, 127]),
   midi.NoteOffEvent(tick=240, channel=9, data=[36, 80]),
   midi.NoteOnEvent(tick=0, channel=9, data=[36, 127]),
   midi.NoteOffEvent(tick=240, channel=9, data=[36, 80]),
   midi.NoteOnEvent(tick=0, channel=9, data=[40, 127]),
   midi.NoteOffEvent(tick=480, channel=9, data=[49, 80]),
   midi.NoteOffEvent(tick=0, channel=9, data=[40, 80]),
   midi.NoteOnEvent(tick=0, channel=9, data=[36, 127]),
   midi.NoteOnEvent(tick=0, channel=9, data=[49, 127]),
   midi.NoteOffEvent(tick=240, channel=9, data=[36, 80]),
   midi.NoteOnEvent(tick=0, channel=9, data=[36, 127]),
   midi.NoteOffEvent(tick=240, channel=9, data=[36, 80]),
   midi.NoteOnEvent(tick=0, channel=9, data=[40, 127]),
   midi.NoteOffEvent(tick=480, channel=9, data=[49, 80]),
   midi.NoteOffEvent(tick=0, channel=9, data=[40, 80]),
   midi.NoteOnEvent(tick=0, channel=9, data=[36, 127]),
   midi.NoteOffEvent(tick=240, channel=9, data=[36, 80]),
   midi.NoteOnEvent(tick=0, channel=9, data=[36, 127]),
   midi.NoteOffEvent(tick=240, channel=9, data=[36, 80]),
   midi.NoteOnEvent(tick=0, channel=9, data=[48, 127]),
   midi.NoteOffEvent(tick=120, channel=9, data=[48, 80]),
   midi.NoteOnEvent(tick=0, channel=9, data=[48, 127]),
   midi.NoteOffEvent(tick=120, channel=9, data=[48, 80]),
   midi.NoteOnEvent(tick=0, channel=9, data=[45, 127]),
   midi.NoteOffEvent(tick=120, channel=9, data=[45, 80]),
   midi.NoteOnEvent(tick=0, channel=9, data=[41, 127]),
   midi.NoteOffEvent(tick=120, channel=9, data=[41, 80]),
   midi.NoteOnEvent(tick=0, channel=9, data=[49, 127]),
   midi.NoteOnEvent(tick=0, channel=9, data=[36, 127]),
   midi.NoteOffEvent(tick=720, channel=9, data=[36, 80]),
   midi.NoteOnEvent(tick=0, channel=9, data=[40, 127]),
   midi.NoteOffEvent(tick=240, channel=9, data=[49, 80]),
   midi.NoteOffEvent(tick=480, channel=9, data=[40, 80]),
   midi.NoteOnEvent(tick=0, channel=9, data=[36, 127]),
   midi.NoteOffEvent(tick=720, channel=9, data=[36, 80]),
   midi.NoteOnEvent(tick=0, channel=9, data=[36, 127]),
   midi.NoteOffEvent(tick=480, channel=9, data=[36, 80]),
   midi.NoteOnEvent(tick=0, channel=9, data=[40, 127]),
   midi.NoteOffEvent(tick=240, channel=9, data=[40, 80]),
   midi.NoteOnEvent(tick=0, channel=9, data=[36, 127]),
   midi.NoteOffEvent(tick=480, channel=9, data=[36, 80]),
   midi.NoteOnEvent(tick=0, channel=9, data=[36, 127]),
   midi.NoteOffEvent(tick=480, channel=9, data=[36, 80]),
   midi.NoteOnEvent(tick=0, channel=9, data=[49, 127]),
   midi.NoteOnEvent(tick=0, channel=9, data=[36, 127]),
   midi.NoteOnEvent(tick=0, channel=9, data=[40, 127]),
   midi.NoteOffEvent(tick=240, channel=9, data=[40, 80]),
   midi.NoteOnEvent(tick=0, channel=9, data=[45, 127]),
   midi.NoteOffEvent(tick=240, channel=9, data=[45, 80]),
   midi.NoteOnEvent(tick=0, channel=9, data=[41, 127]),
   midi.NoteOffEvent(tick=240, channel=9, data=[49, 80]),
   midi.NoteOffEvent(tick=0, channel=9, data=[41, 80]),
   midi.NoteOnEvent(tick=0, channel=9, data=[49, 127]),
   midi.NoteOffEvent(tick=240, channel=9, data=[36, 80]),
   midi.NoteOnEvent(tick=0, channel=9, data=[48, 127]),
   midi.NoteOnEvent(tick=0, channel=9, data=[36, 127]),
   midi.NoteOffEvent(tick=240, channel=9, data=[48, 80]),
   midi.NoteOnEvent(tick=0, channel=9, data=[41, 127]),
   midi.NoteOffEvent(tick=240, channel=9, data=[49, 80]),
   midi.NoteOffEvent(tick=0, channel=9, data=[41, 80]),
   midi.NoteOnEvent(tick=0, channel=9, data=[49, 127]),
   midi.NoteOffEvent(tick=480, channel=9, data=[36, 80]),
   midi.NoteOnEvent(tick=0, channel=9, data=[36, 127]),
   midi.NoteOnEvent(tick=480, channel=9, data=[48, 127]),
   midi.NoteOffEvent(tick=120, channel=9, data=[48, 80]),
   midi.NoteOnEvent(tick=0, channel=9, data=[47, 127]),
   midi.NoteOffEvent(tick=120, channel=9, data=[47, 80]),
   midi.NoteOnEvent(tick=0, channel=9, data=[45, 127]),
   midi.NoteOffEvent(tick=120, channel=9, data=[45, 80]),
   midi.NoteOnEvent(tick=0, channel=9, data=[43, 127]),
   midi.NoteOffEvent(tick=120, channel=9, data=[49, 80]),
   midi.NoteOffEvent(tick=0, channel=9, data=[36, 80]),
   midi.NoteOffEvent(tick=0, channel=9, data=[43, 80]),
   midi.NoteOnEvent(tick=0, channel=9, data=[41, 127]),
   midi.NoteOffEvent(tick=120, channel=9, data=[41, 80]),
   midi.NoteOnEvent(tick=0, channel=9, data=[48, 127]),
   midi.NoteOffEvent(tick=120, channel=9, data=[48, 80]),
   midi.NoteOnEvent(tick=0, channel=9, data=[45, 127]),
   midi.NoteOffEvent(tick=120, channel=9, data=[45, 80]),
   midi.NoteOnEvent(tick=0, channel=9, data=[41, 127]),
   midi.NoteOnEvent(tick=0, channel=9, data=[40, 127]),
   midi.NoteOffEvent(tick=120, channel=9, data=[41, 80]),
   midi.NoteOnEvent(tick=0, channel=9, data=[48, 127]),
   midi.NoteOffEvent(tick=120, channel=9, data=[40, 80]),
   midi.NoteOffEvent(tick=0, channel=9, data=[48, 80]),
   midi.NoteOnEvent(tick=0, channel=9, data=[47, 127]),
   midi.NoteOffEvent(tick=120, channel=9, data=[47, 80]),
   midi.NoteOnEvent(tick=0, channel=9, data=[45, 127]),
   midi.NoteOnEvent(tick=0, channel=9, data=[40, 127]),
   midi.NoteOffEvent(tick=120, channel=9, data=[45, 80]),
   midi.NoteOnEvent(tick=0, channel=9, data=[43, 127]),
   midi.NoteOffEvent(tick=120, channel=9, data=[40, 80]),
   midi.NoteOffEvent(tick=0, channel=9, data=[43, 80]),
   midi.NoteOnEvent(tick=0, channel=9, data=[49, 127]),
   midi.NoteOnEvent(tick=0, channel=9, data=[36, 127]),
   midi.NoteOffEvent(tick=720, channel=9, data=[36, 80]),
   midi.NoteOnEvent(tick=0, channel=9, data=[40, 127]),
   midi.NoteOffEvent(tick=240, channel=9, data=[49, 80]),
   midi.NoteOffEvent(tick=480, channel=9, data=[40, 80]),
   midi.NoteOnEvent(tick=0, channel=9, data=[36, 127]),
   midi.NoteOffEvent(tick=720, channel=9, data=[36, 80]),
   midi.NoteOnEvent(tick=0, channel=9, data=[36, 127]),
   midi.NoteOffEvent(tick=480, channel=9, data=[36, 80]),
   midi.NoteOnEvent(tick=0, channel=9, data=[40, 127]),
   midi.NoteOffEvent(tick=240, channel=9, data=[40, 80]),
   midi.NoteOnEvent(tick=0, channel=9, data=[36, 127]),
   midi.NoteOffEvent(tick=480, channel=9, data=[36, 80]),
   midi.NoteOnEvent(tick=0, channel=9, data=[36, 127]),
   midi.NoteOffEvent(tick=240, channel=9, data=[36, 80]),
   midi.NoteOnEvent(tick=0, channel=9, data=[40, 127]),
   midi.NoteOffEvent(tick=240, channel=9, data=[40, 80]),
   midi.NoteOnEvent(tick=0, channel=9, data=[49, 127]),
   midi.NoteOnEvent(tick=0, channel=9, data=[36, 127]),
   midi.NoteOnEvent(tick=240, channel=9, data=[45, 127]),
   midi.NoteOffEvent(tick=240, channel=9, data=[45, 80]),
   midi.NoteOnEvent(tick=0, channel=9, data=[41, 127]),
   midi.NoteOffEvent(tick=240, channel=9, data=[49, 80]),
   midi.NoteOffEvent(tick=0, channel=9, data=[41, 80]),
   midi.NoteOnEvent(tick=0, channel=9, data=[49, 127]),
   midi.NoteOffEvent(tick=240, channel=9, data=[36, 80]),
   midi.NoteOnEvent(tick=0, channel=9, data=[48, 127]),
   midi.NoteOnEvent(tick=0, channel=9, data=[36, 127]),
   midi.NoteOffEvent(tick=240, channel=9, data=[48, 80]),
   midi.NoteOnEvent(tick=0, channel=9, data=[41, 127]),
   midi.NoteOffEvent(tick=240, channel=9, data=[49, 80]),
   midi.NoteOffEvent(tick=0, channel=9, data=[41, 80]),
   midi.NoteOnEvent(tick=0, channel=9, data=[49, 127]),
   midi.NoteOffEvent(tick=480, channel=9, data=[36, 80]),
   midi.NoteOnEvent(tick=0, channel=9, data=[36, 127]),
   midi.NoteOnEvent(tick=480, channel=9, data=[48, 127]),
   midi.NoteOffEvent(tick=120, channel=9, data=[48, 80]),
   midi.NoteOnEvent(tick=0, channel=9, data=[47, 127]),
   midi.NoteOffEvent(tick=120, channel=9, data=[47, 80]),
   midi.NoteOnEvent(tick=0, channel=9, data=[45, 127]),
   midi.NoteOffEvent(tick=120, channel=9, data=[45, 80]),
   midi.NoteOnEvent(tick=0, channel=9, data=[43, 127]),
   midi.NoteOffEvent(tick=120, channel=9, data=[49, 80]),
   midi.NoteOffEvent(tick=0, channel=9, data=[36, 80]),
   midi.NoteOffEvent(tick=0, channel=9, data=[43, 80]),
   midi.NoteOnEvent(tick=0, channel=9, data=[41, 127]),
   midi.NoteOffEvent(tick=120, channel=9, data=[41, 80]),
   midi.NoteOnEvent(tick=0, channel=9, data=[48, 127]),
   midi.NoteOffEvent(tick=120, channel=9, data=[48, 80]),
   midi.NoteOnEvent(tick=0, channel=9, data=[45, 127]),
   midi.NoteOffEvent(tick=120, channel=9, data=[45, 80]),
   midi.NoteOnEvent(tick=0, channel=9, data=[41, 127]),
   midi.NoteOffEvent(tick=120, channel=9, data=[41, 80]),
   midi.NoteOnEvent(tick=0, channel=9, data=[48, 127]),
   midi.NoteOffEvent(tick=120, channel=9, data=[48, 80]),
   midi.NoteOnEvent(tick=0, channel=9, data=[47, 127]),
   midi.NoteOffEvent(tick=120, channel=9, data=[47, 80]),
   midi.NoteOnEvent(tick=0, channel=9, data=[45, 127]),
   midi.NoteOffEvent(tick=120, channel=9, data=[45, 80]),
   midi.NoteOnEvent(tick=0, channel=9, data=[43, 127]),
   midi.NoteOffEvent(tick=120, channel=9, data=[43, 80]),
   midi.NoteOnEvent(tick=0, channel=9, data=[49, 127]),
   midi.NoteOnEvent(tick=0, channel=9, data=[36, 127]),
   midi.NoteOffEvent(tick=480, channel=9, data=[36, 80]),
   midi.NoteOnEvent(tick=0, channel=9, data=[40, 127]),
   midi.NoteOffEvent(tick=480, channel=9, data=[49, 80]),
   midi.NoteOffEvent(tick=0, channel=9, data=[40, 80]),
   midi.NoteOnEvent(tick=240, channel=9, data=[36, 127]),
   midi.NoteOffEvent(tick=240, channel=9, data=[36, 80]),
   midi.NoteOnEvent(tick=0, channel=9, data=[40, 127]),
   midi.NoteOffEvent(tick=480, channel=9, data=[40, 80]),
   midi.NoteOnEvent(tick=0, channel=9, data=[36, 127]),
   midi.NoteOffEvent(tick=480, channel=9, data=[36, 80]),
   midi.NoteOnEvent(tick=0, channel=9, data=[40, 127]),
   midi.NoteOffEvent(tick=480, channel=9, data=[40, 80]),
   midi.NoteOnEvent(tick=240, channel=9, data=[36, 127]),
   midi.NoteOffEvent(tick=240, channel=9, data=[36, 80]),
   midi.NoteOnEvent(tick=0, channel=9, data=[40, 127]),
   midi.NoteOffEvent(tick=240, channel=9, data=[40, 80]),
   midi.NoteOnEvent(tick=0, channel=9, data=[40, 127]),
   midi.NoteOffEvent(tick=240, channel=9, data=[40, 80]),
   midi.NoteOnEvent(tick=0, channel=9, data=[36, 127]),
   midi.NoteOnEvent(tick=0, channel=9, data=[49, 127]),
   midi.NoteOffEvent(tick=240, channel=9, data=[36, 80]),
   midi.NoteOnEvent(tick=0, channel=9, data=[36, 127]),
   midi.NoteOffEvent(tick=240, channel=9, data=[36, 80]),
   midi.NoteOnEvent(tick=0, channel=9, data=[40, 127]),
   midi.NoteOffEvent(tick=480, channel=9, data=[49, 80]),
   midi.NoteOffEvent(tick=0, channel=9, data=[40, 80]),
   midi.NoteOnEvent(tick=0, channel=9, data=[36, 127]),
   midi.NoteOnEvent(tick=0, channel=9, data=[49, 127]),
   midi.NoteOffEvent(tick=240, channel=9, data=[36, 80]),
   midi.NoteOnEvent(tick=0, channel=9, data=[36, 127]),
   midi.NoteOffEvent(tick=240, channel=9, data=[36, 80]),
   midi.NoteOnEvent(tick=0, channel=9, data=[40, 127]),
   midi.NoteOffEvent(tick=480, channel=9, data=[49, 80]),
   midi.NoteOffEvent(tick=0, channel=9, data=[40, 80]),
   midi.NoteOnEvent(tick=0, channel=9, data=[36, 127]),
   midi.NoteOnEvent(tick=0, channel=9, data=[49, 127]),
   midi.NoteOffEvent(tick=240, channel=9, data=[36, 80]),
   midi.NoteOnEvent(tick=0, channel=9, data=[36, 127]),
   midi.NoteOffEvent(tick=240, channel=9, data=[36, 80]),
   midi.NoteOnEvent(tick=0, channel=9, data=[40, 127]),
   midi.NoteOffEvent(tick=480, channel=9, data=[49, 80]),
   midi.NoteOffEvent(tick=0, channel=9, data=[40, 80]),
   midi.NoteOnEvent(tick=0, channel=9, data=[36, 127]),
   midi.NoteOffEvent(tick=240, channel=9, data=[36, 80]),
   midi.NoteOnEvent(tick=0, channel=9, data=[36, 127]),
   midi.NoteOffEvent(tick=240, channel=9, data=[36, 80]),
   midi.NoteOnEvent(tick=0, channel=9, data=[40, 127]),
   midi.NoteOffEvent(tick=120, channel=9, data=[40, 80]),
   midi.NoteOnEvent(tick=0, channel=9, data=[40, 127]),
   midi.NoteOffEvent(tick=120, channel=9, data=[40, 80]),
   midi.NoteOnEvent(tick=0, channel=9, data=[40, 127]),
   midi.NoteOffEvent(tick=120, channel=9, data=[40, 80]),
   midi.NoteOnEvent(tick=0, channel=9, data=[40, 127]),
   midi.NoteOffEvent(tick=120, channel=9, data=[40, 80]),
   midi.NoteOnEvent(tick=0, channel=9, data=[49, 127]),
   midi.NoteOnEvent(tick=0, channel=9, data=[36, 127]),
   midi.NoteOffEvent(tick=240, channel=9, data=[36, 80]),
   midi.NoteOnEvent(tick=0, channel=9, data=[42, 127]),
   midi.NoteOffEvent(tick=120, channel=9, data=[42, 80]),
   midi.NoteOnEvent(tick=0, channel=9, data=[42, 127]),
   midi.NoteOffEvent(tick=120, channel=9, data=[42, 80]),
   midi.NoteOnEvent(tick=0, channel=9, data=[40, 127]),
   midi.NoteOffEvent(tick=240, channel=9, data=[40, 80]),
   midi.NoteOnEvent(tick=0, channel=9, data=[42, 127]),
   midi.NoteOffEvent(tick=120, channel=9, data=[42, 80]),
   midi.NoteOnEvent(tick=0, channel=9, data=[42, 127]),
   midi.NoteOffEvent(tick=120, channel=9, data=[49, 80]),
   midi.NoteOffEvent(tick=0, channel=9, data=[42, 80]),
   midi.NoteOnEvent(tick=0, channel=9, data=[36, 127]),
   midi.NoteOffEvent(tick=240, channel=9, data=[36, 80]),
   midi.NoteOnEvent(tick=0, channel=9, data=[42, 127]),
   midi.NoteOffEvent(tick=120, channel=9, data=[42, 80]),
   midi.NoteOnEvent(tick=0, channel=9, data=[42, 127]),
   midi.NoteOffEvent(tick=120, channel=9, data=[42, 80]),
   midi.NoteOnEvent(tick=0, channel=9, data=[40, 127]),
   midi.NoteOffEvent(tick=240, channel=9, data=[40, 80]),
   midi.NoteOnEvent(tick=0, channel=9, data=[42, 127]),
   midi.NoteOffEvent(tick=120, channel=9, data=[42, 80]),
   midi.NoteOnEvent(tick=0, channel=9, data=[42, 127]),
   midi.NoteOffEvent(tick=120, channel=9, data=[42, 80]),
   midi.NoteOnEvent(tick=0, channel=9, data=[36, 127]),
   midi.NoteOffEvent(tick=240, channel=9, data=[36, 80]),
   midi.NoteOnEvent(tick=0, channel=9, data=[42, 127]),
   midi.NoteOffEvent(tick=120, channel=9, data=[42, 80]),
   midi.NoteOnEvent(tick=0, channel=9, data=[42, 127]),
   midi.NoteOffEvent(tick=120, channel=9, data=[42, 80]),
   midi.NoteOnEvent(tick=0, channel=9, data=[40, 127]),
   midi.NoteOffEvent(tick=240, channel=9, data=[40, 80]),
   midi.NoteOnEvent(tick=0, channel=9, data=[42, 127]),
   midi.NoteOffEvent(tick=120, channel=9, data=[42, 80]),
   midi.NoteOnEvent(tick=0, channel=9, data=[42, 127]),
   midi.NoteOffEvent(tick=120, channel=9, data=[42, 80]),
   midi.NoteOnEvent(tick=0, channel=9, data=[36, 127]),
   midi.NoteOffEvent(tick=240, channel=9, data=[36, 80]),
   midi.NoteOnEvent(tick=0, channel=9, data=[42, 127]),
   midi.NoteOffEvent(tick=120, channel=9, data=[42, 80]),
   midi.NoteOnEvent(tick=0, channel=9, data=[42, 127]),
   midi.NoteOffEvent(tick=120, channel=9, data=[42, 80]),
   midi.NoteOnEvent(tick=0, channel=9, data=[40, 127]),
   midi.NoteOffEvent(tick=240, channel=9, data=[40, 80]),
   midi.NoteOnEvent(tick=0, channel=9, data=[42, 127]),
   midi.NoteOffEvent(tick=120, channel=9, data=[42, 80]),
   midi.NoteOnEvent(tick=0, channel=9, data=[42, 127]),
   midi.NoteOffEvent(tick=120, channel=9, data=[42, 80]),
   midi.NoteOnEvent(tick=0, channel=9, data=[36, 127]),
   midi.NoteOffEvent(tick=240, channel=9, data=[36, 80]),
   midi.NoteOnEvent(tick=0, channel=9, data=[42, 127]),
   midi.NoteOffEvent(tick=120, channel=9, data=[42, 80]),
   midi.NoteOnEvent(tick=0, channel=9, data=[42, 127]),
   midi.NoteOffEvent(tick=120, channel=9, data=[42, 80]),
   midi.NoteOnEvent(tick=0, channel=9, data=[40, 127]),
   midi.NoteOffEvent(tick=240, channel=9, data=[40, 80]),
   midi.NoteOnEvent(tick=0, channel=9, data=[42, 127]),
   midi.NoteOffEvent(tick=120, channel=9, data=[42, 80]),
   midi.NoteOnEvent(tick=0, channel=9, data=[42, 127]),
   midi.NoteOffEvent(tick=120, channel=9, data=[42, 80]),
   midi.NoteOnEvent(tick=0, channel=9, data=[36, 127]),
   midi.NoteOffEvent(tick=240, channel=9, data=[36, 80]),
   midi.NoteOnEvent(tick=0, channel=9, data=[42, 127]),
   midi.NoteOffEvent(tick=120, channel=9, data=[42, 80]),
   midi.NoteOnEvent(tick=0, channel=9, data=[42, 127]),
   midi.NoteOffEvent(tick=120, channel=9, data=[42, 80]),
   midi.NoteOnEvent(tick=0, channel=9, data=[40, 127]),
   midi.NoteOffEvent(tick=240, channel=9, data=[40, 80]),
   midi.NoteOnEvent(tick=0, channel=9, data=[42, 127]),
   midi.NoteOffEvent(tick=120, channel=9, data=[42, 80]),
   midi.NoteOnEvent(tick=0, channel=9, data=[42, 127]),
   midi.NoteOffEvent(tick=120, channel=9, data=[42, 80]),
   midi.NoteOnEvent(tick=0, channel=9, data=[36, 127]),
   midi.NoteOffEvent(tick=240, channel=9, data=[36, 80]),
   midi.NoteOnEvent(tick=0, channel=9, data=[42, 127]),
   midi.NoteOffEvent(tick=120, channel=9, data=[42, 80]),
   midi.NoteOnEvent(tick=0, channel=9, data=[42, 127]),
   midi.NoteOffEvent(tick=120, channel=9, data=[42, 80]),
   midi.NoteOnEvent(tick=0, channel=9, data=[40, 127]),
   midi.NoteOffEvent(tick=240, channel=9, data=[40, 80]),
   midi.NoteOnEvent(tick=0, channel=9, data=[42, 127]),
   midi.NoteOffEvent(tick=120, channel=9, data=[42, 80]),
   midi.NoteOnEvent(tick=0, channel=9, data=[42, 127]),
   midi.NoteOffEvent(tick=120, channel=9, data=[42, 80]),
   midi.NoteOnEvent(tick=0, channel=9, data=[36, 127]),
   midi.NoteOffEvent(tick=240, channel=9, data=[36, 80]),
   midi.NoteOnEvent(tick=0, channel=9, data=[42, 127]),
   midi.NoteOffEvent(tick=120, channel=9, data=[42, 80]),
   midi.NoteOnEvent(tick=0, channel=9, data=[42, 127]),
   midi.NoteOffEvent(tick=120, channel=9, data=[42, 80]),
   midi.NoteOnEvent(tick=0, channel=9, data=[48, 127]),
   midi.NoteOffEvent(tick=120, channel=9, data=[48, 80]),
   midi.NoteOnEvent(tick=0, channel=9, data=[48, 127]),
   midi.NoteOffEvent(tick=120, channel=9, data=[48, 80]),
   midi.NoteOnEvent(tick=0, channel=9, data=[45, 127]),
   midi.NoteOffEvent(tick=120, channel=9, data=[45, 80]),
   midi.NoteOnEvent(tick=0, channel=9, data=[41, 127]),
   midi.NoteOffEvent(tick=120, channel=9, data=[41, 80]),
   midi.NoteOnEvent(tick=0, channel=9, data=[49, 127]),
   midi.NoteOnEvent(tick=0, channel=9, data=[36, 127]),
   midi.NoteOffEvent(tick=480, channel=9, data=[36, 80]),
   midi.NoteOnEvent(tick=0, channel=9, data=[40, 127]),
   midi.NoteOffEvent(tick=480, channel=9, data=[49, 80]),
   midi.NoteOffEvent(tick=0, channel=9, data=[40, 80]),
   midi.NoteOnEvent(tick=240, channel=9, data=[36, 127]),
   midi.NoteOffEvent(tick=240, channel=9, data=[36, 80]),
   midi.NoteOnEvent(tick=0, channel=9, data=[40, 127]),
   midi.NoteOffEvent(tick=480, channel=9, data=[40, 80]),
   midi.NoteOnEvent(tick=0, channel=9, data=[36, 127]),
   midi.NoteOffEvent(tick=480, channel=9, data=[36, 80]),
   midi.NoteOnEvent(tick=0, channel=9, data=[40, 127]),
   midi.NoteOffEvent(tick=480, channel=9, data=[40, 80]),
   midi.NoteOnEvent(tick=240, channel=9, data=[36, 127]),
   midi.NoteOffEvent(tick=240, channel=9, data=[36, 80]),
   midi.NoteOnEvent(tick=0, channel=9, data=[40, 127]),
   midi.NoteOffEvent(tick=240, channel=9, data=[40, 80]),
   midi.NoteOnEvent(tick=0, channel=9, data=[40, 127]),
   midi.NoteOffEvent(tick=240, channel=9, data=[40, 80]),
   midi.NoteOnEvent(tick=0, channel=9, data=[36, 127]),
   midi.NoteOnEvent(tick=0, channel=9, data=[49, 127]),
   midi.NoteOffEvent(tick=240, channel=9, data=[36, 80]),
   midi.NoteOnEvent(tick=0, channel=9, data=[36, 127]),
   midi.NoteOffEvent(tick=240, channel=9, data=[36, 80]),
   midi.NoteOnEvent(tick=0, channel=9, data=[40, 127]),
   midi.NoteOffEvent(tick=480, channel=9, data=[49, 80]),
   midi.NoteOffEvent(tick=0, channel=9, data=[40, 80]),
   midi.NoteOnEvent(tick=0, channel=9, data=[36, 127]),
   midi.NoteOnEvent(tick=0, channel=9, data=[49, 127]),
   midi.NoteOffEvent(tick=240, channel=9, data=[36, 80]),
   midi.NoteOnEvent(tick=0, channel=9, data=[36, 127]),
   midi.NoteOffEvent(tick=240, channel=9, data=[36, 80]),
   midi.NoteOnEvent(tick=0, channel=9, data=[40, 127]),
   midi.NoteOffEvent(tick=480, channel=9, data=[49, 80]),
   midi.NoteOffEvent(tick=0, channel=9, data=[40, 80]),
   midi.NoteOnEvent(tick=0, channel=9, data=[36, 127]),
   midi.NoteOnEvent(tick=0, channel=9, data=[49, 127]),
   midi.NoteOffEvent(tick=240, channel=9, data=[36, 80]),
   midi.NoteOnEvent(tick=0, channel=9, data=[36, 127]),
   midi.NoteOffEvent(tick=240, channel=9, data=[36, 80]),
   midi.NoteOnEvent(tick=0, channel=9, data=[40, 127]),
   midi.NoteOffEvent(tick=480, channel=9, data=[49, 80]),
   midi.NoteOffEvent(tick=0, channel=9, data=[40, 80]),
   midi.NoteOnEvent(tick=0, channel=9, data=[36, 127]),
   midi.NoteOffEvent(tick=240, channel=9, data=[36, 80]),
   midi.NoteOnEvent(tick=0, channel=9, data=[36, 127]),
   midi.NoteOffEvent(tick=240, channel=9, data=[36, 80]),
   midi.NoteOnEvent(tick=0, channel=9, data=[40, 127]),
   midi.NoteOffEvent(tick=120, channel=9, data=[40, 80]),
   midi.NoteOnEvent(tick=0, channel=9, data=[40, 127]),
   midi.NoteOffEvent(tick=120, channel=9, data=[40, 80]),
   midi.NoteOnEvent(tick=0, channel=9, data=[40, 127]),
   midi.NoteOffEvent(tick=120, channel=9, data=[40, 80]),
   midi.NoteOnEvent(tick=0, channel=9, data=[40, 127]),
   midi.NoteOffEvent(tick=120, channel=9, data=[40, 80]),
   midi.NoteOnEvent(tick=0, channel=9, data=[49, 127]),
   midi.NoteOnEvent(tick=0, channel=9, data=[36, 127]),
   midi.NoteOffEvent(tick=480, channel=9, data=[36, 80]),
   midi.NoteOnEvent(tick=0, channel=9, data=[40, 127]),
   midi.NoteOffEvent(tick=480, channel=9, data=[49, 80]),
   midi.NoteOffEvent(tick=0, channel=9, data=[40, 80]),
   midi.NoteOnEvent(tick=240, channel=9, data=[36, 127]),
   midi.NoteOffEvent(tick=240, channel=9, data=[36, 80]),
   midi.NoteOnEvent(tick=0, channel=9, data=[40, 127]),
   midi.NoteOffEvent(tick=480, channel=9, data=[40, 80]),
   midi.NoteOnEvent(tick=0, channel=9, data=[36, 127]),
   midi.NoteOffEvent(tick=480, channel=9, data=[36, 80]),
   midi.NoteOnEvent(tick=0, channel=9, data=[40, 127]),
   midi.NoteOffEvent(tick=480, channel=9, data=[40, 80]),
   midi.NoteOnEvent(tick=240, channel=9, data=[36, 127]),
   midi.NoteOffEvent(tick=240, channel=9, data=[36, 80]),
   midi.NoteOnEvent(tick=0, channel=9, data=[40, 127]),
   midi.NoteOffEvent(tick=240, channel=9, data=[40, 80]),
   midi.NoteOnEvent(tick=0, channel=9, data=[40, 127]),
   midi.NoteOffEvent(tick=240, channel=9, data=[40, 80]),
   midi.NoteOnEvent(tick=0, channel=9, data=[36, 127]),
   midi.NoteOnEvent(tick=0, channel=9, data=[49, 127]),
   midi.NoteOffEvent(tick=240, channel=9, data=[36, 80]),
   midi.NoteOnEvent(tick=0, channel=9, data=[36, 127]),
   midi.NoteOffEvent(tick=240, channel=9, data=[36, 80]),
   midi.NoteOnEvent(tick=0, channel=9, data=[40, 127]),
   midi.NoteOffEvent(tick=480, channel=9, data=[49, 80]),
   midi.NoteOffEvent(tick=0, channel=9, data=[40, 80]),
   midi.NoteOnEvent(tick=0, channel=9, data=[36, 127]),
   midi.NoteOnEvent(tick=0, channel=9, data=[49, 127]),
   midi.NoteOffEvent(tick=240, channel=9, data=[36, 80]),
   midi.NoteOnEvent(tick=0, channel=9, data=[36, 127]),
   midi.NoteOffEvent(tick=240, channel=9, data=[36, 80]),
   midi.NoteOnEvent(tick=0, channel=9, data=[40, 127]),
   midi.NoteOffEvent(tick=480, channel=9, data=[49, 80]),
   midi.NoteOffEvent(tick=0, channel=9, data=[40, 80]),
   midi.NoteOnEvent(tick=0, channel=9, data=[36, 127]),
   midi.NoteOnEvent(tick=0, channel=9, data=[49, 127]),
   midi.NoteOffEvent(tick=240, channel=9, data=[36, 80]),
   midi.NoteOnEvent(tick=0, channel=9, data=[36, 127]),
   midi.NoteOffEvent(tick=240, channel=9, data=[36, 80]),
   midi.NoteOnEvent(tick=0, channel=9, data=[40, 127]),
   midi.NoteOffEvent(tick=480, channel=9, data=[49, 80]),
   midi.NoteOffEvent(tick=0, channel=9, data=[40, 80]),
   midi.NoteOnEvent(tick=0, channel=9, data=[36, 127]),
   midi.NoteOffEvent(tick=240, channel=9, data=[36, 80]),
   midi.NoteOnEvent(tick=0, channel=9, data=[36, 127]),
   midi.NoteOffEvent(tick=240, channel=9, data=[36, 80]),
   midi.NoteOnEvent(tick=0, channel=9, data=[48, 127]),
   midi.NoteOffEvent(tick=120, channel=9, data=[48, 80]),
   midi.NoteOnEvent(tick=0, channel=9, data=[48, 127]),
   midi.NoteOffEvent(tick=120, channel=9, data=[48, 80]),
   midi.NoteOnEvent(tick=0, channel=9, data=[45, 127]),
   midi.NoteOffEvent(tick=120, channel=9, data=[45, 80]),
   midi.NoteOnEvent(tick=0, channel=9, data=[41, 127]),
   midi.NoteOffEvent(tick=120, channel=9, data=[41, 80]),
   midi.NoteOnEvent(tick=0, channel=9, data=[49, 127]),
   midi.NoteOnEvent(tick=0, channel=9, data=[36, 127]),
   midi.NoteOffEvent(tick=720, channel=9, data=[36, 80]),
   midi.NoteOnEvent(tick=0, channel=9, data=[40, 127]),
   midi.NoteOffEvent(tick=240, channel=9, data=[49, 80]),
   midi.NoteOffEvent(tick=480, channel=9, data=[40, 80]),
   midi.NoteOnEvent(tick=0, channel=9, data=[36, 127]),
   midi.NoteOffEvent(tick=720, channel=9, data=[36, 80]),
   midi.NoteOnEvent(tick=0, channel=9, data=[36, 127]),
   midi.NoteOffEvent(tick=480, channel=9, data=[36, 80]),
   midi.NoteOnEvent(tick=0, channel=9, data=[40, 127]),
   midi.NoteOffEvent(tick=240, channel=9, data=[40, 80]),
   midi.NoteOnEvent(tick=0, channel=9, data=[36, 127]),
   midi.NoteOffEvent(tick=480, channel=9, data=[36, 80]),
   midi.NoteOnEvent(tick=0, channel=9, data=[36, 127]),
   midi.NoteOffEvent(tick=240, channel=9, data=[36, 80]),
   midi.NoteOnEvent(tick=0, channel=9, data=[40, 127]),
   midi.NoteOffEvent(tick=240, channel=9, data=[40, 80]),
   midi.NoteOnEvent(tick=0, channel=9, data=[49, 127]),
   midi.NoteOnEvent(tick=0, channel=9, data=[36, 127]),
   midi.NoteOnEvent(tick=240, channel=9, data=[45, 127]),
   midi.NoteOffEvent(tick=240, channel=9, data=[45, 80]),
   midi.NoteOnEvent(tick=0, channel=9, data=[41, 127]),
   midi.NoteOffEvent(tick=240, channel=9, data=[49, 80]),
   midi.NoteOffEvent(tick=0, channel=9, data=[41, 80]),
   midi.NoteOnEvent(tick=0, channel=9, data=[49, 127]),
   midi.NoteOffEvent(tick=240, channel=9, data=[36, 80]),
   midi.NoteOnEvent(tick=0, channel=9, data=[48, 127]),
   midi.NoteOnEvent(tick=0, channel=9, data=[36, 127]),
   midi.NoteOffEvent(tick=240, channel=9, data=[48, 80]),
   midi.NoteOnEvent(tick=0, channel=9, data=[41, 127]),
   midi.NoteOffEvent(tick=240, channel=9, data=[49, 80]),
   midi.NoteOffEvent(tick=0, channel=9, data=[41, 80]),
   midi.NoteOnEvent(tick=0, channel=9, data=[49, 127]),
   midi.NoteOffEvent(tick=480, channel=9, data=[36, 80]),
   midi.NoteOnEvent(tick=0, channel=9, data=[36, 127]),
   midi.NoteOnEvent(tick=480, channel=9, data=[48, 127]),
   midi.NoteOffEvent(tick=120, channel=9, data=[48, 80]),
   midi.NoteOnEvent(tick=0, channel=9, data=[47, 127]),
   midi.NoteOffEvent(tick=120, channel=9, data=[47, 80]),
   midi.NoteOnEvent(tick=0, channel=9, data=[45, 127]),
   midi.NoteOffEvent(tick=120, channel=9, data=[45, 80]),
   midi.NoteOnEvent(tick=0, channel=9, data=[43, 127]),
   midi.NoteOffEvent(tick=120, channel=9, data=[49, 80]),
   midi.NoteOffEvent(tick=0, channel=9, data=[36, 80]),
   midi.NoteOffEvent(tick=0, channel=9, data=[43, 80]),
   midi.NoteOnEvent(tick=0, channel=9, data=[41, 127]),
   midi.NoteOffEvent(tick=120, channel=9, data=[41, 80]),
   midi.NoteOnEvent(tick=0, channel=9, data=[48, 127]),
   midi.NoteOffEvent(tick=120, channel=9, data=[48, 80]),
   midi.NoteOnEvent(tick=0, channel=9, data=[45, 127]),
   midi.NoteOffEvent(tick=120, channel=9, data=[45, 80]),
   midi.NoteOnEvent(tick=0, channel=9, data=[41, 127]),
   midi.NoteOnEvent(tick=0, channel=9, data=[40, 127]),
   midi.NoteOffEvent(tick=120, channel=9, data=[41, 80]),
   midi.NoteOnEvent(tick=0, channel=9, data=[48, 127]),
   midi.NoteOffEvent(tick=120, channel=9, data=[40, 80]),
   midi.NoteOffEvent(tick=0, channel=9, data=[48, 80]),
   midi.NoteOnEvent(tick=0, channel=9, data=[47, 127]),
   midi.NoteOffEvent(tick=120, channel=9, data=[47, 80]),
   midi.NoteOnEvent(tick=0, channel=9, data=[45, 127]),
   midi.NoteOnEvent(tick=0, channel=9, data=[40, 127]),
   midi.NoteOffEvent(tick=120, channel=9, data=[45, 80]),
   midi.NoteOnEvent(tick=0, channel=9, data=[43, 127]),
   midi.NoteOffEvent(tick=120, channel=9, data=[40, 80]),
   midi.NoteOffEvent(tick=0, channel=9, data=[43, 80]),
   midi.NoteOnEvent(tick=0, channel=9, data=[49, 127]),
   midi.NoteOnEvent(tick=0, channel=9, data=[36, 127]),
   midi.NoteOffEvent(tick=720, channel=9, data=[36, 80]),
   midi.NoteOnEvent(tick=0, channel=9, data=[40, 127]),
   midi.NoteOffEvent(tick=240, channel=9, data=[49, 80]),
   midi.NoteOffEvent(tick=480, channel=9, data=[40, 80]),
   midi.NoteOnEvent(tick=0, channel=9, data=[36, 127]),
   midi.NoteOffEvent(tick=720, channel=9, data=[36, 80]),
   midi.NoteOnEvent(tick=0, channel=9, data=[36, 127]),
   midi.NoteOffEvent(tick=480, channel=9, data=[36, 80]),
   midi.NoteOnEvent(tick=0, channel=9, data=[40, 127]),
   midi.NoteOffEvent(tick=240, channel=9, data=[40, 80]),
   midi.NoteOnEvent(tick=0, channel=9, data=[36, 127]),
   midi.NoteOffEvent(tick=480, channel=9, data=[36, 80]),
   midi.NoteOnEvent(tick=0, channel=9, data=[36, 127]),
   midi.NoteOffEvent(tick=480, channel=9, data=[36, 80]),
   midi.NoteOnEvent(tick=0, channel=9, data=[49, 127]),
   midi.NoteOnEvent(tick=0, channel=9, data=[36, 127]),
   midi.NoteOnEvent(tick=240, channel=9, data=[45, 127]),
   midi.NoteOffEvent(tick=240, channel=9, data=[45, 80]),
   midi.NoteOnEvent(tick=0, channel=9, data=[41, 127]),
   midi.NoteOffEvent(tick=240, channel=9, data=[49, 80]),
   midi.NoteOffEvent(tick=0, channel=9, data=[41, 80]),
   midi.NoteOnEvent(tick=0, channel=9, data=[49, 127]),
   midi.NoteOffEvent(tick=240, channel=9, data=[36, 80]),
   midi.NoteOnEvent(tick=0, channel=9, data=[48, 127]),
   midi.NoteOnEvent(tick=0, channel=9, data=[36, 127]),
   midi.NoteOffEvent(tick=240, channel=9, data=[48, 80]),
   midi.NoteOnEvent(tick=0, channel=9, data=[41, 127]),
   midi.NoteOffEvent(tick=240, channel=9, data=[49, 80]),
   midi.NoteOffEvent(tick=0, channel=9, data=[41, 80]),
   midi.NoteOnEvent(tick=0, channel=9, data=[49, 127]),
   midi.NoteOffEvent(tick=480, channel=9, data=[36, 80]),
   midi.NoteOnEvent(tick=0, channel=9, data=[36, 127]),
   midi.NoteOnEvent(tick=480, channel=9, data=[48, 127]),
   midi.NoteOffEvent(tick=120, channel=9, data=[48, 80]),
   midi.NoteOnEvent(tick=0, channel=9, data=[47, 127]),
   midi.NoteOffEvent(tick=120, channel=9, data=[47, 80]),
   midi.NoteOnEvent(tick=0, channel=9, data=[45, 127]),
   midi.NoteOffEvent(tick=120, channel=9, data=[45, 80]),
   midi.NoteOnEvent(tick=0, channel=9, data=[43, 127]),
   midi.NoteOffEvent(tick=120, channel=9, data=[49, 80]),
   midi.NoteOffEvent(tick=0, channel=9, data=[36, 80]),
   midi.NoteOffEvent(tick=0, channel=9, data=[43, 80]),
   midi.NoteOnEvent(tick=0, channel=9, data=[41, 127]),
   midi.NoteOffEvent(tick=120, channel=9, data=[41, 80]),
   midi.NoteOnEvent(tick=0, channel=9, data=[48, 127]),
   midi.NoteOffEvent(tick=120, channel=9, data=[48, 80]),
   midi.NoteOnEvent(tick=0, channel=9, data=[45, 127]),
   midi.NoteOffEvent(tick=120, channel=9, data=[45, 80]),
   midi.NoteOnEvent(tick=0, channel=9, data=[41, 127]),
   midi.NoteOffEvent(tick=120, channel=9, data=[41, 80]),
   midi.NoteOnEvent(tick=0, channel=9, data=[48, 127]),
   midi.NoteOffEvent(tick=120, channel=9, data=[48, 80]),
   midi.NoteOnEvent(tick=0, channel=9, data=[47, 127]),
   midi.NoteOffEvent(tick=120, channel=9, data=[47, 80]),
   midi.NoteOnEvent(tick=0, channel=9, data=[45, 127]),
   midi.NoteOffEvent(tick=120, channel=9, data=[45, 80]),
   midi.NoteOnEvent(tick=0, channel=9, data=[43, 127]),
   midi.NoteOffEvent(tick=120, channel=9, data=[43, 80]),
   midi.EndOfTrackEvent(tick=0, data=[])]),
 midi.Track(\
  [midi.TrackNameEvent(tick=0, text='Bass', data=[66, 97, 115, 115]),
   midi.ControlChangeEvent(tick=0, channel=0, data=[100, 0]),
   midi.ControlChangeEvent(tick=0, channel=0, data=[101, 0]),
   midi.ControlChangeEvent(tick=0, channel=0, data=[6, 12]),
   midi.PitchWheelEvent(tick=0, channel=0, data=[0, 64]),
   midi.ControlChangeEvent(tick=0, channel=0, data=[101, 0]),
   midi.ControlChangeEvent(tick=0, channel=0, data=[100, 1]),
   midi.ControlChangeEvent(tick=0, channel=0, data=[6, 64]),
   midi.ControlChangeEvent(tick=0, channel=0, data=[38, 0]),
   midi.ControlChangeEvent(tick=0, channel=0, data=[101, 127]),
   midi.ControlChangeEvent(tick=0, channel=0, data=[100, 127]),
   midi.ControlChangeEvent(tick=0, channel=0, data=[101, 0]),
   midi.ControlChangeEvent(tick=0, channel=0, data=[100, 2]),
   midi.ControlChangeEvent(tick=0, channel=0, data=[6, 64]),
   midi.ControlChangeEvent(tick=0, channel=0, data=[101, 127]),
   midi.ControlChangeEvent(tick=0, channel=0, data=[100, 127]),
   midi.ProgramChangeEvent(tick=0, channel=0, data=[33]),
   midi.ControlChangeEvent(tick=0, channel=0, data=[0, 0]),
   midi.ControlChangeEvent(tick=0, channel=0, data=[7, 127]),
   midi.ControlChangeEvent(tick=0, channel=0, data=[10, 64]),
   midi.ControlChangeEvent(tick=0, channel=0, data=[93, 0]),
   midi.ControlChangeEvent(tick=0, channel=0, data=[91, 0]),
   midi.ControlChangeEvent(tick=0, channel=0, data=[92, 0]),
   midi.ControlChangeEvent(tick=0, channel=0, data=[95, 0]),
   midi.NoteOnEvent(tick=960, channel=0, data=[24, 127]),
   midi.NoteOffEvent(tick=240, channel=0, data=[24, 80]),
   midi.NoteOnEvent(tick=0, channel=0, data=[24, 127]),
   midi.NoteOffEvent(tick=240, channel=0, data=[24, 80]),
   midi.NoteOnEvent(tick=0, channel=0, data=[36, 127]),
   midi.NoteOffEvent(tick=240, channel=0, data=[36, 80]),
   midi.NoteOnEvent(tick=0, channel=0, data=[24, 127]),
   midi.NoteOffEvent(tick=240, channel=0, data=[24, 80]),
   midi.NoteOnEvent(tick=0, channel=0, data=[34, 127]),
   midi.NoteOffEvent(tick=240, channel=0, data=[34, 80]),
   midi.NoteOnEvent(tick=0, channel=0, data=[24, 127]),
   midi.NoteOffEvent(tick=240, channel=0, data=[24, 80]),
   midi.NoteOnEvent(tick=0, channel=0, data=[36, 127]),
   midi.NoteOffEvent(tick=240, channel=0, data=[36, 80]),
   midi.NoteOnEvent(tick=0, channel=0, data=[24, 127]),
   midi.NoteOffEvent(tick=240, channel=0, data=[24, 80]),
   midi.NoteOnEvent(tick=0, channel=0, data=[32, 127]),
   midi.NoteOffEvent(tick=240, channel=0, data=[32, 80]),
   midi.NoteOnEvent(tick=0, channel=0, data=[27, 127]),
   midi.NoteOffEvent(tick=240, channel=0, data=[27, 80]),
   midi.NoteOnEvent(tick=0, channel=0, data=[32, 127]),
   midi.NoteOffEvent(tick=240, channel=0, data=[32, 80]),
   midi.NoteOnEvent(tick=0, channel=0, data=[27, 127]),
   midi.NoteOffEvent(tick=240, channel=0, data=[27, 80]),
   midi.NoteOnEvent(tick=0, channel=0, data=[32, 127]),
   midi.NoteOffEvent(tick=240, channel=0, data=[32, 80]),
   midi.NoteOnEvent(tick=0, channel=0, data=[44, 127]),
   midi.NoteOffEvent(tick=240, channel=0, data=[44, 80]),
   midi.NoteOnEvent(tick=0, channel=0, data=[43, 127]),
   midi.NoteOffEvent(tick=240, channel=0, data=[43, 80]),
   midi.NoteOnEvent(tick=0, channel=0, data=[44, 127]),
   midi.NoteOffEvent(tick=240, channel=0, data=[44, 80]),
   midi.NoteOnEvent(tick=0, channel=0, data=[29, 127]),
   midi.NoteOffEvent(tick=240, channel=0, data=[29, 80]),
   midi.NoteOnEvent(tick=0, channel=0, data=[29, 127]),
   midi.NoteOffEvent(tick=240, channel=0, data=[29, 80]),
   midi.NoteOnEvent(tick=0, channel=0, data=[41, 127]),
   midi.NoteOffEvent(tick=240, channel=0, data=[41, 80]),
   midi.NoteOnEvent(tick=0, channel=0, data=[29, 127]),
   midi.NoteOffEvent(tick=240, channel=0, data=[29, 80]),
   midi.NoteOnEvent(tick=0, channel=0, data=[27, 127]),
   midi.NoteOffEvent(tick=240, channel=0, data=[27, 80]),
   midi.NoteOnEvent(tick=0, channel=0, data=[27, 127]),
   midi.NoteOffEvent(tick=240, channel=0, data=[27, 80]),
   midi.NoteOnEvent(tick=0, channel=0, data=[39, 127]),
   midi.NoteOffEvent(tick=240, channel=0, data=[39, 80]),
   midi.NoteOnEvent(tick=0, channel=0, data=[27, 127]),
   midi.NoteOffEvent(tick=240, channel=0, data=[27, 80]),
   midi.NoteOnEvent(tick=0, channel=0, data=[25, 127]),
   midi.NoteOffEvent(tick=240, channel=0, data=[25, 80]),
   midi.NoteOnEvent(tick=0, channel=0, data=[25, 127]),
   midi.NoteOffEvent(tick=240, channel=0, data=[25, 80]),
   midi.NoteOnEvent(tick=0, channel=0, data=[37, 127]),
   midi.NoteOffEvent(tick=240, channel=0, data=[37, 80]),
   midi.NoteOnEvent(tick=0, channel=0, data=[25, 127]),
   midi.NoteOffEvent(tick=240, channel=0, data=[25, 80]),
   midi.NoteOnEvent(tick=0, channel=0, data=[36, 127]),
   midi.NoteOffEvent(tick=240, channel=0, data=[36, 80]),
   midi.NoteOnEvent(tick=0, channel=0, data=[25, 127]),
   midi.NoteOffEvent(tick=240, channel=0, data=[25, 80]),
   midi.NoteOnEvent(tick=0, channel=0, data=[37, 127]),
   midi.NoteOffEvent(tick=240, channel=0, data=[37, 80]),
   midi.NoteOnEvent(tick=0, channel=0, data=[25, 127]),
   midi.NoteOffEvent(tick=240, channel=0, data=[25, 80]),
   midi.NoteOnEvent(tick=0, channel=0, data=[24, 127]),
   midi.NoteOffEvent(tick=240, channel=0, data=[24, 80]),
   midi.NoteOnEvent(tick=0, channel=0, data=[24, 127]),
   midi.NoteOffEvent(tick=240, channel=0, data=[24, 80]),
   midi.NoteOnEvent(tick=0, channel=0, data=[24, 127]),
   midi.NoteOffEvent(tick=240, channel=0, data=[24, 80]),
   midi.NoteOnEvent(tick=0, channel=0, data=[24, 127]),
   midi.NoteOffEvent(tick=240, channel=0, data=[24, 80]),
   midi.NoteOnEvent(tick=0, channel=0, data=[36, 127]),
   midi.NoteOffEvent(tick=240, channel=0, data=[36, 80]),
   midi.NoteOnEvent(tick=0, channel=0, data=[24, 127]),
   midi.NoteOffEvent(tick=240, channel=0, data=[24, 80]),
   midi.NoteOnEvent(tick=0, channel=0, data=[24, 127]),
   midi.NoteOffEvent(tick=240, channel=0, data=[24, 80]),
   midi.NoteOnEvent(tick=0, channel=0, data=[24, 127]),
   midi.NoteOffEvent(tick=240, channel=0, data=[24, 80]),
   midi.NoteOnEvent(tick=0, channel=0, data=[25, 127]),
   midi.NoteOffEvent(tick=240, channel=0, data=[25, 80]),
   midi.NoteOnEvent(tick=0, channel=0, data=[25, 127]),
   midi.NoteOffEvent(tick=240, channel=0, data=[25, 80]),
   midi.NoteOnEvent(tick=0, channel=0, data=[25, 127]),
   midi.NoteOffEvent(tick=240, channel=0, data=[25, 80]),
   midi.NoteOnEvent(tick=0, channel=0, data=[25, 127]),
   midi.NoteOffEvent(tick=240, channel=0, data=[25, 80]),
   midi.NoteOnEvent(tick=0, channel=0, data=[37, 127]),
   midi.NoteOffEvent(tick=240, channel=0, data=[37, 80]),
   midi.NoteOnEvent(tick=0, channel=0, data=[25, 127]),
   midi.NoteOffEvent(tick=240, channel=0, data=[25, 80]),
   midi.NoteOnEvent(tick=0, channel=0, data=[25, 127]),
   midi.NoteOffEvent(tick=240, channel=0, data=[25, 80]),
   midi.NoteOnEvent(tick=0, channel=0, data=[25, 127]),
   midi.NoteOffEvent(tick=240, channel=0, data=[25, 80]),
   midi.NoteOnEvent(tick=0, channel=0, data=[26, 127]),
   midi.NoteOffEvent(tick=240, channel=0, data=[26, 80]),
   midi.NoteOnEvent(tick=0, channel=0, data=[26, 127]),
   midi.NoteOffEvent(tick=240, channel=0, data=[26, 80]),
   midi.NoteOnEvent(tick=0, channel=0, data=[26, 127]),
   midi.NoteOffEvent(tick=240, channel=0, data=[26, 80]),
   midi.NoteOnEvent(tick=0, channel=0, data=[26, 127]),
   midi.NoteOffEvent(tick=240, channel=0, data=[26, 80]),
   midi.NoteOnEvent(tick=0, channel=0, data=[38, 127]),
   midi.NoteOffEvent(tick=240, channel=0, data=[38, 80]),
   midi.NoteOnEvent(tick=0, channel=0, data=[36, 127]),
   midi.NoteOffEvent(tick=240, channel=0, data=[36, 80]),
   midi.NoteOnEvent(tick=0, channel=0, data=[38, 127]),
   midi.NoteOffEvent(tick=240, channel=0, data=[38, 80]),
   midi.NoteOnEvent(tick=0, channel=0, data=[26, 127]),
   midi.NoteOffEvent(tick=240, channel=0, data=[26, 80]),
   midi.NoteOnEvent(tick=0, channel=0, data=[27, 127]),
   midi.NoteOffEvent(tick=240, channel=0, data=[27, 80]),
   midi.NoteOnEvent(tick=0, channel=0, data=[27, 127]),
   midi.NoteOffEvent(tick=240, channel=0, data=[27, 80]),
   midi.NoteOnEvent(tick=0, channel=0, data=[39, 127]),
   midi.NoteOffEvent(tick=240, channel=0, data=[39, 80]),
   midi.NoteOnEvent(tick=0, channel=0, data=[27, 127]),
   midi.NoteOffEvent(tick=240, channel=0, data=[27, 80]),
   midi.NoteOnEvent(tick=0, channel=0, data=[29, 127]),
   midi.NoteOffEvent(tick=240, channel=0, data=[29, 80]),
   midi.NoteOnEvent(tick=0, channel=0, data=[36, 127]),
   midi.NoteOffEvent(tick=240, channel=0, data=[36, 80]),
   midi.NoteOnEvent(tick=0, channel=0, data=[40, 127]),
   midi.NoteOffEvent(tick=240, channel=0, data=[40, 80]),
   midi.NoteOnEvent(tick=0, channel=0, data=[43, 127]),
   midi.NoteOffEvent(tick=240, channel=0, data=[43, 80]),
   midi.NoteOnEvent(tick=0, channel=0, data=[29, 127]),
   midi.NoteOffEvent(tick=240, channel=0, data=[29, 80]),
   midi.NoteOnEvent(tick=0, channel=0, data=[29, 127]),
   midi.NoteOffEvent(tick=240, channel=0, data=[29, 80]),
   midi.NoteOnEvent(tick=0, channel=0, data=[41, 127]),
   midi.NoteOffEvent(tick=240, channel=0, data=[41, 80]),
   midi.NoteOnEvent(tick=0, channel=0, data=[29, 127]),
   midi.NoteOffEvent(tick=240, channel=0, data=[29, 80]),
   midi.NoteOnEvent(tick=0, channel=0, data=[25, 127]),
   midi.NoteOffEvent(tick=240, channel=0, data=[25, 80]),
   midi.NoteOnEvent(tick=0, channel=0, data=[25, 127]),
   midi.NoteOffEvent(tick=240, channel=0, data=[25, 80]),
   midi.NoteOnEvent(tick=0, channel=0, data=[25, 127]),
   midi.NoteOffEvent(tick=240, channel=0, data=[25, 80]),
   midi.NoteOnEvent(tick=0, channel=0, data=[25, 127]),
   midi.NoteOffEvent(tick=240, channel=0, data=[25, 80]),
   midi.NoteOnEvent(tick=0, channel=0, data=[27, 127]),
   midi.NoteOffEvent(tick=240, channel=0, data=[27, 80]),
   midi.NoteOnEvent(tick=0, channel=0, data=[27, 127]),
   midi.NoteOffEvent(tick=240, channel=0, data=[27, 80]),
   midi.NoteOnEvent(tick=0, channel=0, data=[39, 127]),
   midi.NoteOffEvent(tick=240, channel=0, data=[39, 80]),
   midi.NoteOnEvent(tick=0, channel=0, data=[27, 127]),
   midi.NoteOffEvent(tick=240, channel=0, data=[27, 80]),
   midi.NoteOnEvent(tick=0, channel=0, data=[24, 127]),
   midi.NoteOffEvent(tick=240, channel=0, data=[24, 80]),
   midi.NoteOnEvent(tick=0, channel=0, data=[24, 127]),
   midi.NoteOffEvent(tick=240, channel=0, data=[24, 80]),
   midi.NoteOnEvent(tick=0, channel=0, data=[36, 127]),
   midi.NoteOffEvent(tick=240, channel=0, data=[36, 80]),
   midi.NoteOnEvent(tick=0, channel=0, data=[24, 127]),
   midi.NoteOffEvent(tick=240, channel=0, data=[24, 80]),
   midi.NoteOnEvent(tick=480, channel=0, data=[34, 127]),
   midi.NoteOffEvent(tick=240, channel=0, data=[34, 80]),
   midi.NoteOnEvent(tick=240, channel=0, data=[24, 127]),
   midi.NoteOffEvent(tick=240, channel=0, data=[24, 80]),
   midi.NoteOnEvent(tick=0, channel=0, data=[24, 127]),
   midi.NoteOffEvent(tick=240, channel=0, data=[24, 80]),
   midi.NoteOnEvent(tick=0, channel=0, data=[36, 127]),
   midi.NoteOffEvent(tick=240, channel=0, data=[36, 80]),
   midi.NoteOnEvent(tick=0, channel=0, data=[24, 127]),
   midi.NoteOffEvent(tick=240, channel=0, data=[24, 80]),
   midi.NoteOnEvent(tick=0, channel=0, data=[25, 127]),
   midi.NoteOffEvent(tick=240, channel=0, data=[25, 80]),
   midi.NoteOnEvent(tick=0, channel=0, data=[37, 127]),
   midi.NoteOffEvent(tick=240, channel=0, data=[37, 80]),
   midi.NoteOnEvent(tick=0, channel=0, data=[25, 127]),
   midi.NoteOffEvent(tick=240, channel=0, data=[25, 80]),
   midi.NoteOnEvent(tick=0, channel=0, data=[36, 127]),
   midi.NoteOffEvent(tick=240, channel=0, data=[36, 80]),
   midi.NoteOnEvent(tick=0, channel=0, data=[25, 127]),
   midi.NoteOffEvent(tick=240, channel=0, data=[25, 80]),
   midi.NoteOnEvent(tick=0, channel=0, data=[34, 127]),
   midi.NoteOffEvent(tick=240, channel=0, data=[34, 80]),
   midi.NoteOnEvent(tick=0, channel=0, data=[25, 127]),
   midi.NoteOffEvent(tick=240, channel=0, data=[25, 80]),
   midi.NoteOnEvent(tick=0, channel=0, data=[32, 127]),
   midi.NoteOffEvent(tick=240, channel=0, data=[32, 80]),
   midi.NoteOnEvent(tick=0, channel=0, data=[29, 127]),
   midi.NoteOffEvent(tick=240, channel=0, data=[29, 80]),
   midi.NoteOnEvent(tick=0, channel=0, data=[29, 127]),
   midi.NoteOffEvent(tick=240, channel=0, data=[29, 80]),
   midi.NoteOnEvent(tick=0, channel=0, data=[41, 127]),
   midi.NoteOffEvent(tick=240, channel=0, data=[41, 80]),
   midi.NoteOnEvent(tick=0, channel=0, data=[29, 127]),
   midi.NoteOffEvent(tick=240, channel=0, data=[29, 80]),
   midi.NoteOnEvent(tick=0, channel=0, data=[25, 127]),
   midi.NoteOffEvent(tick=240, channel=0, data=[25, 80]),
   midi.NoteOnEvent(tick=0, channel=0, data=[25, 127]),
   midi.NoteOffEvent(tick=240, channel=0, data=[25, 80]),
   midi.NoteOnEvent(tick=0, channel=0, data=[25, 127]),
   midi.NoteOffEvent(tick=240, channel=0, data=[25, 80]),
   midi.NoteOnEvent(tick=0, channel=0, data=[25, 127]),
   midi.NoteOffEvent(tick=240, channel=0, data=[25, 80]),
   midi.NoteOnEvent(tick=0, channel=0, data=[27, 127]),
   midi.NoteOffEvent(tick=240, channel=0, data=[27, 80]),
   midi.NoteOnEvent(tick=0, channel=0, data=[27, 127]),
   midi.NoteOffEvent(tick=240, channel=0, data=[27, 80]),
   midi.NoteOnEvent(tick=0, channel=0, data=[39, 127]),
   midi.NoteOffEvent(tick=240, channel=0, data=[39, 80]),
   midi.NoteOnEvent(tick=0, channel=0, data=[27, 127]),
   midi.NoteOffEvent(tick=240, channel=0, data=[27, 80]),
   midi.NoteOnEvent(tick=0, channel=0, data=[24, 127]),
   midi.NoteOffEvent(tick=240, channel=0, data=[24, 80]),
   midi.NoteOnEvent(tick=0, channel=0, data=[24, 127]),
   midi.NoteOffEvent(tick=240, channel=0, data=[24, 80]),
   midi.NoteOnEvent(tick=0, channel=0, data=[36, 127]),
   midi.NoteOffEvent(tick=240, channel=0, data=[36, 80]),
   midi.NoteOnEvent(tick=0, channel=0, data=[24, 127]),
   midi.NoteOffEvent(tick=240, channel=0, data=[24, 80]),
   midi.NoteOnEvent(tick=480, channel=0, data=[34, 127]),
   midi.NoteOffEvent(tick=240, channel=0, data=[34, 80]),
   midi.NoteOnEvent(tick=240, channel=0, data=[24, 127]),
   midi.NoteOffEvent(tick=240, channel=0, data=[24, 80]),
   midi.NoteOnEvent(tick=0, channel=0, data=[24, 127]),
   midi.NoteOffEvent(tick=240, channel=0, data=[24, 80]),
   midi.NoteOnEvent(tick=0, channel=0, data=[36, 127]),
   midi.NoteOffEvent(tick=240, channel=0, data=[36, 80]),
   midi.NoteOnEvent(tick=0, channel=0, data=[24, 127]),
   midi.NoteOffEvent(tick=240, channel=0, data=[24, 80]),
   midi.NoteOnEvent(tick=0, channel=0, data=[29, 127]),
   midi.NoteOffEvent(tick=240, channel=0, data=[29, 80]),
   midi.NoteOnEvent(tick=0, channel=0, data=[41, 127]),
   midi.NoteOffEvent(tick=180, channel=0, data=[41, 80]),
   midi.NoteOnEvent(tick=60, channel=0, data=[29, 127]),
   midi.NoteOffEvent(tick=240, channel=0, data=[29, 80]),
   midi.NoteOnEvent(tick=0, channel=0, data=[41, 127]),
   midi.NoteOffEvent(tick=180, channel=0, data=[41, 80]),
   midi.NoteOnEvent(tick=60, channel=0, data=[29, 127]),
   midi.NoteOffEvent(tick=240, channel=0, data=[29, 80]),
   midi.NoteOnEvent(tick=0, channel=0, data=[41, 127]),
   midi.NoteOffEvent(tick=180, channel=0, data=[41, 80]),
   midi.NoteOnEvent(tick=60, channel=0, data=[29, 127]),
   midi.NoteOffEvent(tick=240, channel=0, data=[29, 80]),
   midi.NoteOnEvent(tick=0, channel=0, data=[41, 127]),
   midi.NoteOffEvent(tick=180, channel=0, data=[41, 80]),
   midi.NoteOnEvent(tick=60, channel=0, data=[25, 127]),
   midi.NoteOffEvent(tick=600, channel=0, data=[25, 80]),
   midi.NoteOnEvent(tick=120, channel=0, data=[27, 127]),
   midi.NoteOffEvent(tick=600, channel=0, data=[27, 80]),
   midi.NoteOnEvent(tick=120, channel=0, data=[24, 127]),
   midi.NoteOffEvent(tick=600, channel=0, data=[24, 80]),
   midi.NoteOnEvent(tick=120, channel=0, data=[29, 127]),
   midi.NoteOffEvent(tick=600, channel=0, data=[29, 80]),
   midi.NoteOnEvent(tick=120, channel=0, data=[32, 127]),
   midi.NoteOffEvent(tick=360, channel=0, data=[32, 80]),
   midi.NoteOnEvent(tick=120, channel=0, data=[31, 127]),
   midi.NoteOffEvent(tick=360, channel=0, data=[31, 80]),
   midi.NoteOnEvent(tick=120, channel=0, data=[25, 127]),
   midi.NoteOffEvent(tick=600, channel=0, data=[25, 80]),
   midi.NoteOnEvent(tick=120, channel=0, data=[27, 127]),
   midi.NoteOffEvent(tick=600, channel=0, data=[27, 80]),
   midi.NoteOnEvent(tick=120, channel=0, data=[29, 127]),
   midi.NoteOffEvent(tick=960, channel=0, data=[29, 80]),
   midi.NoteOnEvent(tick=0, channel=0, data=[29, 127]),
   midi.NoteOffEvent(tick=360, channel=0, data=[29, 80]),
   midi.NoteOnEvent(tick=120, channel=0, data=[31, 127]),
   midi.NoteOffEvent(tick=240, channel=0, data=[31, 80]),
   midi.NoteOnEvent(tick=0, channel=0, data=[32, 127]),
   midi.NoteOffEvent(tick=240, channel=0, data=[32, 80]),
   midi.NoteOnEvent(tick=0, channel=0, data=[31, 127]),
   midi.NoteOffEvent(tick=240, channel=0, data=[31, 80]),
   midi.NoteOnEvent(tick=0, channel=0, data=[24, 127]),
   midi.NoteOffEvent(tick=240, channel=0, data=[24, 80]),
   midi.NoteOnEvent(tick=0, channel=0, data=[25, 127]),
   midi.NoteOffEvent(tick=600, channel=0, data=[25, 80]),
   midi.NoteOnEvent(tick=120, channel=0, data=[27, 127]),
   midi.NoteOffEvent(tick=600, channel=0, data=[27, 80]),
   midi.NoteOnEvent(tick=120, channel=0, data=[24, 127]),
   midi.NoteOffEvent(tick=600, channel=0, data=[24, 80]),
   midi.NoteOnEvent(tick=120, channel=0, data=[29, 127]),
   midi.NoteOffEvent(tick=600, channel=0, data=[29, 80]),
   midi.NoteOnEvent(tick=120, channel=0, data=[32, 127]),
   midi.NoteOffEvent(tick=360, channel=0, data=[32, 80]),
   midi.NoteOnEvent(tick=120, channel=0, data=[31, 127]),
   midi.NoteOffEvent(tick=360, channel=0, data=[31, 80]),
   midi.NoteOnEvent(tick=120, channel=0, data=[25, 127]),
   midi.NoteOffEvent(tick=600, channel=0, data=[25, 80]),
   midi.NoteOnEvent(tick=120, channel=0, data=[27, 127]),
   midi.NoteOffEvent(tick=600, channel=0, data=[27, 80]),
   midi.NoteOnEvent(tick=120, channel=0, data=[29, 127]),
   midi.NoteOffEvent(tick=960, channel=0, data=[29, 80]),
   midi.NoteOnEvent(tick=0, channel=0, data=[29, 127]),
   midi.NoteOffEvent(tick=360, channel=0, data=[29, 80]),
   midi.NoteOnEvent(tick=120, channel=0, data=[31, 127]),
   midi.NoteOffEvent(tick=360, channel=0, data=[31, 80]),
   midi.NoteOnEvent(tick=120, channel=0, data=[29, 127]),
   midi.NoteOffEvent(tick=360, channel=0, data=[29, 80]),
   midi.NoteOnEvent(tick=120, channel=0, data=[24, 127]),
   midi.NoteOffEvent(tick=240, channel=0, data=[24, 80]),
   midi.NoteOnEvent(tick=0, channel=0, data=[24, 127]),
   midi.NoteOffEvent(tick=240, channel=0, data=[24, 80]),
   midi.NoteOnEvent(tick=0, channel=0, data=[36, 127]),
   midi.NoteOffEvent(tick=240, channel=0, data=[36, 80]),
   midi.NoteOnEvent(tick=0, channel=0, data=[24, 127]),
   midi.NoteOffEvent(tick=240, channel=0, data=[24, 80]),
   midi.NoteOnEvent(tick=0, channel=0, data=[34, 127]),
   midi.NoteOffEvent(tick=240, channel=0, data=[34, 80]),
   midi.NoteOnEvent(tick=0, channel=0, data=[24, 127]),
   midi.NoteOffEvent(tick=240, channel=0, data=[24, 80]),
   midi.NoteOnEvent(tick=0, channel=0, data=[36, 127]),
   midi.NoteOffEvent(tick=240, channel=0, data=[36, 80]),
   midi.NoteOnEvent(tick=0, channel=0, data=[24, 127]),
   midi.NoteOffEvent(tick=240, channel=0, data=[24, 80]),
   midi.NoteOnEvent(tick=0, channel=0, data=[32, 127]),
   midi.NoteOffEvent(tick=240, channel=0, data=[32, 80]),
   midi.NoteOnEvent(tick=0, channel=0, data=[27, 127]),
   midi.NoteOffEvent(tick=240, channel=0, data=[27, 80]),
   midi.NoteOnEvent(tick=0, channel=0, data=[32, 127]),
   midi.NoteOffEvent(tick=240, channel=0, data=[32, 80]),
   midi.NoteOnEvent(tick=0, channel=0, data=[27, 127]),
   midi.NoteOffEvent(tick=240, channel=0, data=[27, 80]),
   midi.NoteOnEvent(tick=0, channel=0, data=[32, 127]),
   midi.NoteOffEvent(tick=240, channel=0, data=[32, 80]),
   midi.NoteOnEvent(tick=0, channel=0, data=[44, 127]),
   midi.NoteOffEvent(tick=240, channel=0, data=[44, 80]),
   midi.NoteOnEvent(tick=0, channel=0, data=[43, 127]),
   midi.NoteOffEvent(tick=240, channel=0, data=[43, 80]),
   midi.NoteOnEvent(tick=0, channel=0, data=[44, 127]),
   midi.NoteOffEvent(tick=240, channel=0, data=[44, 80]),
   midi.NoteOnEvent(tick=0, channel=0, data=[29, 127]),
   midi.NoteOffEvent(tick=240, channel=0, data=[29, 80]),
   midi.NoteOnEvent(tick=0, channel=0, data=[29, 127]),
   midi.NoteOffEvent(tick=240, channel=0, data=[29, 80]),
   midi.NoteOnEvent(tick=0, channel=0, data=[41, 127]),
   midi.NoteOffEvent(tick=240, channel=0, data=[41, 80]),
   midi.NoteOnEvent(tick=0, channel=0, data=[29, 127]),
   midi.NoteOffEvent(tick=240, channel=0, data=[29, 80]),
   midi.NoteOnEvent(tick=0, channel=0, data=[27, 127]),
   midi.NoteOffEvent(tick=240, channel=0, data=[27, 80]),
   midi.NoteOnEvent(tick=0, channel=0, data=[27, 127]),
   midi.NoteOffEvent(tick=240, channel=0, data=[27, 80]),
   midi.NoteOnEvent(tick=0, channel=0, data=[39, 127]),
   midi.NoteOffEvent(tick=240, channel=0, data=[39, 80]),
   midi.NoteOnEvent(tick=0, channel=0, data=[27, 127]),
   midi.NoteOffEvent(tick=240, channel=0, data=[27, 80]),
   midi.NoteOnEvent(tick=0, channel=0, data=[25, 127]),
   midi.NoteOffEvent(tick=240, channel=0, data=[25, 80]),
   midi.NoteOnEvent(tick=0, channel=0, data=[25, 127]),
   midi.NoteOffEvent(tick=240, channel=0, data=[25, 80]),
   midi.NoteOnEvent(tick=0, channel=0, data=[37, 127]),
   midi.NoteOffEvent(tick=240, channel=0, data=[37, 80]),
   midi.NoteOnEvent(tick=0, channel=0, data=[25, 127]),
   midi.NoteOffEvent(tick=240, channel=0, data=[25, 80]),
   midi.NoteOnEvent(tick=0, channel=0, data=[36, 127]),
   midi.NoteOffEvent(tick=240, channel=0, data=[36, 80]),
   midi.NoteOnEvent(tick=0, channel=0, data=[25, 127]),
   midi.NoteOffEvent(tick=240, channel=0, data=[25, 80]),
   midi.NoteOnEvent(tick=0, channel=0, data=[37, 127]),
   midi.NoteOffEvent(tick=240, channel=0, data=[37, 80]),
   midi.NoteOnEvent(tick=0, channel=0, data=[25, 127]),
   midi.NoteOffEvent(tick=240, channel=0, data=[25, 80]),
   midi.NoteOnEvent(tick=0, channel=0, data=[24, 127]),
   midi.NoteOffEvent(tick=240, channel=0, data=[24, 80]),
   midi.NoteOnEvent(tick=0, channel=0, data=[24, 127]),
   midi.NoteOffEvent(tick=240, channel=0, data=[24, 80]),
   midi.NoteOnEvent(tick=0, channel=0, data=[24, 127]),
   midi.NoteOffEvent(tick=240, channel=0, data=[24, 80]),
   midi.NoteOnEvent(tick=0, channel=0, data=[24, 127]),
   midi.NoteOffEvent(tick=240, channel=0, data=[24, 80]),
   midi.NoteOnEvent(tick=0, channel=0, data=[36, 127]),
   midi.NoteOffEvent(tick=240, channel=0, data=[36, 80]),
   midi.NoteOnEvent(tick=0, channel=0, data=[24, 127]),
   midi.NoteOffEvent(tick=240, channel=0, data=[24, 80]),
   midi.NoteOnEvent(tick=0, channel=0, data=[24, 127]),
   midi.NoteOffEvent(tick=240, channel=0, data=[24, 80]),
   midi.NoteOnEvent(tick=0, channel=0, data=[24, 127]),
   midi.NoteOffEvent(tick=240, channel=0, data=[24, 80]),
   midi.NoteOnEvent(tick=0, channel=0, data=[25, 127]),
   midi.NoteOffEvent(tick=240, channel=0, data=[25, 80]),
   midi.NoteOnEvent(tick=0, channel=0, data=[25, 127]),
   midi.NoteOffEvent(tick=240, channel=0, data=[25, 80]),
   midi.NoteOnEvent(tick=0, channel=0, data=[25, 127]),
   midi.NoteOffEvent(tick=240, channel=0, data=[25, 80]),
   midi.NoteOnEvent(tick=0, channel=0, data=[25, 127]),
   midi.NoteOffEvent(tick=240, channel=0, data=[25, 80]),
   midi.NoteOnEvent(tick=0, channel=0, data=[37, 127]),
   midi.NoteOffEvent(tick=240, channel=0, data=[37, 80]),
   midi.NoteOnEvent(tick=0, channel=0, data=[25, 127]),
   midi.NoteOffEvent(tick=240, channel=0, data=[25, 80]),
   midi.NoteOnEvent(tick=0, channel=0, data=[25, 127]),
   midi.NoteOffEvent(tick=240, channel=0, data=[25, 80]),
   midi.NoteOnEvent(tick=0, channel=0, data=[25, 127]),
   midi.NoteOffEvent(tick=240, channel=0, data=[25, 80]),
   midi.NoteOnEvent(tick=0, channel=0, data=[26, 127]),
   midi.NoteOffEvent(tick=240, channel=0, data=[26, 80]),
   midi.NoteOnEvent(tick=0, channel=0, data=[26, 127]),
   midi.NoteOffEvent(tick=240, channel=0, data=[26, 80]),
   midi.NoteOnEvent(tick=0, channel=0, data=[26, 127]),
   midi.NoteOffEvent(tick=240, channel=0, data=[26, 80]),
   midi.NoteOnEvent(tick=0, channel=0, data=[26, 127]),
   midi.NoteOffEvent(tick=240, channel=0, data=[26, 80]),
   midi.NoteOnEvent(tick=0, channel=0, data=[38, 127]),
   midi.NoteOffEvent(tick=240, channel=0, data=[38, 80]),
   midi.NoteOnEvent(tick=0, channel=0, data=[36, 127]),
   midi.NoteOffEvent(tick=240, channel=0, data=[36, 80]),
   midi.NoteOnEvent(tick=0, channel=0, data=[38, 127]),
   midi.NoteOffEvent(tick=240, channel=0, data=[38, 80]),
   midi.NoteOnEvent(tick=0, channel=0, data=[26, 127]),
   midi.NoteOffEvent(tick=240, channel=0, data=[26, 80]),
   midi.NoteOnEvent(tick=0, channel=0, data=[27, 127]),
   midi.NoteOffEvent(tick=240, channel=0, data=[27, 80]),
   midi.NoteOnEvent(tick=0, channel=0, data=[27, 127]),
   midi.NoteOffEvent(tick=240, channel=0, data=[27, 80]),
   midi.NoteOnEvent(tick=0, channel=0, data=[39, 127]),
   midi.NoteOffEvent(tick=240, channel=0, data=[39, 80]),
   midi.NoteOnEvent(tick=0, channel=0, data=[27, 127]),
   midi.NoteOffEvent(tick=240, channel=0, data=[27, 80]),
   midi.NoteOnEvent(tick=0, channel=0, data=[29, 127]),
   midi.NoteOffEvent(tick=240, channel=0, data=[29, 80]),
   midi.NoteOnEvent(tick=0, channel=0, data=[36, 127]),
   midi.NoteOffEvent(tick=240, channel=0, data=[36, 80]),
   midi.NoteOnEvent(tick=0, channel=0, data=[40, 127]),
   midi.NoteOffEvent(tick=240, channel=0, data=[40, 80]),
   midi.NoteOnEvent(tick=0, channel=0, data=[43, 127]),
   midi.NoteOffEvent(tick=240, channel=0, data=[43, 80]),
   midi.NoteOnEvent(tick=0, channel=0, data=[29, 127]),
   midi.NoteOffEvent(tick=240, channel=0, data=[29, 80]),
   midi.NoteOnEvent(tick=0, channel=0, data=[29, 127]),
   midi.NoteOffEvent(tick=240, channel=0, data=[29, 80]),
   midi.NoteOnEvent(tick=0, channel=0, data=[41, 127]),
   midi.NoteOffEvent(tick=240, channel=0, data=[41, 80]),
   midi.NoteOnEvent(tick=0, channel=0, data=[29, 127]),
   midi.NoteOffEvent(tick=240, channel=0, data=[29, 80]),
   midi.NoteOnEvent(tick=0, channel=0, data=[25, 127]),
   midi.NoteOffEvent(tick=240, channel=0, data=[25, 80]),
   midi.NoteOnEvent(tick=0, channel=0, data=[25, 127]),
   midi.NoteOffEvent(tick=240, channel=0, data=[25, 80]),
   midi.NoteOnEvent(tick=0, channel=0, data=[25, 127]),
   midi.NoteOffEvent(tick=240, channel=0, data=[25, 80]),
   midi.NoteOnEvent(tick=0, channel=0, data=[25, 127]),
   midi.NoteOffEvent(tick=240, channel=0, data=[25, 80]),
   midi.NoteOnEvent(tick=0, channel=0, data=[27, 127]),
   midi.NoteOffEvent(tick=240, channel=0, data=[27, 80]),
   midi.NoteOnEvent(tick=0, channel=0, data=[27, 127]),
   midi.NoteOffEvent(tick=240, channel=0, data=[27, 80]),
   midi.NoteOnEvent(tick=0, channel=0, data=[39, 127]),
   midi.NoteOffEvent(tick=240, channel=0, data=[39, 80]),
   midi.NoteOnEvent(tick=0, channel=0, data=[27, 127]),
   midi.NoteOffEvent(tick=240, channel=0, data=[27, 80]),
   midi.NoteOnEvent(tick=0, channel=0, data=[24, 127]),
   midi.NoteOffEvent(tick=240, channel=0, data=[24, 80]),
   midi.NoteOnEvent(tick=0, channel=0, data=[24, 127]),
   midi.NoteOffEvent(tick=240, channel=0, data=[24, 80]),
   midi.NoteOnEvent(tick=0, channel=0, data=[36, 127]),
   midi.NoteOffEvent(tick=240, channel=0, data=[36, 80]),
   midi.NoteOnEvent(tick=0, channel=0, data=[24, 127]),
   midi.NoteOffEvent(tick=240, channel=0, data=[24, 80]),
   midi.NoteOnEvent(tick=480, channel=0, data=[34, 127]),
   midi.NoteOffEvent(tick=240, channel=0, data=[34, 80]),
   midi.NoteOnEvent(tick=240, channel=0, data=[24, 127]),
   midi.NoteOffEvent(tick=240, channel=0, data=[24, 80]),
   midi.NoteOnEvent(tick=0, channel=0, data=[24, 127]),
   midi.NoteOffEvent(tick=240, channel=0, data=[24, 80]),
   midi.NoteOnEvent(tick=0, channel=0, data=[36, 127]),
   midi.NoteOffEvent(tick=240, channel=0, data=[36, 80]),
   midi.NoteOnEvent(tick=0, channel=0, data=[24, 127]),
   midi.NoteOffEvent(tick=240, channel=0, data=[24, 80]),
   midi.NoteOnEvent(tick=0, channel=0, data=[25, 127]),
   midi.NoteOffEvent(tick=240, channel=0, data=[25, 80]),
   midi.NoteOnEvent(tick=0, channel=0, data=[37, 127]),
   midi.NoteOffEvent(tick=240, channel=0, data=[37, 80]),
   midi.NoteOnEvent(tick=0, channel=0, data=[25, 127]),
   midi.NoteOffEvent(tick=240, channel=0, data=[25, 80]),
   midi.NoteOnEvent(tick=0, channel=0, data=[36, 127]),
   midi.NoteOffEvent(tick=240, channel=0, data=[36, 80]),
   midi.NoteOnEvent(tick=0, channel=0, data=[25, 127]),
   midi.NoteOffEvent(tick=240, channel=0, data=[25, 80]),
   midi.NoteOnEvent(tick=0, channel=0, data=[34, 127]),
   midi.NoteOffEvent(tick=240, channel=0, data=[34, 80]),
   midi.NoteOnEvent(tick=0, channel=0, data=[25, 127]),
   midi.NoteOffEvent(tick=240, channel=0, data=[25, 80]),
   midi.NoteOnEvent(tick=0, channel=0, data=[32, 127]),
   midi.NoteOffEvent(tick=240, channel=0, data=[32, 80]),
   midi.NoteOnEvent(tick=0, channel=0, data=[29, 127]),
   midi.NoteOffEvent(tick=240, channel=0, data=[29, 80]),
   midi.NoteOnEvent(tick=0, channel=0, data=[29, 127]),
   midi.NoteOffEvent(tick=240, channel=0, data=[29, 80]),
   midi.NoteOnEvent(tick=0, channel=0, data=[41, 127]),
   midi.NoteOffEvent(tick=240, channel=0, data=[41, 80]),
   midi.NoteOnEvent(tick=0, channel=0, data=[29, 127]),
   midi.NoteOffEvent(tick=240, channel=0, data=[29, 80]),
   midi.NoteOnEvent(tick=0, channel=0, data=[25, 127]),
   midi.NoteOffEvent(tick=240, channel=0, data=[25, 80]),
   midi.NoteOnEvent(tick=0, channel=0, data=[25, 127]),
   midi.NoteOffEvent(tick=240, channel=0, data=[25, 80]),
   midi.NoteOnEvent(tick=0, channel=0, data=[25, 127]),
   midi.NoteOffEvent(tick=240, channel=0, data=[25, 80]),
   midi.NoteOnEvent(tick=0, channel=0, data=[25, 127]),
   midi.NoteOffEvent(tick=240, channel=0, data=[25, 80]),
   midi.NoteOnEvent(tick=0, channel=0, data=[27, 127]),
   midi.NoteOffEvent(tick=240, channel=0, data=[27, 80]),
   midi.NoteOnEvent(tick=0, channel=0, data=[27, 127]),
   midi.NoteOffEvent(tick=240, channel=0, data=[27, 80]),
   midi.NoteOnEvent(tick=0, channel=0, data=[39, 127]),
   midi.NoteOffEvent(tick=240, channel=0, data=[39, 80]),
   midi.NoteOnEvent(tick=0, channel=0, data=[27, 127]),
   midi.NoteOffEvent(tick=240, channel=0, data=[27, 80]),
   midi.NoteOnEvent(tick=0, channel=0, data=[24, 127]),
   midi.NoteOffEvent(tick=240, channel=0, data=[24, 80]),
   midi.NoteOnEvent(tick=0, channel=0, data=[24, 127]),
   midi.NoteOffEvent(tick=240, channel=0, data=[24, 80]),
   midi.NoteOnEvent(tick=0, channel=0, data=[36, 127]),
   midi.NoteOffEvent(tick=240, channel=0, data=[36, 80]),
   midi.NoteOnEvent(tick=0, channel=0, data=[24, 127]),
   midi.NoteOffEvent(tick=240, channel=0, data=[24, 80]),
   midi.NoteOnEvent(tick=480, channel=0, data=[34, 127]),
   midi.NoteOffEvent(tick=240, channel=0, data=[34, 80]),
   midi.NoteOnEvent(tick=240, channel=0, data=[24, 127]),
   midi.NoteOffEvent(tick=240, channel=0, data=[24, 80]),
   midi.NoteOnEvent(tick=0, channel=0, data=[24, 127]),
   midi.NoteOffEvent(tick=240, channel=0, data=[24, 80]),
   midi.NoteOnEvent(tick=0, channel=0, data=[36, 127]),
   midi.NoteOffEvent(tick=240, channel=0, data=[36, 80]),
   midi.NoteOnEvent(tick=0, channel=0, data=[24, 127]),
   midi.NoteOffEvent(tick=240, channel=0, data=[24, 80]),
   midi.NoteOnEvent(tick=0, channel=0, data=[29, 127]),
   midi.NoteOffEvent(tick=240, channel=0, data=[29, 80]),
   midi.NoteOnEvent(tick=0, channel=0, data=[41, 127]),
   midi.NoteOffEvent(tick=180, channel=0, data=[41, 80]),
   midi.NoteOnEvent(tick=60, channel=0, data=[29, 127]),
   midi.NoteOffEvent(tick=240, channel=0, data=[29, 80]),
   midi.NoteOnEvent(tick=0, channel=0, data=[41, 127]),
   midi.NoteOffEvent(tick=180, channel=0, data=[41, 80]),
   midi.NoteOnEvent(tick=60, channel=0, data=[29, 127]),
   midi.NoteOffEvent(tick=240, channel=0, data=[29, 80]),
   midi.NoteOnEvent(tick=0, channel=0, data=[41, 127]),
   midi.NoteOffEvent(tick=180, channel=0, data=[41, 80]),
   midi.NoteOnEvent(tick=60, channel=0, data=[29, 127]),
   midi.NoteOffEvent(tick=240, channel=0, data=[29, 80]),
   midi.NoteOnEvent(tick=0, channel=0, data=[41, 127]),
   midi.NoteOffEvent(tick=180, channel=0, data=[41, 80]),
   midi.NoteOnEvent(tick=60, channel=0, data=[25, 127]),
   midi.NoteOffEvent(tick=600, channel=0, data=[25, 80]),
   midi.NoteOnEvent(tick=120, channel=0, data=[27, 127]),
   midi.NoteOffEvent(tick=600, channel=0, data=[27, 80]),
   midi.NoteOnEvent(tick=120, channel=0, data=[24, 127]),
   midi.NoteOffEvent(tick=600, channel=0, data=[24, 80]),
   midi.NoteOnEvent(tick=120, channel=0, data=[29, 127]),
   midi.NoteOffEvent(tick=600, channel=0, data=[29, 80]),
   midi.NoteOnEvent(tick=120, channel=0, data=[32, 127]),
   midi.NoteOffEvent(tick=360, channel=0, data=[32, 80]),
   midi.NoteOnEvent(tick=120, channel=0, data=[31, 127]),
   midi.NoteOffEvent(tick=360, channel=0, data=[31, 80]),
   midi.NoteOnEvent(tick=120, channel=0, data=[25, 127]),
   midi.NoteOffEvent(tick=600, channel=0, data=[25, 80]),
   midi.NoteOnEvent(tick=120, channel=0, data=[27, 127]),
   midi.NoteOffEvent(tick=600, channel=0, data=[27, 80]),
   midi.NoteOnEvent(tick=120, channel=0, data=[29, 127]),
   midi.NoteOffEvent(tick=960, channel=0, data=[29, 80]),
   midi.NoteOnEvent(tick=0, channel=0, data=[29, 127]),
   midi.NoteOffEvent(tick=360, channel=0, data=[29, 80]),
   midi.NoteOnEvent(tick=120, channel=0, data=[31, 127]),
   midi.NoteOffEvent(tick=240, channel=0, data=[31, 80]),
   midi.NoteOnEvent(tick=0, channel=0, data=[32, 127]),
   midi.NoteOffEvent(tick=240, channel=0, data=[32, 80]),
   midi.NoteOnEvent(tick=0, channel=0, data=[31, 127]),
   midi.NoteOffEvent(tick=240, channel=0, data=[31, 80]),
   midi.NoteOnEvent(tick=0, channel=0, data=[24, 127]),
   midi.NoteOffEvent(tick=240, channel=0, data=[24, 80]),
   midi.NoteOnEvent(tick=0, channel=0, data=[25, 127]),
   midi.NoteOffEvent(tick=600, channel=0, data=[25, 80]),
   midi.NoteOnEvent(tick=120, channel=0, data=[27, 127]),
   midi.NoteOffEvent(tick=600, channel=0, data=[27, 80]),
   midi.NoteOnEvent(tick=120, channel=0, data=[24, 127]),
   midi.NoteOffEvent(tick=600, channel=0, data=[24, 80]),
   midi.NoteOnEvent(tick=120, channel=0, data=[29, 127]),
   midi.NoteOffEvent(tick=600, channel=0, data=[29, 80]),
   midi.NoteOnEvent(tick=120, channel=0, data=[32, 127]),
   midi.NoteOffEvent(tick=360, channel=0, data=[32, 80]),
   midi.NoteOnEvent(tick=120, channel=0, data=[31, 127]),
   midi.NoteOffEvent(tick=360, channel=0, data=[31, 80]),
   midi.NoteOnEvent(tick=120, channel=0, data=[25, 127]),
   midi.NoteOffEvent(tick=600, channel=0, data=[25, 80]),
   midi.NoteOnEvent(tick=120, channel=0, data=[27, 127]),
   midi.NoteOffEvent(tick=600, channel=0, data=[27, 80]),
   midi.NoteOnEvent(tick=120, channel=0, data=[29, 127]),
   midi.NoteOffEvent(tick=960, channel=0, data=[29, 80]),
   midi.NoteOnEvent(tick=0, channel=0, data=[29, 127]),
   midi.NoteOffEvent(tick=360, channel=0, data=[29, 80]),
   midi.NoteOnEvent(tick=120, channel=0, data=[31, 127]),
   midi.NoteOffEvent(tick=360, channel=0, data=[31, 80]),
   midi.NoteOnEvent(tick=120, channel=0, data=[29, 127]),
   midi.NoteOffEvent(tick=360, channel=0, data=[29, 80]),
   midi.EndOfTrackEvent(tick=0, data=[])]),
 midi.Track(\
  [midi.TrackNameEvent(tick=0, text='Oboe', data=[79, 98, 111, 101]),
   midi.ControlChangeEvent(tick=0, channel=1, data=[100, 0]),
   midi.ControlChangeEvent(tick=0, channel=1, data=[101, 0]),
   midi.ControlChangeEvent(tick=0, channel=1, data=[6, 12]),
   midi.PitchWheelEvent(tick=0, channel=1, data=[0, 64]),
   midi.ControlChangeEvent(tick=0, channel=1, data=[101, 0]),
   midi.ControlChangeEvent(tick=0, channel=1, data=[100, 1]),
   midi.ControlChangeEvent(tick=0, channel=1, data=[6, 64]),
   midi.ControlChangeEvent(tick=0, channel=1, data=[38, 0]),
   midi.ControlChangeEvent(tick=0, channel=1, data=[101, 127]),
   midi.ControlChangeEvent(tick=0, channel=1, data=[100, 127]),
   midi.ControlChangeEvent(tick=0, channel=1, data=[101, 0]),
   midi.ControlChangeEvent(tick=0, channel=1, data=[100, 2]),
   midi.ControlChangeEvent(tick=0, channel=1, data=[6, 64]),
   midi.ControlChangeEvent(tick=0, channel=1, data=[101, 127]),
   midi.ControlChangeEvent(tick=0, channel=1, data=[100, 127]),
   midi.ProgramChangeEvent(tick=0, channel=1, data=[68]),
   midi.ControlChangeEvent(tick=0, channel=1, data=[0, 0]),
   midi.ControlChangeEvent(tick=0, channel=1, data=[7, 112]),
   midi.ControlChangeEvent(tick=0, channel=1, data=[10, 64]),
   midi.ControlChangeEvent(tick=0, channel=1, data=[93, 0]),
   midi.ControlChangeEvent(tick=0, channel=1, data=[91, 0]),
   midi.ControlChangeEvent(tick=0, channel=1, data=[92, 0]),
   midi.ControlChangeEvent(tick=0, channel=1, data=[95, 0]),
   midi.NoteOnEvent(tick=960, channel=1, data=[72, 127]),
   midi.NoteOnEvent(tick=0, channel=1, data=[63, 127]),
   midi.NoteOffEvent(tick=240, channel=1, data=[72, 80]),
   midi.NoteOffEvent(tick=0, channel=1, data=[63, 80]),
   midi.NoteOnEvent(tick=0, channel=1, data=[74, 127]),
   midi.NoteOnEvent(tick=0, channel=1, data=[65, 127]),
   midi.NoteOffEvent(tick=240, channel=1, data=[74, 80]),
   midi.NoteOffEvent(tick=0, channel=1, data=[65, 80]),
   midi.NoteOnEvent(tick=0, channel=1, data=[75, 127]),
   midi.NoteOnEvent(tick=0, channel=1, data=[67, 127]),
   midi.NoteOffEvent(tick=720, channel=1, data=[75, 80]),
   midi.NoteOffEvent(tick=0, channel=1, data=[67, 80]),
   midi.NoteOnEvent(tick=0, channel=1, data=[77, 127]),
   midi.NoteOnEvent(tick=0, channel=1, data=[68, 127]),
   midi.NoteOffEvent(tick=240, channel=1, data=[77, 80]),
   midi.NoteOffEvent(tick=0, channel=1, data=[68, 80]),
   midi.NoteOnEvent(tick=0, channel=1, data=[75, 127]),
   midi.NoteOnEvent(tick=0, channel=1, data=[67, 127]),
   midi.NoteOffEvent(tick=240, channel=1, data=[75, 80]),
   midi.NoteOffEvent(tick=0, channel=1, data=[67, 80]),
   midi.NoteOnEvent(tick=0, channel=1, data=[74, 127]),
   midi.NoteOnEvent(tick=0, channel=1, data=[65, 127]),
   midi.NoteOffEvent(tick=240, channel=1, data=[74, 80]),
   midi.NoteOffEvent(tick=0, channel=1, data=[65, 80]),
   midi.NoteOnEvent(tick=0, channel=1, data=[72, 127]),
   midi.NoteOnEvent(tick=0, channel=1, data=[63, 127]),
   midi.NoteOffEvent(tick=240, channel=1, data=[72, 80]),
   midi.NoteOffEvent(tick=0, channel=1, data=[63, 80]),
   midi.NoteOnEvent(tick=0, channel=1, data=[70, 127]),
   midi.NoteOnEvent(tick=0, channel=1, data=[62, 127]),
   midi.NoteOffEvent(tick=240, channel=1, data=[70, 80]),
   midi.NoteOffEvent(tick=0, channel=1, data=[62, 80]),
   midi.NoteOnEvent(tick=0, channel=1, data=[72, 127]),
   midi.NoteOnEvent(tick=0, channel=1, data=[63, 127]),
   midi.NoteOffEvent(tick=240, channel=1, data=[72, 80]),
   midi.NoteOffEvent(tick=0, channel=1, data=[63, 80]),
   midi.NoteOnEvent(tick=0, channel=1, data=[60, 127]),
   midi.NoteOnEvent(tick=0, channel=1, data=[68, 127]),
   midi.NoteOffEvent(tick=1200, channel=1, data=[60, 80]),
   midi.NoteOffEvent(tick=0, channel=1, data=[68, 80]),
   midi.NoteOnEvent(tick=0, channel=1, data=[77, 127]),
   midi.NoteOnEvent(tick=0, channel=1, data=[68, 127]),
   midi.NoteOffEvent(tick=960, channel=1, data=[77, 80]),
   midi.NoteOffEvent(tick=0, channel=1, data=[68, 80]),
   midi.NoteOnEvent(tick=0, channel=1, data=[79, 127]),
   midi.NoteOnEvent(tick=0, channel=1, data=[70, 127]),
   midi.NoteOffEvent(tick=360, channel=1, data=[79, 80]),
   midi.NoteOffEvent(tick=0, channel=1, data=[70, 80]),
   midi.NoteOnEvent(tick=0, channel=1, data=[77, 127]),
   midi.NoteOnEvent(tick=0, channel=1, data=[68, 127]),
   midi.NoteOffEvent(tick=360, channel=1, data=[77, 80]),
   midi.NoteOffEvent(tick=0, channel=1, data=[68, 80]),
   midi.NoteOnEvent(tick=0, channel=1, data=[75, 127]),
   midi.NoteOnEvent(tick=0, channel=1, data=[67, 127]),
   midi.NoteOffEvent(tick=240, channel=1, data=[75, 80]),
   midi.NoteOffEvent(tick=0, channel=1, data=[67, 80]),
   midi.NoteOnEvent(tick=0, channel=1, data=[73, 127]),
   midi.NoteOnEvent(tick=0, channel=1, data=[65, 127]),
   midi.NoteOffEvent(tick=1920, channel=1, data=[73, 80]),
   midi.NoteOffEvent(tick=0, channel=1, data=[65, 80]),
   midi.NoteOnEvent(tick=240, channel=1, data=[68, 127]),
   midi.NoteOffEvent(tick=120, channel=1, data=[68, 80]),
   midi.NoteOnEvent(tick=0, channel=1, data=[68, 63]),
   midi.NoteOnEvent(tick=120, channel=1, data=[75, 127]),
   midi.NoteOffEvent(tick=120, channel=1, data=[68, 80]),
   midi.NoteOffEvent(tick=0, channel=1, data=[75, 80]),
   midi.NoteOnEvent(tick=0, channel=1, data=[75, 63]),
   midi.NoteOnEvent(tick=120, channel=1, data=[68, 127]),
   midi.NoteOffEvent(tick=120, channel=1, data=[75, 80]),
   midi.NoteOffEvent(tick=0, channel=1, data=[68, 80]),
   midi.NoteOnEvent(tick=0, channel=1, data=[68, 63]),
   midi.NoteOnEvent(tick=120, channel=1, data=[80, 127]),
   midi.NoteOffEvent(tick=120, channel=1, data=[68, 80]),
   midi.NoteOffEvent(tick=0, channel=1, data=[80, 80]),
   midi.NoteOnEvent(tick=0, channel=1, data=[80, 63]),
   midi.NoteOnEvent(tick=120, channel=1, data=[68, 127]),
   midi.NoteOffEvent(tick=120, channel=1, data=[80, 80]),
   midi.NoteOffEvent(tick=0, channel=1, data=[68, 80]),
   midi.NoteOnEvent(tick=0, channel=1, data=[68, 63]),
   midi.NoteOnEvent(tick=120, channel=1, data=[75, 127]),
   midi.NoteOffEvent(tick=120, channel=1, data=[68, 80]),
   midi.NoteOffEvent(tick=0, channel=1, data=[75, 80]),
   midi.NoteOnEvent(tick=0, channel=1, data=[75, 63]),
   midi.NoteOnEvent(tick=120, channel=1, data=[68, 127]),
   midi.NoteOffEvent(tick=120, channel=1, data=[75, 80]),
   midi.NoteOffEvent(tick=0, channel=1, data=[68, 80]),
   midi.NoteOnEvent(tick=0, channel=1, data=[68, 63]),
   midi.NoteOnEvent(tick=120, channel=1, data=[77, 95]),
   midi.NoteOffEvent(tick=120, channel=1, data=[68, 80]),
   midi.NoteOffEvent(tick=0, channel=1, data=[77, 80]),
   midi.NoteOnEvent(tick=0, channel=1, data=[77, 63]),
   midi.NoteOnEvent(tick=120, channel=1, data=[70, 127]),
   midi.NoteOffEvent(tick=120, channel=1, data=[77, 80]),
   midi.NoteOffEvent(tick=0, channel=1, data=[70, 80]),
   midi.NoteOnEvent(tick=0, channel=1, data=[70, 63]),
   midi.NoteOnEvent(tick=120, channel=1, data=[77, 127]),
   midi.NoteOffEvent(tick=120, channel=1, data=[70, 80]),
   midi.NoteOffEvent(tick=0, channel=1, data=[77, 80]),
   midi.NoteOnEvent(tick=0, channel=1, data=[77, 63]),
   midi.NoteOnEvent(tick=120, channel=1, data=[70, 127]),
   midi.NoteOffEvent(tick=120, channel=1, data=[77, 80]),
   midi.NoteOffEvent(tick=0, channel=1, data=[70, 80]),
   midi.NoteOnEvent(tick=0, channel=1, data=[70, 63]),
   midi.NoteOnEvent(tick=120, channel=1, data=[82, 127]),
   midi.NoteOffEvent(tick=120, channel=1, data=[70, 80]),
   midi.NoteOffEvent(tick=0, channel=1, data=[82, 80]),
   midi.NoteOnEvent(tick=0, channel=1, data=[82, 63]),
   midi.NoteOnEvent(tick=120, channel=1, data=[70, 127]),
   midi.NoteOffEvent(tick=120, channel=1, data=[82, 80]),
   midi.NoteOffEvent(tick=0, channel=1, data=[70, 80]),
   midi.NoteOnEvent(tick=0, channel=1, data=[70, 63]),
   midi.NoteOnEvent(tick=120, channel=1, data=[77, 127]),
   midi.NoteOffEvent(tick=120, channel=1, data=[70, 80]),
   midi.NoteOffEvent(tick=0, channel=1, data=[77, 80]),
   midi.NoteOnEvent(tick=0, channel=1, data=[77, 63]),
   midi.NoteOnEvent(tick=120, channel=1, data=[70, 127]),
   midi.NoteOffEvent(tick=120, channel=1, data=[77, 80]),
   midi.NoteOffEvent(tick=0, channel=1, data=[70, 80]),
   midi.NoteOnEvent(tick=0, channel=1, data=[70, 63]),
   midi.NoteOnEvent(tick=120, channel=1, data=[77, 95]),
   midi.NoteOffEvent(tick=120, channel=1, data=[70, 80]),
   midi.NoteOffEvent(tick=0, channel=1, data=[77, 80]),
   midi.NoteOnEvent(tick=0, channel=1, data=[77, 63]),
   midi.NoteOnEvent(tick=120, channel=1, data=[70, 127]),
   midi.NoteOffEvent(tick=120, channel=1, data=[77, 80]),
   midi.NoteOffEvent(tick=0, channel=1, data=[70, 80]),
   midi.NoteOnEvent(tick=0, channel=1, data=[70, 63]),
   midi.NoteOnEvent(tick=120, channel=1, data=[77, 127]),
   midi.NoteOffEvent(tick=120, channel=1, data=[70, 80]),
   midi.NoteOffEvent(tick=0, channel=1, data=[77, 80]),
   midi.NoteOnEvent(tick=0, channel=1, data=[77, 63]),
   midi.NoteOnEvent(tick=120, channel=1, data=[70, 127]),
   midi.NoteOffEvent(tick=120, channel=1, data=[77, 80]),
   midi.NoteOffEvent(tick=0, channel=1, data=[70, 80]),
   midi.NoteOnEvent(tick=0, channel=1, data=[70, 63]),
   midi.NoteOnEvent(tick=120, channel=1, data=[82, 127]),
   midi.NoteOffEvent(tick=120, channel=1, data=[70, 80]),
   midi.NoteOffEvent(tick=0, channel=1, data=[82, 80]),
   midi.NoteOnEvent(tick=0, channel=1, data=[82, 63]),
   midi.NoteOnEvent(tick=120, channel=1, data=[70, 127]),
   midi.NoteOffEvent(tick=120, channel=1, data=[82, 80]),
   midi.NoteOffEvent(tick=0, channel=1, data=[70, 80]),
   midi.NoteOnEvent(tick=0, channel=1, data=[70, 63]),
   midi.NoteOnEvent(tick=120, channel=1, data=[77, 127]),
   midi.NoteOffEvent(tick=120, channel=1, data=[70, 80]),
   midi.NoteOffEvent(tick=0, channel=1, data=[77, 80]),
   midi.NoteOnEvent(tick=0, channel=1, data=[77, 63]),
   midi.NoteOnEvent(tick=120, channel=1, data=[70, 127]),
   midi.NoteOffEvent(tick=120, channel=1, data=[77, 80]),
   midi.NoteOffEvent(tick=0, channel=1, data=[70, 80]),
   midi.NoteOnEvent(tick=0, channel=1, data=[70, 63]),
   midi.NoteOnEvent(tick=120, channel=1, data=[79, 95]),
   midi.NoteOffEvent(tick=120, channel=1, data=[70, 80]),
   midi.NoteOffEvent(tick=0, channel=1, data=[79, 80]),
   midi.NoteOnEvent(tick=0, channel=1, data=[79, 63]),
   midi.NoteOnEvent(tick=120, channel=1, data=[72, 127]),
   midi.NoteOffEvent(tick=120, channel=1, data=[79, 80]),
   midi.NoteOffEvent(tick=0, channel=1, data=[72, 80]),
   midi.NoteOnEvent(tick=0, channel=1, data=[72, 63]),
   midi.NoteOnEvent(tick=120, channel=1, data=[79, 127]),
   midi.NoteOffEvent(tick=120, channel=1, data=[72, 80]),
   midi.NoteOffEvent(tick=0, channel=1, data=[79, 80]),
   midi.NoteOnEvent(tick=0, channel=1, data=[79, 63]),
   midi.NoteOnEvent(tick=120, channel=1, data=[72, 127]),
   midi.NoteOffEvent(tick=120, channel=1, data=[79, 80]),
   midi.NoteOffEvent(tick=0, channel=1, data=[72, 80]),
   midi.NoteOnEvent(tick=0, channel=1, data=[72, 63]),
   midi.NoteOnEvent(tick=120, channel=1, data=[84, 127]),
   midi.NoteOffEvent(tick=120, channel=1, data=[72, 80]),
   midi.NoteOffEvent(tick=0, channel=1, data=[84, 80]),
   midi.NoteOnEvent(tick=0, channel=1, data=[84, 63]),
   midi.NoteOnEvent(tick=120, channel=1, data=[72, 127]),
   midi.NoteOffEvent(tick=120, channel=1, data=[84, 80]),
   midi.NoteOffEvent(tick=0, channel=1, data=[72, 80]),
   midi.NoteOnEvent(tick=0, channel=1, data=[72, 63]),
   midi.NoteOnEvent(tick=120, channel=1, data=[79, 127]),
   midi.NoteOffEvent(tick=120, channel=1, data=[72, 80]),
   midi.NoteOffEvent(tick=0, channel=1, data=[79, 80]),
   midi.NoteOnEvent(tick=0, channel=1, data=[79, 63]),
   midi.NoteOnEvent(tick=120, channel=1, data=[72, 127]),
   midi.NoteOffEvent(tick=120, channel=1, data=[79, 80]),
   midi.NoteOffEvent(tick=0, channel=1, data=[72, 80]),
   midi.NoteOnEvent(tick=0, channel=1, data=[72, 63]),
   midi.NoteOffEvent(tick=240, channel=1, data=[72, 80]),
   midi.NoteOnEvent(tick=30600, channel=1, data=[72, 127]),
   midi.NoteOnEvent(tick=0, channel=1, data=[63, 127]),
   midi.NoteOffEvent(tick=240, channel=1, data=[72, 80]),
   midi.NoteOffEvent(tick=0, channel=1, data=[63, 80]),
   midi.NoteOnEvent(tick=0, channel=1, data=[74, 127]),
   midi.NoteOnEvent(tick=0, channel=1, data=[65, 127]),
   midi.NoteOffEvent(tick=240, channel=1, data=[74, 80]),
   midi.NoteOffEvent(tick=0, channel=1, data=[65, 80]),
   midi.NoteOnEvent(tick=0, channel=1, data=[75, 127]),
   midi.NoteOnEvent(tick=0, channel=1, data=[67, 127]),
   midi.NoteOffEvent(tick=720, channel=1, data=[75, 80]),
   midi.NoteOffEvent(tick=0, channel=1, data=[67, 80]),
   midi.NoteOnEvent(tick=0, channel=1, data=[77, 127]),
   midi.NoteOnEvent(tick=0, channel=1, data=[68, 127]),
   midi.NoteOffEvent(tick=240, channel=1, data=[77, 80]),
   midi.NoteOffEvent(tick=0, channel=1, data=[68, 80]),
   midi.NoteOnEvent(tick=0, channel=1, data=[75, 127]),
   midi.NoteOnEvent(tick=0, channel=1, data=[67, 127]),
   midi.NoteOffEvent(tick=240, channel=1, data=[75, 80]),
   midi.NoteOffEvent(tick=0, channel=1, data=[67, 80]),
   midi.NoteOnEvent(tick=0, channel=1, data=[74, 127]),
   midi.NoteOnEvent(tick=0, channel=1, data=[65, 127]),
   midi.NoteOffEvent(tick=240, channel=1, data=[74, 80]),
   midi.NoteOffEvent(tick=0, channel=1, data=[65, 80]),
   midi.NoteOnEvent(tick=0, channel=1, data=[72, 127]),
   midi.NoteOnEvent(tick=0, channel=1, data=[63, 127]),
   midi.NoteOffEvent(tick=240, channel=1, data=[72, 80]),
   midi.NoteOffEvent(tick=0, channel=1, data=[63, 80]),
   midi.NoteOnEvent(tick=0, channel=1, data=[70, 127]),
   midi.NoteOnEvent(tick=0, channel=1, data=[62, 127]),
   midi.NoteOffEvent(tick=240, channel=1, data=[70, 80]),
   midi.NoteOffEvent(tick=0, channel=1, data=[62, 80]),
   midi.NoteOnEvent(tick=0, channel=1, data=[72, 127]),
   midi.NoteOnEvent(tick=0, channel=1, data=[63, 127]),
   midi.NoteOffEvent(tick=240, channel=1, data=[72, 80]),
   midi.NoteOffEvent(tick=0, channel=1, data=[63, 80]),
   midi.NoteOnEvent(tick=0, channel=1, data=[60, 127]),
   midi.NoteOnEvent(tick=0, channel=1, data=[68, 127]),
   midi.NoteOffEvent(tick=1200, channel=1, data=[60, 80]),
   midi.NoteOffEvent(tick=0, channel=1, data=[68, 80]),
   midi.NoteOnEvent(tick=0, channel=1, data=[77, 127]),
   midi.NoteOnEvent(tick=0, channel=1, data=[68, 127]),
   midi.NoteOffEvent(tick=960, channel=1, data=[77, 80]),
   midi.NoteOffEvent(tick=0, channel=1, data=[68, 80]),
   midi.NoteOnEvent(tick=0, channel=1, data=[79, 127]),
   midi.NoteOnEvent(tick=0, channel=1, data=[70, 127]),
   midi.NoteOffEvent(tick=360, channel=1, data=[79, 80]),
   midi.NoteOffEvent(tick=0, channel=1, data=[70, 80]),
   midi.NoteOnEvent(tick=0, channel=1, data=[77, 127]),
   midi.NoteOnEvent(tick=0, channel=1, data=[68, 127]),
   midi.NoteOffEvent(tick=360, channel=1, data=[77, 80]),
   midi.NoteOffEvent(tick=0, channel=1, data=[68, 80]),
   midi.NoteOnEvent(tick=0, channel=1, data=[75, 127]),
   midi.NoteOnEvent(tick=0, channel=1, data=[67, 127]),
   midi.NoteOffEvent(tick=240, channel=1, data=[75, 80]),
   midi.NoteOffEvent(tick=0, channel=1, data=[67, 80]),
   midi.NoteOnEvent(tick=0, channel=1, data=[73, 127]),
   midi.NoteOnEvent(tick=0, channel=1, data=[65, 127]),
   midi.NoteOffEvent(tick=1920, channel=1, data=[73, 80]),
   midi.NoteOffEvent(tick=0, channel=1, data=[65, 80]),
   midi.NoteOnEvent(tick=240, channel=1, data=[68, 127]),
   midi.NoteOffEvent(tick=120, channel=1, data=[68, 80]),
   midi.NoteOnEvent(tick=0, channel=1, data=[68, 63]),
   midi.NoteOnEvent(tick=120, channel=1, data=[75, 127]),
   midi.NoteOffEvent(tick=120, channel=1, data=[68, 80]),
   midi.NoteOffEvent(tick=0, channel=1, data=[75, 80]),
   midi.NoteOnEvent(tick=0, channel=1, data=[75, 63]),
   midi.NoteOnEvent(tick=120, channel=1, data=[68, 127]),
   midi.NoteOffEvent(tick=120, channel=1, data=[75, 80]),
   midi.NoteOffEvent(tick=0, channel=1, data=[68, 80]),
   midi.NoteOnEvent(tick=0, channel=1, data=[68, 63]),
   midi.NoteOnEvent(tick=120, channel=1, data=[80, 127]),
   midi.NoteOffEvent(tick=120, channel=1, data=[68, 80]),
   midi.NoteOffEvent(tick=0, channel=1, data=[80, 80]),
   midi.NoteOnEvent(tick=0, channel=1, data=[80, 63]),
   midi.NoteOnEvent(tick=120, channel=1, data=[68, 127]),
   midi.NoteOffEvent(tick=120, channel=1, data=[80, 80]),
   midi.NoteOffEvent(tick=0, channel=1, data=[68, 80]),
   midi.NoteOnEvent(tick=0, channel=1, data=[68, 63]),
   midi.NoteOnEvent(tick=120, channel=1, data=[75, 127]),
   midi.NoteOffEvent(tick=120, channel=1, data=[68, 80]),
   midi.NoteOffEvent(tick=0, channel=1, data=[75, 80]),
   midi.NoteOnEvent(tick=0, channel=1, data=[75, 63]),
   midi.NoteOnEvent(tick=120, channel=1, data=[68, 127]),
   midi.NoteOffEvent(tick=120, channel=1, data=[75, 80]),
   midi.NoteOffEvent(tick=0, channel=1, data=[68, 80]),
   midi.NoteOnEvent(tick=0, channel=1, data=[68, 63]),
   midi.NoteOnEvent(tick=120, channel=1, data=[77, 95]),
   midi.NoteOffEvent(tick=120, channel=1, data=[68, 80]),
   midi.NoteOffEvent(tick=0, channel=1, data=[77, 80]),
   midi.NoteOnEvent(tick=0, channel=1, data=[77, 63]),
   midi.NoteOnEvent(tick=120, channel=1, data=[70, 127]),
   midi.NoteOffEvent(tick=120, channel=1, data=[77, 80]),
   midi.NoteOffEvent(tick=0, channel=1, data=[70, 80]),
   midi.NoteOnEvent(tick=0, channel=1, data=[70, 63]),
   midi.NoteOnEvent(tick=120, channel=1, data=[77, 127]),
   midi.NoteOffEvent(tick=120, channel=1, data=[70, 80]),
   midi.NoteOffEvent(tick=0, channel=1, data=[77, 80]),
   midi.NoteOnEvent(tick=0, channel=1, data=[77, 63]),
   midi.NoteOnEvent(tick=120, channel=1, data=[70, 127]),
   midi.NoteOffEvent(tick=120, channel=1, data=[77, 80]),
   midi.NoteOffEvent(tick=0, channel=1, data=[70, 80]),
   midi.NoteOnEvent(tick=0, channel=1, data=[70, 63]),
   midi.NoteOnEvent(tick=120, channel=1, data=[82, 127]),
   midi.NoteOffEvent(tick=120, channel=1, data=[70, 80]),
   midi.NoteOffEvent(tick=0, channel=1, data=[82, 80]),
   midi.NoteOnEvent(tick=0, channel=1, data=[82, 63]),
   midi.NoteOnEvent(tick=120, channel=1, data=[70, 127]),
   midi.NoteOffEvent(tick=120, channel=1, data=[82, 80]),
   midi.NoteOffEvent(tick=0, channel=1, data=[70, 80]),
   midi.NoteOnEvent(tick=0, channel=1, data=[70, 63]),
   midi.NoteOnEvent(tick=120, channel=1, data=[77, 127]),
   midi.NoteOffEvent(tick=120, channel=1, data=[70, 80]),
   midi.NoteOffEvent(tick=0, channel=1, data=[77, 80]),
   midi.NoteOnEvent(tick=0, channel=1, data=[77, 63]),
   midi.NoteOnEvent(tick=120, channel=1, data=[70, 127]),
   midi.NoteOffEvent(tick=120, channel=1, data=[77, 80]),
   midi.NoteOffEvent(tick=0, channel=1, data=[70, 80]),
   midi.NoteOnEvent(tick=0, channel=1, data=[70, 63]),
   midi.NoteOnEvent(tick=120, channel=1, data=[77, 95]),
   midi.NoteOffEvent(tick=120, channel=1, data=[70, 80]),
   midi.NoteOffEvent(tick=0, channel=1, data=[77, 80]),
   midi.NoteOnEvent(tick=0, channel=1, data=[77, 63]),
   midi.NoteOnEvent(tick=120, channel=1, data=[70, 127]),
   midi.NoteOffEvent(tick=120, channel=1, data=[77, 80]),
   midi.NoteOffEvent(tick=0, channel=1, data=[70, 80]),
   midi.NoteOnEvent(tick=0, channel=1, data=[70, 63]),
   midi.NoteOnEvent(tick=120, channel=1, data=[77, 127]),
   midi.NoteOffEvent(tick=120, channel=1, data=[70, 80]),
   midi.NoteOffEvent(tick=0, channel=1, data=[77, 80]),
   midi.NoteOnEvent(tick=0, channel=1, data=[77, 63]),
   midi.NoteOnEvent(tick=120, channel=1, data=[70, 127]),
   midi.NoteOffEvent(tick=120, channel=1, data=[77, 80]),
   midi.NoteOffEvent(tick=0, channel=1, data=[70, 80]),
   midi.NoteOnEvent(tick=0, channel=1, data=[70, 63]),
   midi.NoteOnEvent(tick=120, channel=1, data=[82, 127]),
   midi.NoteOffEvent(tick=120, channel=1, data=[70, 80]),
   midi.NoteOffEvent(tick=0, channel=1, data=[82, 80]),
   midi.NoteOnEvent(tick=0, channel=1, data=[82, 63]),
   midi.NoteOnEvent(tick=120, channel=1, data=[70, 127]),
   midi.NoteOffEvent(tick=120, channel=1, data=[82, 80]),
   midi.NoteOffEvent(tick=0, channel=1, data=[70, 80]),
   midi.NoteOnEvent(tick=0, channel=1, data=[70, 63]),
   midi.NoteOnEvent(tick=120, channel=1, data=[77, 127]),
   midi.NoteOffEvent(tick=120, channel=1, data=[70, 80]),
   midi.NoteOffEvent(tick=0, channel=1, data=[77, 80]),
   midi.NoteOnEvent(tick=0, channel=1, data=[77, 63]),
   midi.NoteOnEvent(tick=120, channel=1, data=[70, 127]),
   midi.NoteOffEvent(tick=120, channel=1, data=[77, 80]),
   midi.NoteOffEvent(tick=0, channel=1, data=[70, 80]),
   midi.NoteOnEvent(tick=0, channel=1, data=[70, 63]),
   midi.NoteOnEvent(tick=120, channel=1, data=[79, 95]),
   midi.NoteOffEvent(tick=120, channel=1, data=[70, 80]),
   midi.NoteOffEvent(tick=0, channel=1, data=[79, 80]),
   midi.NoteOnEvent(tick=0, channel=1, data=[79, 63]),
   midi.NoteOnEvent(tick=120, channel=1, data=[72, 127]),
   midi.NoteOffEvent(tick=120, channel=1, data=[79, 80]),
   midi.NoteOffEvent(tick=0, channel=1, data=[72, 80]),
   midi.NoteOnEvent(tick=0, channel=1, data=[72, 63]),
   midi.NoteOnEvent(tick=120, channel=1, data=[79, 127]),
   midi.NoteOffEvent(tick=120, channel=1, data=[72, 80]),
   midi.NoteOffEvent(tick=0, channel=1, data=[79, 80]),
   midi.NoteOnEvent(tick=0, channel=1, data=[79, 63]),
   midi.NoteOnEvent(tick=120, channel=1, data=[72, 127]),
   midi.NoteOffEvent(tick=120, channel=1, data=[79, 80]),
   midi.NoteOffEvent(tick=0, channel=1, data=[72, 80]),
   midi.NoteOnEvent(tick=0, channel=1, data=[72, 63]),
   midi.NoteOnEvent(tick=120, channel=1, data=[84, 127]),
   midi.NoteOffEvent(tick=120, channel=1, data=[72, 80]),
   midi.NoteOffEvent(tick=0, channel=1, data=[84, 80]),
   midi.NoteOnEvent(tick=0, channel=1, data=[84, 63]),
   midi.NoteOnEvent(tick=120, channel=1, data=[72, 127]),
   midi.NoteOffEvent(tick=120, channel=1, data=[84, 80]),
   midi.NoteOffEvent(tick=0, channel=1, data=[72, 80]),
   midi.NoteOnEvent(tick=0, channel=1, data=[72, 63]),
   midi.NoteOnEvent(tick=120, channel=1, data=[79, 127]),
   midi.NoteOffEvent(tick=120, channel=1, data=[72, 80]),
   midi.NoteOffEvent(tick=0, channel=1, data=[79, 80]),
   midi.NoteOnEvent(tick=0, channel=1, data=[79, 63]),
   midi.NoteOnEvent(tick=120, channel=1, data=[72, 127]),
   midi.NoteOffEvent(tick=120, channel=1, data=[79, 80]),
   midi.NoteOffEvent(tick=0, channel=1, data=[72, 80]),
   midi.NoteOnEvent(tick=0, channel=1, data=[72, 63]),
   midi.NoteOffEvent(tick=240, channel=1, data=[72, 80]),
   midi.EndOfTrackEvent(tick=0, data=[])]),
 midi.Track(\
  [midi.TrackNameEvent(tick=0, text='Mallets', data=[77, 97, 108, 108, 101, 116, 115]),
   midi.ControlChangeEvent(tick=0, channel=2, data=[100, 0]),
   midi.ControlChangeEvent(tick=0, channel=2, data=[101, 0]),
   midi.ControlChangeEvent(tick=0, channel=2, data=[6, 12]),
   midi.PitchWheelEvent(tick=0, channel=2, data=[0, 64]),
   midi.ControlChangeEvent(tick=0, channel=2, data=[101, 0]),
   midi.ControlChangeEvent(tick=0, channel=2, data=[100, 1]),
   midi.ControlChangeEvent(tick=0, channel=2, data=[6, 64]),
   midi.ControlChangeEvent(tick=0, channel=2, data=[38, 0]),
   midi.ControlChangeEvent(tick=0, channel=2, data=[101, 127]),
   midi.ControlChangeEvent(tick=0, channel=2, data=[100, 127]),
   midi.ControlChangeEvent(tick=0, channel=2, data=[101, 0]),
   midi.ControlChangeEvent(tick=0, channel=2, data=[100, 2]),
   midi.ControlChangeEvent(tick=0, channel=2, data=[6, 64]),
   midi.ControlChangeEvent(tick=0, channel=2, data=[101, 127]),
   midi.ControlChangeEvent(tick=0, channel=2, data=[100, 127]),
   midi.ProgramChangeEvent(tick=0, channel=2, data=[12]),
   midi.ControlChangeEvent(tick=0, channel=2, data=[0, 0]),
   midi.ControlChangeEvent(tick=0, channel=2, data=[7, 96]),
   midi.ControlChangeEvent(tick=0, channel=2, data=[10, 64]),
   midi.ControlChangeEvent(tick=0, channel=2, data=[93, 0]),
   midi.ControlChangeEvent(tick=0, channel=2, data=[91, 0]),
   midi.ControlChangeEvent(tick=0, channel=2, data=[92, 0]),
   midi.ControlChangeEvent(tick=0, channel=2, data=[95, 0]),
   midi.NoteOnEvent(tick=960, channel=2, data=[75, 127]),
   midi.NoteOffEvent(tick=240, channel=2, data=[75, 80]),
   midi.NoteOnEvent(tick=0, channel=2, data=[77, 127]),
   midi.NoteOffEvent(tick=240, channel=2, data=[77, 80]),
   midi.NoteOnEvent(tick=0, channel=2, data=[79, 127]),
   midi.NoteOffEvent(tick=720, channel=2, data=[79, 80]),
   midi.NoteOnEvent(tick=0, channel=2, data=[80, 127]),
   midi.NoteOffEvent(tick=240, channel=2, data=[80, 80]),
   midi.NoteOnEvent(tick=0, channel=2, data=[79, 127]),
   midi.NoteOffEvent(tick=240, channel=2, data=[79, 80]),
   midi.NoteOnEvent(tick=0, channel=2, data=[77, 127]),
   midi.NoteOffEvent(tick=240, channel=2, data=[77, 80]),
   midi.NoteOnEvent(tick=0, channel=2, data=[75, 127]),
   midi.NoteOffEvent(tick=240, channel=2, data=[75, 80]),
   midi.NoteOnEvent(tick=0, channel=2, data=[74, 127]),
   midi.NoteOffEvent(tick=240, channel=2, data=[74, 80]),
   midi.NoteOnEvent(tick=0, channel=2, data=[75, 127]),
   midi.NoteOffEvent(tick=240, channel=2, data=[75, 80]),
   midi.NoteOnEvent(tick=0, channel=2, data=[72, 127]),
   midi.NoteOffEvent(tick=1200, channel=2, data=[72, 80]),
   midi.NoteOnEvent(tick=0, channel=2, data=[80, 127]),
   midi.NoteOffEvent(tick=960, channel=2, data=[80, 80]),
   midi.NoteOnEvent(tick=0, channel=2, data=[82, 127]),
   midi.NoteOffEvent(tick=360, channel=2, data=[82, 80]),
   midi.NoteOnEvent(tick=0, channel=2, data=[80, 127]),
   midi.NoteOffEvent(tick=360, channel=2, data=[80, 80]),
   midi.NoteOnEvent(tick=0, channel=2, data=[79, 127]),
   midi.NoteOffEvent(tick=240, channel=2, data=[79, 80]),
   midi.NoteOnEvent(tick=0, channel=2, data=[77, 127]),
   midi.NoteOffEvent(tick=1920, channel=2, data=[77, 80]),
   midi.NoteOnEvent(tick=0, channel=2, data=[75, 127]),
   midi.NoteOffEvent(tick=720, channel=2, data=[75, 80]),
   midi.NoteOnEvent(tick=0, channel=2, data=[68, 127]),
   midi.NoteOffEvent(tick=720, channel=2, data=[68, 80]),
   midi.NoteOnEvent(tick=0, channel=2, data=[75, 127]),
   midi.NoteOffEvent(tick=480, channel=2, data=[75, 80]),
   midi.NoteOnEvent(tick=0, channel=2, data=[77, 127]),
   midi.NoteOffEvent(tick=1920, channel=2, data=[77, 80]),
   midi.NoteOnEvent(tick=0, channel=2, data=[77, 127]),
   midi.NoteOffEvent(tick=720, channel=2, data=[77, 80]),
   midi.NoteOnEvent(tick=0, channel=2, data=[70, 127]),
   midi.NoteOffEvent(tick=720, channel=2, data=[70, 80]),
   midi.NoteOnEvent(tick=0, channel=2, data=[77, 127]),
   midi.NoteOffEvent(tick=480, channel=2, data=[77, 80]),
   midi.NoteOnEvent(tick=0, channel=2, data=[79, 127]),
   midi.NoteOffEvent(tick=960, channel=2, data=[79, 80]),
   midi.NoteOnEvent(tick=0, channel=2, data=[79, 127]),
   midi.NoteOffEvent(tick=360, channel=2, data=[79, 80]),
   midi.NoteOnEvent(tick=0, channel=2, data=[80, 127]),
   midi.NoteOffEvent(tick=360, channel=2, data=[80, 80]),
   midi.NoteOnEvent(tick=0, channel=2, data=[82, 127]),
   midi.NoteOffEvent(tick=240, channel=2, data=[82, 80]),
   midi.NoteOnEvent(tick=30720, channel=2, data=[75, 127]),
   midi.NoteOffEvent(tick=240, channel=2, data=[75, 80]),
   midi.NoteOnEvent(tick=0, channel=2, data=[77, 127]),
   midi.NoteOffEvent(tick=240, channel=2, data=[77, 80]),
   midi.NoteOnEvent(tick=0, channel=2, data=[79, 127]),
   midi.NoteOffEvent(tick=720, channel=2, data=[79, 80]),
   midi.NoteOnEvent(tick=0, channel=2, data=[80, 127]),
   midi.NoteOffEvent(tick=240, channel=2, data=[80, 80]),
   midi.NoteOnEvent(tick=0, channel=2, data=[79, 127]),
   midi.NoteOffEvent(tick=240, channel=2, data=[79, 80]),
   midi.NoteOnEvent(tick=0, channel=2, data=[77, 127]),
   midi.NoteOffEvent(tick=240, channel=2, data=[77, 80]),
   midi.NoteOnEvent(tick=0, channel=2, data=[75, 127]),
   midi.NoteOffEvent(tick=240, channel=2, data=[75, 80]),
   midi.NoteOnEvent(tick=0, channel=2, data=[74, 127]),
   midi.NoteOffEvent(tick=240, channel=2, data=[74, 80]),
   midi.NoteOnEvent(tick=0, channel=2, data=[75, 127]),
   midi.NoteOffEvent(tick=240, channel=2, data=[75, 80]),
   midi.NoteOnEvent(tick=0, channel=2, data=[72, 127]),
   midi.NoteOffEvent(tick=1200, channel=2, data=[72, 80]),
   midi.NoteOnEvent(tick=0, channel=2, data=[80, 127]),
   midi.NoteOffEvent(tick=960, channel=2, data=[80, 80]),
   midi.NoteOnEvent(tick=0, channel=2, data=[82, 127]),
   midi.NoteOffEvent(tick=360, channel=2, data=[82, 80]),
   midi.NoteOnEvent(tick=0, channel=2, data=[80, 127]),
   midi.NoteOffEvent(tick=360, channel=2, data=[80, 80]),
   midi.NoteOnEvent(tick=0, channel=2, data=[79, 127]),
   midi.NoteOffEvent(tick=240, channel=2, data=[79, 80]),
   midi.NoteOnEvent(tick=0, channel=2, data=[77, 127]),
   midi.NoteOffEvent(tick=1920, channel=2, data=[77, 80]),
   midi.NoteOnEvent(tick=0, channel=2, data=[75, 127]),
   midi.NoteOffEvent(tick=720, channel=2, data=[75, 80]),
   midi.NoteOnEvent(tick=0, channel=2, data=[68, 127]),
   midi.NoteOffEvent(tick=720, channel=2, data=[68, 80]),
   midi.NoteOnEvent(tick=0, channel=2, data=[75, 127]),
   midi.NoteOffEvent(tick=480, channel=2, data=[75, 80]),
   midi.NoteOnEvent(tick=0, channel=2, data=[77, 127]),
   midi.NoteOffEvent(tick=1920, channel=2, data=[77, 80]),
   midi.NoteOnEvent(tick=0, channel=2, data=[77, 127]),
   midi.NoteOffEvent(tick=720, channel=2, data=[77, 80]),
   midi.NoteOnEvent(tick=0, channel=2, data=[70, 127]),
   midi.NoteOffEvent(tick=720, channel=2, data=[70, 80]),
   midi.NoteOnEvent(tick=0, channel=2, data=[77, 127]),
   midi.NoteOffEvent(tick=480, channel=2, data=[77, 80]),
   midi.NoteOnEvent(tick=0, channel=2, data=[79, 127]),
   midi.NoteOffEvent(tick=960, channel=2, data=[79, 80]),
   midi.NoteOnEvent(tick=0, channel=2, data=[79, 127]),
   midi.NoteOffEvent(tick=360, channel=2, data=[79, 80]),
   midi.NoteOnEvent(tick=0, channel=2, data=[80, 127]),
   midi.NoteOffEvent(tick=360, channel=2, data=[80, 80]),
   midi.NoteOnEvent(tick=0, channel=2, data=[82, 127]),
   midi.NoteOffEvent(tick=240, channel=2, data=[82, 80]),
   midi.EndOfTrackEvent(tick=0, data=[])]),
 midi.Track(\
  [midi.TrackNameEvent(tick=0, text='Voice', data=[86, 111, 105, 99, 101]),
   midi.ControlChangeEvent(tick=0, channel=3, data=[100, 0]),
   midi.ControlChangeEvent(tick=0, channel=3, data=[101, 0]),
   midi.ControlChangeEvent(tick=0, channel=3, data=[6, 12]),
   midi.PitchWheelEvent(tick=0, channel=3, data=[0, 64]),
   midi.ControlChangeEvent(tick=0, channel=3, data=[101, 0]),
   midi.ControlChangeEvent(tick=0, channel=3, data=[100, 1]),
   midi.ControlChangeEvent(tick=0, channel=3, data=[6, 64]),
   midi.ControlChangeEvent(tick=0, channel=3, data=[38, 0]),
   midi.ControlChangeEvent(tick=0, channel=3, data=[101, 127]),
   midi.ControlChangeEvent(tick=0, channel=3, data=[100, 127]),
   midi.ControlChangeEvent(tick=0, channel=3, data=[101, 0]),
   midi.ControlChangeEvent(tick=0, channel=3, data=[100, 2]),
   midi.ControlChangeEvent(tick=0, channel=3, data=[6, 64]),
   midi.ControlChangeEvent(tick=0, channel=3, data=[101, 127]),
   midi.ControlChangeEvent(tick=0, channel=3, data=[100, 127]),
   midi.ProgramChangeEvent(tick=0, channel=3, data=[91]),
   midi.ControlChangeEvent(tick=0, channel=3, data=[0, 0]),
   midi.ControlChangeEvent(tick=0, channel=3, data=[7, 80]),
   midi.ControlChangeEvent(tick=0, channel=3, data=[10, 64]),
   midi.ControlChangeEvent(tick=0, channel=3, data=[93, 0]),
   midi.ControlChangeEvent(tick=0, channel=3, data=[91, 0]),
   midi.ControlChangeEvent(tick=0, channel=3, data=[92, 0]),
   midi.ControlChangeEvent(tick=0, channel=3, data=[95, 0]),
   midi.NoteOnEvent(tick=960, channel=3, data=[63, 127]),
   midi.NoteOffEvent(tick=240, channel=3, data=[63, 80]),
   midi.NoteOnEvent(tick=0, channel=3, data=[65, 127]),
   midi.NoteOffEvent(tick=240, channel=3, data=[65, 80]),
   midi.NoteOnEvent(tick=0, channel=3, data=[67, 127]),
   midi.NoteOffEvent(tick=720, channel=3, data=[67, 80]),
   midi.NoteOnEvent(tick=0, channel=3, data=[68, 127]),
   midi.NoteOffEvent(tick=240, channel=3, data=[68, 80]),
   midi.NoteOnEvent(tick=0, channel=3, data=[67, 127]),
   midi.NoteOffEvent(tick=240, channel=3, data=[67, 80]),
   midi.NoteOnEvent(tick=0, channel=3, data=[65, 127]),
   midi.NoteOffEvent(tick=240, channel=3, data=[65, 80]),
   midi.NoteOnEvent(tick=0, channel=3, data=[63, 127]),
   midi.NoteOffEvent(tick=240, channel=3, data=[63, 80]),
   midi.NoteOnEvent(tick=0, channel=3, data=[62, 127]),
   midi.NoteOffEvent(tick=240, channel=3, data=[62, 80]),
   midi.NoteOnEvent(tick=0, channel=3, data=[63, 127]),
   midi.NoteOffEvent(tick=240, channel=3, data=[63, 80]),
   midi.NoteOnEvent(tick=0, channel=3, data=[60, 127]),
   midi.NoteOffEvent(tick=1200, channel=3, data=[60, 80]),
   midi.NoteOnEvent(tick=0, channel=3, data=[68, 127]),
   midi.NoteOffEvent(tick=960, channel=3, data=[68, 80]),
   midi.NoteOnEvent(tick=0, channel=3, data=[70, 127]),
   midi.NoteOffEvent(tick=360, channel=3, data=[70, 80]),
   midi.NoteOnEvent(tick=0, channel=3, data=[68, 127]),
   midi.NoteOffEvent(tick=360, channel=3, data=[68, 80]),
   midi.NoteOnEvent(tick=0, channel=3, data=[67, 127]),
   midi.NoteOffEvent(tick=240, channel=3, data=[67, 80]),
   midi.NoteOnEvent(tick=0, channel=3, data=[65, 127]),
   midi.NoteOffEvent(tick=1920, channel=3, data=[65, 80]),
   midi.NoteOnEvent(tick=120, channel=3, data=[63, 127]),
   midi.NoteOffEvent(tick=720, channel=3, data=[63, 80]),
   midi.NoteOnEvent(tick=0, channel=3, data=[56, 127]),
   midi.NoteOffEvent(tick=720, channel=3, data=[56, 80]),
   midi.NoteOnEvent(tick=0, channel=3, data=[63, 127]),
   midi.NoteOffEvent(tick=480, channel=3, data=[63, 80]),
   midi.NoteOnEvent(tick=0, channel=3, data=[65, 127]),
   midi.NoteOffEvent(tick=1920, channel=3, data=[65, 80]),
   midi.NoteOnEvent(tick=0, channel=3, data=[65, 127]),
   midi.NoteOffEvent(tick=720, channel=3, data=[65, 80]),
   midi.NoteOnEvent(tick=0, channel=3, data=[58, 127]),
   midi.NoteOffEvent(tick=720, channel=3, data=[58, 80]),
   midi.NoteOnEvent(tick=0, channel=3, data=[65, 127]),
   midi.NoteOffEvent(tick=480, channel=3, data=[65, 80]),
   midi.NoteOnEvent(tick=0, channel=3, data=[67, 127]),
   midi.NoteOffEvent(tick=960, channel=3, data=[67, 80]),
   midi.NoteOnEvent(tick=0, channel=3, data=[67, 127]),
   midi.NoteOffEvent(tick=360, channel=3, data=[67, 80]),
   midi.NoteOnEvent(tick=0, channel=3, data=[68, 127]),
   midi.NoteOffEvent(tick=360, channel=3, data=[68, 80]),
   midi.NoteOnEvent(tick=0, channel=3, data=[70, 127]),
   midi.NoteOffEvent(tick=240, channel=3, data=[70, 80]),
   midi.NoteOnEvent(tick=30600, channel=3, data=[63, 127]),
   midi.NoteOffEvent(tick=240, channel=3, data=[63, 80]),
   midi.NoteOnEvent(tick=0, channel=3, data=[65, 127]),
   midi.NoteOffEvent(tick=240, channel=3, data=[65, 80]),
   midi.NoteOnEvent(tick=0, channel=3, data=[67, 127]),
   midi.NoteOffEvent(tick=720, channel=3, data=[67, 80]),
   midi.NoteOnEvent(tick=0, channel=3, data=[68, 127]),
   midi.NoteOffEvent(tick=240, channel=3, data=[68, 80]),
   midi.NoteOnEvent(tick=0, channel=3, data=[67, 127]),
   midi.NoteOffEvent(tick=240, channel=3, data=[67, 80]),
   midi.NoteOnEvent(tick=0, channel=3, data=[65, 127]),
   midi.NoteOffEvent(tick=240, channel=3, data=[65, 80]),
   midi.NoteOnEvent(tick=0, channel=3, data=[63, 127]),
   midi.NoteOffEvent(tick=240, channel=3, data=[63, 80]),
   midi.NoteOnEvent(tick=0, channel=3, data=[62, 127]),
   midi.NoteOffEvent(tick=240, channel=3, data=[62, 80]),
   midi.NoteOnEvent(tick=0, channel=3, data=[63, 127]),
   midi.NoteOffEvent(tick=240, channel=3, data=[63, 80]),
   midi.NoteOnEvent(tick=0, channel=3, data=[60, 127]),
   midi.NoteOffEvent(tick=1200, channel=3, data=[60, 80]),
   midi.NoteOnEvent(tick=0, channel=3, data=[68, 127]),
   midi.NoteOffEvent(tick=960, channel=3, data=[68, 80]),
   midi.NoteOnEvent(tick=0, channel=3, data=[70, 127]),
   midi.NoteOffEvent(tick=360, channel=3, data=[70, 80]),
   midi.NoteOnEvent(tick=0, channel=3, data=[68, 127]),
   midi.NoteOffEvent(tick=360, channel=3, data=[68, 80]),
   midi.NoteOnEvent(tick=0, channel=3, data=[67, 127]),
   midi.NoteOffEvent(tick=240, channel=3, data=[67, 80]),
   midi.NoteOnEvent(tick=0, channel=3, data=[65, 127]),
   midi.NoteOffEvent(tick=1920, channel=3, data=[65, 80]),
   midi.NoteOnEvent(tick=120, channel=3, data=[63, 127]),
   midi.NoteOffEvent(tick=720, channel=3, data=[63, 80]),
   midi.NoteOnEvent(tick=0, channel=3, data=[56, 127]),
   midi.NoteOffEvent(tick=720, channel=3, data=[56, 80]),
   midi.NoteOnEvent(tick=0, channel=3, data=[63, 127]),
   midi.NoteOffEvent(tick=480, channel=3, data=[63, 80]),
   midi.NoteOnEvent(tick=0, channel=3, data=[65, 127]),
   midi.NoteOffEvent(tick=1920, channel=3, data=[65, 80]),
   midi.NoteOnEvent(tick=0, channel=3, data=[65, 127]),
   midi.NoteOffEvent(tick=720, channel=3, data=[65, 80]),
   midi.NoteOnEvent(tick=0, channel=3, data=[58, 127]),
   midi.NoteOffEvent(tick=720, channel=3, data=[58, 80]),
   midi.NoteOnEvent(tick=0, channel=3, data=[65, 127]),
   midi.NoteOffEvent(tick=480, channel=3, data=[65, 80]),
   midi.NoteOnEvent(tick=0, channel=3, data=[67, 127]),
   midi.NoteOffEvent(tick=960, channel=3, data=[67, 80]),
   midi.NoteOnEvent(tick=0, channel=3, data=[67, 127]),
   midi.NoteOffEvent(tick=360, channel=3, data=[67, 80]),
   midi.NoteOnEvent(tick=0, channel=3, data=[68, 127]),
   midi.NoteOffEvent(tick=360, channel=3, data=[68, 80]),
   midi.NoteOnEvent(tick=0, channel=3, data=[70, 127]),
   midi.NoteOffEvent(tick=240, channel=3, data=[70, 80]),
   midi.EndOfTrackEvent(tick=0, data=[])]),
 midi.Track(\
  [midi.TrackNameEvent(tick=0, text='Strings', data=[83, 116, 114, 105, 110, 103, 115]),
   midi.ControlChangeEvent(tick=0, channel=4, data=[100, 0]),
   midi.ControlChangeEvent(tick=0, channel=4, data=[101, 0]),
   midi.ControlChangeEvent(tick=0, channel=4, data=[6, 12]),
   midi.PitchWheelEvent(tick=0, channel=4, data=[0, 64]),
   midi.ControlChangeEvent(tick=0, channel=4, data=[101, 0]),
   midi.ControlChangeEvent(tick=0, channel=4, data=[100, 1]),
   midi.ControlChangeEvent(tick=0, channel=4, data=[6, 64]),
   midi.ControlChangeEvent(tick=0, channel=4, data=[38, 0]),
   midi.ControlChangeEvent(tick=0, channel=4, data=[101, 127]),
   midi.ControlChangeEvent(tick=0, channel=4, data=[100, 127]),
   midi.ControlChangeEvent(tick=0, channel=4, data=[101, 0]),
   midi.ControlChangeEvent(tick=0, channel=4, data=[100, 2]),
   midi.ControlChangeEvent(tick=0, channel=4, data=[6, 64]),
   midi.ControlChangeEvent(tick=0, channel=4, data=[101, 127]),
   midi.ControlChangeEvent(tick=0, channel=4, data=[100, 127]),
   midi.ProgramChangeEvent(tick=0, channel=4, data=[48]),
   midi.ControlChangeEvent(tick=0, channel=4, data=[0, 0]),
   midi.ControlChangeEvent(tick=0, channel=4, data=[7, 112]),
   midi.ControlChangeEvent(tick=0, channel=4, data=[10, 64]),
   midi.ControlChangeEvent(tick=0, channel=4, data=[93, 0]),
   midi.ControlChangeEvent(tick=0, channel=4, data=[91, 0]),
   midi.ControlChangeEvent(tick=0, channel=4, data=[92, 0]),
   midi.ControlChangeEvent(tick=0, channel=4, data=[95, 0]),
   midi.NoteOnEvent(tick=16320, channel=4, data=[68, 127]),
   midi.NoteOnEvent(tick=0, channel=4, data=[65, 127]),
   midi.NoteOffEvent(tick=840, channel=4, data=[68, 80]),
   midi.NoteOffEvent(tick=0, channel=4, data=[65, 80]),
   midi.NoteOnEvent(tick=120, channel=4, data=[72, 127]),
   midi.NoteOnEvent(tick=0, channel=4, data=[68, 127]),
   midi.NoteOffEvent(tick=360, channel=4, data=[72, 80]),
   midi.NoteOffEvent(tick=0, channel=4, data=[68, 80]),
   midi.NoteOnEvent(tick=0, channel=4, data=[70, 127]),
   midi.NoteOnEvent(tick=0, channel=4, data=[67, 127]),
   midi.NoteOffEvent(tick=360, channel=4, data=[70, 80]),
   midi.NoteOffEvent(tick=0, channel=4, data=[67, 80]),
   midi.NoteOnEvent(tick=0, channel=4, data=[68, 127]),
   midi.NoteOnEvent(tick=0, channel=4, data=[65, 127]),
   midi.NoteOffEvent(tick=240, channel=4, data=[68, 80]),
   midi.NoteOffEvent(tick=0, channel=4, data=[65, 80]),
   midi.NoteOnEvent(tick=0, channel=4, data=[67, 127]),
   midi.NoteOnEvent(tick=0, channel=4, data=[63, 127]),
   midi.NoteOffEvent(tick=840, channel=4, data=[67, 80]),
   midi.NoteOffEvent(tick=0, channel=4, data=[63, 80]),
   midi.NoteOnEvent(tick=120, channel=4, data=[70, 127]),
   midi.NoteOnEvent(tick=0, channel=4, data=[67, 127]),
   midi.NoteOffEvent(tick=360, channel=4, data=[70, 80]),
   midi.NoteOffEvent(tick=0, channel=4, data=[67, 80]),
   midi.NoteOnEvent(tick=0, channel=4, data=[68, 127]),
   midi.NoteOnEvent(tick=0, channel=4, data=[65, 127]),
   midi.NoteOffEvent(tick=360, channel=4, data=[68, 80]),
   midi.NoteOffEvent(tick=0, channel=4, data=[65, 80]),
   midi.NoteOnEvent(tick=0, channel=4, data=[67, 127]),
   midi.NoteOnEvent(tick=0, channel=4, data=[63, 127]),
   midi.NoteOffEvent(tick=240, channel=4, data=[67, 80]),
   midi.NoteOffEvent(tick=0, channel=4, data=[63, 80]),
   midi.NoteOnEvent(tick=0, channel=4, data=[65, 127]),
   midi.NoteOnEvent(tick=0, channel=4, data=[61, 127]),
   midi.NoteOffEvent(tick=840, channel=4, data=[65, 80]),
   midi.NoteOffEvent(tick=0, channel=4, data=[61, 80]),
   midi.NoteOnEvent(tick=120, channel=4, data=[67, 127]),
   midi.NoteOnEvent(tick=0, channel=4, data=[63, 127]),
   midi.NoteOffEvent(tick=360, channel=4, data=[67, 80]),
   midi.NoteOffEvent(tick=0, channel=4, data=[63, 80]),
   midi.NoteOnEvent(tick=0, channel=4, data=[68, 127]),
   midi.NoteOnEvent(tick=0, channel=4, data=[65, 127]),
   midi.NoteOffEvent(tick=360, channel=4, data=[68, 80]),
   midi.NoteOffEvent(tick=0, channel=4, data=[65, 80]),
   midi.NoteOnEvent(tick=0, channel=4, data=[70, 127]),
   midi.NoteOnEvent(tick=0, channel=4, data=[67, 127]),
   midi.NoteOffEvent(tick=240, channel=4, data=[70, 80]),
   midi.NoteOffEvent(tick=0, channel=4, data=[67, 80]),
   midi.NoteOnEvent(tick=0, channel=4, data=[68, 127]),
   midi.NoteOnEvent(tick=0, channel=4, data=[65, 127]),
   midi.NoteOffEvent(tick=720, channel=4, data=[68, 80]),
   midi.NoteOffEvent(tick=0, channel=4, data=[65, 80]),
   midi.NoteOnEvent(tick=0, channel=4, data=[65, 127]),
   midi.NoteOnEvent(tick=0, channel=4, data=[61, 127]),
   midi.NoteOffEvent(tick=1080, channel=4, data=[65, 80]),
   midi.NoteOffEvent(tick=0, channel=4, data=[61, 80]),
   midi.NoteOnEvent(tick=120, channel=4, data=[68, 127]),
   midi.NoteOnEvent(tick=0, channel=4, data=[65, 127]),
   midi.NoteOffEvent(tick=840, channel=4, data=[68, 80]),
   midi.NoteOffEvent(tick=0, channel=4, data=[65, 80]),
   midi.NoteOnEvent(tick=120, channel=4, data=[72, 127]),
   midi.NoteOnEvent(tick=0, channel=4, data=[68, 127]),
   midi.NoteOffEvent(tick=360, channel=4, data=[72, 80]),
   midi.NoteOffEvent(tick=0, channel=4, data=[68, 80]),
   midi.NoteOnEvent(tick=0, channel=4, data=[70, 127]),
   midi.NoteOnEvent(tick=0, channel=4, data=[67, 127]),
   midi.NoteOffEvent(tick=360, channel=4, data=[70, 80]),
   midi.NoteOffEvent(tick=0, channel=4, data=[67, 80]),
   midi.NoteOnEvent(tick=0, channel=4, data=[68, 127]),
   midi.NoteOnEvent(tick=0, channel=4, data=[65, 127]),
   midi.NoteOffEvent(tick=240, channel=4, data=[68, 80]),
   midi.NoteOffEvent(tick=0, channel=4, data=[65, 80]),
   midi.NoteOnEvent(tick=0, channel=4, data=[67, 127]),
   midi.NoteOnEvent(tick=0, channel=4, data=[63, 127]),
   midi.NoteOffEvent(tick=840, channel=4, data=[67, 80]),
   midi.NoteOffEvent(tick=0, channel=4, data=[63, 80]),
   midi.NoteOnEvent(tick=120, channel=4, data=[70, 127]),
   midi.NoteOnEvent(tick=0, channel=4, data=[67, 127]),
   midi.NoteOffEvent(tick=360, channel=4, data=[70, 80]),
   midi.NoteOffEvent(tick=0, channel=4, data=[67, 80]),
   midi.NoteOnEvent(tick=0, channel=4, data=[68, 127]),
   midi.NoteOnEvent(tick=0, channel=4, data=[65, 127]),
   midi.NoteOffEvent(tick=360, channel=4, data=[68, 80]),
   midi.NoteOffEvent(tick=0, channel=4, data=[65, 80]),
   midi.NoteOnEvent(tick=0, channel=4, data=[67, 127]),
   midi.NoteOnEvent(tick=0, channel=4, data=[63, 127]),
   midi.NoteOffEvent(tick=240, channel=4, data=[67, 80]),
   midi.NoteOffEvent(tick=0, channel=4, data=[63, 80]),
   midi.NoteOnEvent(tick=0, channel=4, data=[65, 127]),
   midi.NoteOnEvent(tick=0, channel=4, data=[61, 127]),
   midi.NoteOffEvent(tick=840, channel=4, data=[65, 80]),
   midi.NoteOffEvent(tick=0, channel=4, data=[61, 80]),
   midi.NoteOnEvent(tick=120, channel=4, data=[67, 127]),
   midi.NoteOnEvent(tick=0, channel=4, data=[63, 127]),
   midi.NoteOffEvent(tick=360, channel=4, data=[67, 80]),
   midi.NoteOffEvent(tick=0, channel=4, data=[63, 80]),
   midi.NoteOnEvent(tick=0, channel=4, data=[68, 127]),
   midi.NoteOnEvent(tick=0, channel=4, data=[65, 127]),
   midi.NoteOffEvent(tick=360, channel=4, data=[68, 80]),
   midi.NoteOffEvent(tick=0, channel=4, data=[65, 80]),
   midi.NoteOnEvent(tick=0, channel=4, data=[70, 127]),
   midi.NoteOnEvent(tick=0, channel=4, data=[67, 127]),
   midi.NoteOffEvent(tick=240, channel=4, data=[70, 80]),
   midi.NoteOffEvent(tick=0, channel=4, data=[67, 80]),
   midi.NoteOnEvent(tick=0, channel=4, data=[70, 127]),
   midi.NoteOnEvent(tick=0, channel=4, data=[65, 127]),
   midi.NoteOffEvent(tick=600, channel=4, data=[70, 80]),
   midi.NoteOffEvent(tick=0, channel=4, data=[65, 80]),
   midi.NoteOnEvent(tick=120, channel=4, data=[69, 127]),
   midi.NoteOnEvent(tick=0, channel=4, data=[65, 127]),
   midi.NoteOffEvent(tick=1080, channel=4, data=[69, 80]),
   midi.NoteOffEvent(tick=0, channel=4, data=[65, 80]),
   midi.NoteOnEvent(tick=120, channel=4, data=[84, 127]),
   midi.NoteOnEvent(tick=0, channel=4, data=[72, 79]),
   midi.NoteOffEvent(tick=240, channel=4, data=[84, 80]),
   midi.NoteOffEvent(tick=0, channel=4, data=[72, 80]),
   midi.NoteOnEvent(tick=0, channel=4, data=[82, 127]),
   midi.NoteOnEvent(tick=0, channel=4, data=[70, 79]),
   midi.NoteOffEvent(tick=240, channel=4, data=[82, 80]),
   midi.NoteOffEvent(tick=0, channel=4, data=[70, 80]),
   midi.NoteOnEvent(tick=0, channel=4, data=[80, 127]),
   midi.NoteOnEvent(tick=0, channel=4, data=[68, 79]),
   midi.NoteOffEvent(tick=240, channel=4, data=[80, 80]),
   midi.NoteOffEvent(tick=0, channel=4, data=[68, 80]),
   midi.NoteOnEvent(tick=0, channel=4, data=[79, 127]),
   midi.NoteOnEvent(tick=0, channel=4, data=[67, 79]),
   midi.NoteOffEvent(tick=240, channel=4, data=[79, 80]),
   midi.NoteOffEvent(tick=0, channel=4, data=[67, 80]),
   midi.NoteOnEvent(tick=0, channel=4, data=[80, 127]),
   midi.NoteOnEvent(tick=0, channel=4, data=[68, 79]),
   midi.NoteOffEvent(tick=240, channel=4, data=[80, 80]),
   midi.NoteOffEvent(tick=0, channel=4, data=[68, 80]),
   midi.NoteOnEvent(tick=0, channel=4, data=[77, 127]),
   midi.NoteOnEvent(tick=0, channel=4, data=[65, 79]),
   midi.NoteOffEvent(tick=240, channel=4, data=[77, 80]),
   midi.NoteOffEvent(tick=0, channel=4, data=[65, 80]),
   midi.NoteOnEvent(tick=0, channel=4, data=[79, 127]),
   midi.NoteOnEvent(tick=0, channel=4, data=[67, 79]),
   midi.NoteOffEvent(tick=960, channel=4, data=[79, 80]),
   midi.NoteOffEvent(tick=0, channel=4, data=[67, 80]),
   midi.NoteOnEvent(tick=0, channel=4, data=[80, 127]),
   midi.NoteOnEvent(tick=0, channel=4, data=[68, 79]),
   midi.NoteOffEvent(tick=240, channel=4, data=[80, 80]),
   midi.NoteOffEvent(tick=0, channel=4, data=[68, 80]),
   midi.NoteOnEvent(tick=0, channel=4, data=[82, 127]),
   midi.NoteOnEvent(tick=0, channel=4, data=[70, 79]),
   midi.NoteOffEvent(tick=240, channel=4, data=[82, 80]),
   midi.NoteOffEvent(tick=0, channel=4, data=[70, 80]),
   midi.NoteOnEvent(tick=0, channel=4, data=[84, 127]),
   midi.NoteOnEvent(tick=0, channel=4, data=[72, 79]),
   midi.NoteOffEvent(tick=240, channel=4, data=[84, 80]),
   midi.NoteOffEvent(tick=0, channel=4, data=[72, 80]),
   midi.NoteOnEvent(tick=0, channel=4, data=[82, 127]),
   midi.NoteOnEvent(tick=0, channel=4, data=[70, 79]),
   midi.NoteOffEvent(tick=240, channel=4, data=[82, 80]),
   midi.NoteOffEvent(tick=0, channel=4, data=[70, 80]),
   midi.NoteOnEvent(tick=0, channel=4, data=[80, 127]),
   midi.NoteOnEvent(tick=0, channel=4, data=[68, 79]),
   midi.NoteOffEvent(tick=240, channel=4, data=[80, 80]),
   midi.NoteOffEvent(tick=0, channel=4, data=[68, 80]),
   midi.NoteOnEvent(tick=0, channel=4, data=[79, 127]),
   midi.NoteOnEvent(tick=0, channel=4, data=[67, 79]),
   midi.NoteOffEvent(tick=240, channel=4, data=[79, 80]),
   midi.NoteOffEvent(tick=0, channel=4, data=[67, 80]),
   midi.NoteOnEvent(tick=0, channel=4, data=[77, 127]),
   midi.NoteOnEvent(tick=0, channel=4, data=[65, 79]),
   midi.NoteOffEvent(tick=240, channel=4, data=[77, 80]),
   midi.NoteOffEvent(tick=0, channel=4, data=[65, 80]),
   midi.NoteOnEvent(tick=0, channel=4, data=[79, 127]),
   midi.NoteOnEvent(tick=0, channel=4, data=[67, 79]),
   midi.NoteOffEvent(tick=240, channel=4, data=[79, 80]),
   midi.NoteOffEvent(tick=0, channel=4, data=[67, 80]),
   midi.NoteOnEvent(tick=0, channel=4, data=[80, 127]),
   midi.NoteOnEvent(tick=0, channel=4, data=[68, 79]),
   midi.NoteOffEvent(tick=240, channel=4, data=[80, 80]),
   midi.NoteOffEvent(tick=0, channel=4, data=[68, 80]),
   midi.NoteOnEvent(tick=0, channel=4, data=[82, 127]),
   midi.NoteOnEvent(tick=0, channel=4, data=[70, 79]),
   midi.NoteOffEvent(tick=240, channel=4, data=[82, 80]),
   midi.NoteOffEvent(tick=0, channel=4, data=[70, 80]),
   midi.NoteOnEvent(tick=0, channel=4, data=[80, 127]),
   midi.NoteOnEvent(tick=0, channel=4, data=[68, 79]),
   midi.NoteOffEvent(tick=240, channel=4, data=[80, 80]),
   midi.NoteOffEvent(tick=0, channel=4, data=[68, 80]),
   midi.NoteOnEvent(tick=0, channel=4, data=[82, 127]),
   midi.NoteOnEvent(tick=0, channel=4, data=[70, 79]),
   midi.NoteOffEvent(tick=240, channel=4, data=[82, 80]),
   midi.NoteOffEvent(tick=0, channel=4, data=[70, 80]),
   midi.NoteOnEvent(tick=0, channel=4, data=[77, 127]),
   midi.NoteOnEvent(tick=0, channel=4, data=[65, 79]),
   midi.NoteOffEvent(tick=960, channel=4, data=[77, 80]),
   midi.NoteOffEvent(tick=0, channel=4, data=[65, 80]),
   midi.NoteOnEvent(tick=0, channel=4, data=[77, 127]),
   midi.NoteOnEvent(tick=0, channel=4, data=[65, 79]),
   midi.NoteOffEvent(tick=360, channel=4, data=[77, 80]),
   midi.NoteOffEvent(tick=0, channel=4, data=[65, 80]),
   midi.NoteOnEvent(tick=120, channel=4, data=[75, 127]),
   midi.NoteOnEvent(tick=0, channel=4, data=[63, 79]),
   midi.NoteOffEvent(tick=360, channel=4, data=[75, 80]),
   midi.NoteOffEvent(tick=0, channel=4, data=[63, 80]),
   midi.NoteOnEvent(tick=120, channel=4, data=[77, 127]),
   midi.NoteOnEvent(tick=0, channel=4, data=[65, 79]),
   midi.NoteOffEvent(tick=360, channel=4, data=[77, 80]),
   midi.NoteOffEvent(tick=0, channel=4, data=[65, 80]),
   midi.NoteOnEvent(tick=120, channel=4, data=[77, 127]),
   midi.NoteOnEvent(tick=0, channel=4, data=[65, 79]),
   midi.NoteOffEvent(tick=240, channel=4, data=[77, 80]),
   midi.NoteOffEvent(tick=0, channel=4, data=[65, 80]),
   midi.NoteOnEvent(tick=0, channel=4, data=[75, 127]),
   midi.NoteOnEvent(tick=0, channel=4, data=[63, 79]),
   midi.NoteOffEvent(tick=240, channel=4, data=[75, 80]),
   midi.NoteOffEvent(tick=0, channel=4, data=[63, 80]),
   midi.NoteOnEvent(tick=0, channel=4, data=[77, 127]),
   midi.NoteOnEvent(tick=0, channel=4, data=[65, 79]),
   midi.NoteOffEvent(tick=240, channel=4, data=[77, 80]),
   midi.NoteOffEvent(tick=0, channel=4, data=[65, 80]),
   midi.NoteOnEvent(tick=0, channel=4, data=[80, 127]),
   midi.NoteOnEvent(tick=0, channel=4, data=[68, 79]),
   midi.NoteOffEvent(tick=240, channel=4, data=[80, 80]),
   midi.NoteOffEvent(tick=0, channel=4, data=[68, 80]),
   midi.NoteOnEvent(tick=0, channel=4, data=[79, 127]),
   midi.NoteOnEvent(tick=0, channel=4, data=[67, 79]),
   midi.NoteOffEvent(tick=240, channel=4, data=[79, 80]),
   midi.NoteOffEvent(tick=0, channel=4, data=[67, 80]),
   midi.NoteOnEvent(tick=0, channel=4, data=[75, 127]),
   midi.NoteOnEvent(tick=0, channel=4, data=[63, 79]),
   midi.NoteOffEvent(tick=240, channel=4, data=[75, 80]),
   midi.NoteOffEvent(tick=0, channel=4, data=[63, 80]),
   midi.NoteOnEvent(tick=0, channel=4, data=[72, 127]),
   midi.NoteOnEvent(tick=0, channel=4, data=[60, 79]),
   midi.NoteOffEvent(tick=720, channel=4, data=[72, 80]),
   midi.NoteOffEvent(tick=0, channel=4, data=[60, 80]),
   midi.NoteOnEvent(tick=0, channel=4, data=[77, 127]),
   midi.NoteOnEvent(tick=0, channel=4, data=[65, 79]),
   midi.NoteOffEvent(tick=240, channel=4, data=[77, 80]),
   midi.NoteOffEvent(tick=0, channel=4, data=[65, 80]),
   midi.NoteOnEvent(tick=0, channel=4, data=[75, 127]),
   midi.NoteOnEvent(tick=0, channel=4, data=[63, 79]),
   midi.NoteOffEvent(tick=240, channel=4, data=[75, 80]),
   midi.NoteOffEvent(tick=0, channel=4, data=[63, 80]),
   midi.NoteOnEvent(tick=0, channel=4, data=[77, 127]),
   midi.NoteOnEvent(tick=0, channel=4, data=[65, 79]),
   midi.NoteOffEvent(tick=240, channel=4, data=[77, 80]),
   midi.NoteOffEvent(tick=0, channel=4, data=[65, 80]),
   midi.NoteOnEvent(tick=0, channel=4, data=[79, 127]),
   midi.NoteOnEvent(tick=0, channel=4, data=[67, 79]),
   midi.NoteOffEvent(tick=240, channel=4, data=[79, 80]),
   midi.NoteOffEvent(tick=0, channel=4, data=[67, 80]),
   midi.NoteOnEvent(tick=0, channel=4, data=[80, 127]),
   midi.NoteOnEvent(tick=0, channel=4, data=[68, 79]),
   midi.NoteOffEvent(tick=240, channel=4, data=[80, 80]),
   midi.NoteOffEvent(tick=0, channel=4, data=[68, 80]),
   midi.NoteOnEvent(tick=0, channel=4, data=[82, 127]),
   midi.NoteOnEvent(tick=0, channel=4, data=[70, 79]),
   midi.NoteOffEvent(tick=240, channel=4, data=[82, 80]),
   midi.NoteOffEvent(tick=0, channel=4, data=[70, 80]),
   midi.NoteOnEvent(tick=0, channel=4, data=[84, 127]),
   midi.NoteOnEvent(tick=0, channel=4, data=[72, 79]),
   midi.NoteOffEvent(tick=240, channel=4, data=[84, 80]),
   midi.NoteOffEvent(tick=0, channel=4, data=[72, 80]),
   midi.NoteOnEvent(tick=0, channel=4, data=[82, 127]),
   midi.NoteOnEvent(tick=0, channel=4, data=[70, 79]),
   midi.NoteOffEvent(tick=720, channel=4, data=[82, 80]),
   midi.NoteOffEvent(tick=0, channel=4, data=[70, 80]),
   midi.NoteOnEvent(tick=0, channel=4, data=[80, 127]),
   midi.NoteOnEvent(tick=0, channel=4, data=[68, 79]),
   midi.NoteOffEvent(tick=480, channel=4, data=[80, 80]),
   midi.NoteOffEvent(tick=0, channel=4, data=[68, 80]),
   midi.NoteOnEvent(tick=0, channel=4, data=[79, 127]),
   midi.NoteOnEvent(tick=0, channel=4, data=[67, 79]),
   midi.NoteOffEvent(tick=240, channel=4, data=[79, 80]),
   midi.NoteOffEvent(tick=0, channel=4, data=[67, 80]),
   midi.NoteOnEvent(tick=0, channel=4, data=[77, 127]),
   midi.NoteOnEvent(tick=0, channel=4, data=[65, 79]),
   midi.NoteOffEvent(tick=2400, channel=4, data=[77, 80]),
   midi.NoteOffEvent(tick=0, channel=4, data=[65, 80]),
   midi.NoteOnEvent(tick=15360, channel=4, data=[68, 127]),
   midi.NoteOnEvent(tick=0, channel=4, data=[65, 127]),
   midi.NoteOffEvent(tick=840, channel=4, data=[68, 80]),
   midi.NoteOffEvent(tick=0, channel=4, data=[65, 80]),
   midi.NoteOnEvent(tick=120, channel=4, data=[72, 127]),
   midi.NoteOnEvent(tick=0, channel=4, data=[68, 127]),
   midi.NoteOffEvent(tick=360, channel=4, data=[72, 80]),
   midi.NoteOffEvent(tick=0, channel=4, data=[68, 80]),
   midi.NoteOnEvent(tick=0, channel=4, data=[70, 127]),
   midi.NoteOnEvent(tick=0, channel=4, data=[67, 127]),
   midi.NoteOffEvent(tick=360, channel=4, data=[70, 80]),
   midi.NoteOffEvent(tick=0, channel=4, data=[67, 80]),
   midi.NoteOnEvent(tick=0, channel=4, data=[68, 127]),
   midi.NoteOnEvent(tick=0, channel=4, data=[65, 127]),
   midi.NoteOffEvent(tick=240, channel=4, data=[68, 80]),
   midi.NoteOffEvent(tick=0, channel=4, data=[65, 80]),
   midi.NoteOnEvent(tick=0, channel=4, data=[67, 127]),
   midi.NoteOnEvent(tick=0, channel=4, data=[63, 127]),
   midi.NoteOffEvent(tick=840, channel=4, data=[67, 80]),
   midi.NoteOffEvent(tick=0, channel=4, data=[63, 80]),
   midi.NoteOnEvent(tick=120, channel=4, data=[70, 127]),
   midi.NoteOnEvent(tick=0, channel=4, data=[67, 127]),
   midi.NoteOffEvent(tick=360, channel=4, data=[70, 80]),
   midi.NoteOffEvent(tick=0, channel=4, data=[67, 80]),
   midi.NoteOnEvent(tick=0, channel=4, data=[68, 127]),
   midi.NoteOnEvent(tick=0, channel=4, data=[65, 127]),
   midi.NoteOffEvent(tick=360, channel=4, data=[68, 80]),
   midi.NoteOffEvent(tick=0, channel=4, data=[65, 80]),
   midi.NoteOnEvent(tick=0, channel=4, data=[67, 127]),
   midi.NoteOnEvent(tick=0, channel=4, data=[63, 127]),
   midi.NoteOffEvent(tick=240, channel=4, data=[67, 80]),
   midi.NoteOffEvent(tick=0, channel=4, data=[63, 80]),
   midi.NoteOnEvent(tick=0, channel=4, data=[65, 127]),
   midi.NoteOnEvent(tick=0, channel=4, data=[61, 127]),
   midi.NoteOffEvent(tick=840, channel=4, data=[65, 80]),
   midi.NoteOffEvent(tick=0, channel=4, data=[61, 80]),
   midi.NoteOnEvent(tick=120, channel=4, data=[67, 127]),
   midi.NoteOnEvent(tick=0, channel=4, data=[63, 127]),
   midi.NoteOffEvent(tick=360, channel=4, data=[67, 80]),
   midi.NoteOffEvent(tick=0, channel=4, data=[63, 80]),
   midi.NoteOnEvent(tick=0, channel=4, data=[68, 127]),
   midi.NoteOnEvent(tick=0, channel=4, data=[65, 127]),
   midi.NoteOffEvent(tick=360, channel=4, data=[68, 80]),
   midi.NoteOffEvent(tick=0, channel=4, data=[65, 80]),
   midi.NoteOnEvent(tick=0, channel=4, data=[70, 127]),
   midi.NoteOnEvent(tick=0, channel=4, data=[67, 127]),
   midi.NoteOffEvent(tick=240, channel=4, data=[70, 80]),
   midi.NoteOffEvent(tick=0, channel=4, data=[67, 80]),
   midi.NoteOnEvent(tick=0, channel=4, data=[68, 127]),
   midi.NoteOnEvent(tick=0, channel=4, data=[65, 127]),
   midi.NoteOffEvent(tick=720, channel=4, data=[68, 80]),
   midi.NoteOffEvent(tick=0, channel=4, data=[65, 80]),
   midi.NoteOnEvent(tick=0, channel=4, data=[65, 127]),
   midi.NoteOnEvent(tick=0, channel=4, data=[61, 127]),
   midi.NoteOffEvent(tick=1080, channel=4, data=[65, 80]),
   midi.NoteOffEvent(tick=0, channel=4, data=[61, 80]),
   midi.NoteOnEvent(tick=120, channel=4, data=[68, 127]),
   midi.NoteOnEvent(tick=0, channel=4, data=[65, 127]),
   midi.NoteOffEvent(tick=840, channel=4, data=[68, 80]),
   midi.NoteOffEvent(tick=0, channel=4, data=[65, 80]),
   midi.NoteOnEvent(tick=120, channel=4, data=[72, 127]),
   midi.NoteOnEvent(tick=0, channel=4, data=[68, 127]),
   midi.NoteOffEvent(tick=360, channel=4, data=[72, 80]),
   midi.NoteOffEvent(tick=0, channel=4, data=[68, 80]),
   midi.NoteOnEvent(tick=0, channel=4, data=[70, 127]),
   midi.NoteOnEvent(tick=0, channel=4, data=[67, 127]),
   midi.NoteOffEvent(tick=360, channel=4, data=[70, 80]),
   midi.NoteOffEvent(tick=0, channel=4, data=[67, 80]),
   midi.NoteOnEvent(tick=0, channel=4, data=[68, 127]),
   midi.NoteOnEvent(tick=0, channel=4, data=[65, 127]),
   midi.NoteOffEvent(tick=240, channel=4, data=[68, 80]),
   midi.NoteOffEvent(tick=0, channel=4, data=[65, 80]),
   midi.NoteOnEvent(tick=0, channel=4, data=[67, 127]),
   midi.NoteOnEvent(tick=0, channel=4, data=[63, 127]),
   midi.NoteOffEvent(tick=840, channel=4, data=[67, 80]),
   midi.NoteOffEvent(tick=0, channel=4, data=[63, 80]),
   midi.NoteOnEvent(tick=120, channel=4, data=[70, 127]),
   midi.NoteOnEvent(tick=0, channel=4, data=[67, 127]),
   midi.NoteOffEvent(tick=360, channel=4, data=[70, 80]),
   midi.NoteOffEvent(tick=0, channel=4, data=[67, 80]),
   midi.NoteOnEvent(tick=0, channel=4, data=[68, 127]),
   midi.NoteOnEvent(tick=0, channel=4, data=[65, 127]),
   midi.NoteOffEvent(tick=360, channel=4, data=[68, 80]),
   midi.NoteOffEvent(tick=0, channel=4, data=[65, 80]),
   midi.NoteOnEvent(tick=0, channel=4, data=[67, 127]),
   midi.NoteOnEvent(tick=0, channel=4, data=[63, 127]),
   midi.NoteOffEvent(tick=240, channel=4, data=[67, 80]),
   midi.NoteOffEvent(tick=0, channel=4, data=[63, 80]),
   midi.NoteOnEvent(tick=0, channel=4, data=[65, 127]),
   midi.NoteOnEvent(tick=0, channel=4, data=[61, 127]),
   midi.NoteOffEvent(tick=840, channel=4, data=[65, 80]),
   midi.NoteOffEvent(tick=0, channel=4, data=[61, 80]),
   midi.NoteOnEvent(tick=120, channel=4, data=[67, 127]),
   midi.NoteOnEvent(tick=0, channel=4, data=[63, 127]),
   midi.NoteOffEvent(tick=360, channel=4, data=[67, 80]),
   midi.NoteOffEvent(tick=0, channel=4, data=[63, 80]),
   midi.NoteOnEvent(tick=0, channel=4, data=[68, 127]),
   midi.NoteOnEvent(tick=0, channel=4, data=[65, 127]),
   midi.NoteOffEvent(tick=360, channel=4, data=[68, 80]),
   midi.NoteOffEvent(tick=0, channel=4, data=[65, 80]),
   midi.NoteOnEvent(tick=0, channel=4, data=[70, 127]),
   midi.NoteOnEvent(tick=0, channel=4, data=[67, 127]),
   midi.NoteOffEvent(tick=240, channel=4, data=[70, 80]),
   midi.NoteOffEvent(tick=0, channel=4, data=[67, 80]),
   midi.NoteOnEvent(tick=0, channel=4, data=[70, 127]),
   midi.NoteOnEvent(tick=0, channel=4, data=[65, 127]),
   midi.NoteOffEvent(tick=600, channel=4, data=[70, 80]),
   midi.NoteOffEvent(tick=0, channel=4, data=[65, 80]),
   midi.NoteOnEvent(tick=120, channel=4, data=[69, 127]),
   midi.NoteOnEvent(tick=0, channel=4, data=[65, 127]),
   midi.NoteOffEvent(tick=1080, channel=4, data=[69, 80]),
   midi.NoteOffEvent(tick=0, channel=4, data=[65, 80]),
   midi.NoteOnEvent(tick=120, channel=4, data=[84, 127]),
   midi.NoteOnEvent(tick=0, channel=4, data=[72, 79]),
   midi.NoteOffEvent(tick=240, channel=4, data=[84, 80]),
   midi.NoteOffEvent(tick=0, channel=4, data=[72, 80]),
   midi.NoteOnEvent(tick=0, channel=4, data=[82, 127]),
   midi.NoteOnEvent(tick=0, channel=4, data=[70, 79]),
   midi.NoteOffEvent(tick=240, channel=4, data=[82, 80]),
   midi.NoteOffEvent(tick=0, channel=4, data=[70, 80]),
   midi.NoteOnEvent(tick=0, channel=4, data=[80, 127]),
   midi.NoteOnEvent(tick=0, channel=4, data=[68, 79]),
   midi.NoteOffEvent(tick=240, channel=4, data=[80, 80]),
   midi.NoteOffEvent(tick=0, channel=4, data=[68, 80]),
   midi.NoteOnEvent(tick=0, channel=4, data=[79, 127]),
   midi.NoteOnEvent(tick=0, channel=4, data=[67, 79]),
   midi.NoteOffEvent(tick=240, channel=4, data=[79, 80]),
   midi.NoteOffEvent(tick=0, channel=4, data=[67, 80]),
   midi.NoteOnEvent(tick=0, channel=4, data=[80, 127]),
   midi.NoteOnEvent(tick=0, channel=4, data=[68, 79]),
   midi.NoteOffEvent(tick=240, channel=4, data=[80, 80]),
   midi.NoteOffEvent(tick=0, channel=4, data=[68, 80]),
   midi.NoteOnEvent(tick=0, channel=4, data=[77, 127]),
   midi.NoteOnEvent(tick=0, channel=4, data=[65, 79]),
   midi.NoteOffEvent(tick=240, channel=4, data=[77, 80]),
   midi.NoteOffEvent(tick=0, channel=4, data=[65, 80]),
   midi.NoteOnEvent(tick=0, channel=4, data=[79, 127]),
   midi.NoteOnEvent(tick=0, channel=4, data=[67, 79]),
   midi.NoteOffEvent(tick=960, channel=4, data=[79, 80]),
   midi.NoteOffEvent(tick=0, channel=4, data=[67, 80]),
   midi.NoteOnEvent(tick=0, channel=4, data=[80, 127]),
   midi.NoteOnEvent(tick=0, channel=4, data=[68, 79]),
   midi.NoteOffEvent(tick=240, channel=4, data=[80, 80]),
   midi.NoteOffEvent(tick=0, channel=4, data=[68, 80]),
   midi.NoteOnEvent(tick=0, channel=4, data=[82, 127]),
   midi.NoteOnEvent(tick=0, channel=4, data=[70, 79]),
   midi.NoteOffEvent(tick=240, channel=4, data=[82, 80]),
   midi.NoteOffEvent(tick=0, channel=4, data=[70, 80]),
   midi.NoteOnEvent(tick=0, channel=4, data=[84, 127]),
   midi.NoteOnEvent(tick=0, channel=4, data=[72, 79]),
   midi.NoteOffEvent(tick=240, channel=4, data=[84, 80]),
   midi.NoteOffEvent(tick=0, channel=4, data=[72, 80]),
   midi.NoteOnEvent(tick=0, channel=4, data=[82, 127]),
   midi.NoteOnEvent(tick=0, channel=4, data=[70, 79]),
   midi.NoteOffEvent(tick=240, channel=4, data=[82, 80]),
   midi.NoteOffEvent(tick=0, channel=4, data=[70, 80]),
   midi.NoteOnEvent(tick=0, channel=4, data=[80, 127]),
   midi.NoteOnEvent(tick=0, channel=4, data=[68, 79]),
   midi.NoteOffEvent(tick=240, channel=4, data=[80, 80]),
   midi.NoteOffEvent(tick=0, channel=4, data=[68, 80]),
   midi.NoteOnEvent(tick=0, channel=4, data=[79, 127]),
   midi.NoteOnEvent(tick=0, channel=4, data=[67, 79]),
   midi.NoteOffEvent(tick=240, channel=4, data=[79, 80]),
   midi.NoteOffEvent(tick=0, channel=4, data=[67, 80]),
   midi.NoteOnEvent(tick=0, channel=4, data=[77, 127]),
   midi.NoteOnEvent(tick=0, channel=4, data=[65, 79]),
   midi.NoteOffEvent(tick=240, channel=4, data=[77, 80]),
   midi.NoteOffEvent(tick=0, channel=4, data=[65, 80]),
   midi.NoteOnEvent(tick=0, channel=4, data=[79, 127]),
   midi.NoteOnEvent(tick=0, channel=4, data=[67, 79]),
   midi.NoteOffEvent(tick=240, channel=4, data=[79, 80]),
   midi.NoteOffEvent(tick=0, channel=4, data=[67, 80]),
   midi.NoteOnEvent(tick=0, channel=4, data=[80, 127]),
   midi.NoteOnEvent(tick=0, channel=4, data=[68, 79]),
   midi.NoteOffEvent(tick=240, channel=4, data=[80, 80]),
   midi.NoteOffEvent(tick=0, channel=4, data=[68, 80]),
   midi.NoteOnEvent(tick=0, channel=4, data=[82, 127]),
   midi.NoteOnEvent(tick=0, channel=4, data=[70, 79]),
   midi.NoteOffEvent(tick=240, channel=4, data=[82, 80]),
   midi.NoteOffEvent(tick=0, channel=4, data=[70, 80]),
   midi.NoteOnEvent(tick=0, channel=4, data=[80, 127]),
   midi.NoteOnEvent(tick=0, channel=4, data=[68, 79]),
   midi.NoteOffEvent(tick=240, channel=4, data=[80, 80]),
   midi.NoteOffEvent(tick=0, channel=4, data=[68, 80]),
   midi.NoteOnEvent(tick=0, channel=4, data=[82, 127]),
   midi.NoteOnEvent(tick=0, channel=4, data=[70, 79]),
   midi.NoteOffEvent(tick=240, channel=4, data=[82, 80]),
   midi.NoteOffEvent(tick=0, channel=4, data=[70, 80]),
   midi.NoteOnEvent(tick=0, channel=4, data=[77, 127]),
   midi.NoteOnEvent(tick=0, channel=4, data=[65, 79]),
   midi.NoteOffEvent(tick=960, channel=4, data=[77, 80]),
   midi.NoteOffEvent(tick=0, channel=4, data=[65, 80]),
   midi.NoteOnEvent(tick=0, channel=4, data=[77, 127]),
   midi.NoteOnEvent(tick=0, channel=4, data=[65, 79]),
   midi.NoteOffEvent(tick=360, channel=4, data=[77, 80]),
   midi.NoteOffEvent(tick=0, channel=4, data=[65, 80]),
   midi.NoteOnEvent(tick=120, channel=4, data=[75, 127]),
   midi.NoteOnEvent(tick=0, channel=4, data=[63, 79]),
   midi.NoteOffEvent(tick=360, channel=4, data=[75, 80]),
   midi.NoteOffEvent(tick=0, channel=4, data=[63, 80]),
   midi.NoteOnEvent(tick=120, channel=4, data=[77, 127]),
   midi.NoteOnEvent(tick=0, channel=4, data=[65, 79]),
   midi.NoteOffEvent(tick=360, channel=4, data=[77, 80]),
   midi.NoteOffEvent(tick=0, channel=4, data=[65, 80]),
   midi.NoteOnEvent(tick=120, channel=4, data=[77, 127]),
   midi.NoteOnEvent(tick=0, channel=4, data=[65, 79]),
   midi.NoteOffEvent(tick=240, channel=4, data=[77, 80]),
   midi.NoteOffEvent(tick=0, channel=4, data=[65, 80]),
   midi.NoteOnEvent(tick=0, channel=4, data=[75, 127]),
   midi.NoteOnEvent(tick=0, channel=4, data=[63, 79]),
   midi.NoteOffEvent(tick=240, channel=4, data=[75, 80]),
   midi.NoteOffEvent(tick=0, channel=4, data=[63, 80]),
   midi.NoteOnEvent(tick=0, channel=4, data=[77, 127]),
   midi.NoteOnEvent(tick=0, channel=4, data=[65, 79]),
   midi.NoteOffEvent(tick=240, channel=4, data=[77, 80]),
   midi.NoteOffEvent(tick=0, channel=4, data=[65, 80]),
   midi.NoteOnEvent(tick=0, channel=4, data=[80, 127]),
   midi.NoteOnEvent(tick=0, channel=4, data=[68, 79]),
   midi.NoteOffEvent(tick=240, channel=4, data=[80, 80]),
   midi.NoteOffEvent(tick=0, channel=4, data=[68, 80]),
   midi.NoteOnEvent(tick=0, channel=4, data=[79, 127]),
   midi.NoteOnEvent(tick=0, channel=4, data=[67, 79]),
   midi.NoteOffEvent(tick=240, channel=4, data=[79, 80]),
   midi.NoteOffEvent(tick=0, channel=4, data=[67, 80]),
   midi.NoteOnEvent(tick=0, channel=4, data=[75, 127]),
   midi.NoteOnEvent(tick=0, channel=4, data=[63, 79]),
   midi.NoteOffEvent(tick=240, channel=4, data=[75, 80]),
   midi.NoteOffEvent(tick=0, channel=4, data=[63, 80]),
   midi.NoteOnEvent(tick=0, channel=4, data=[72, 127]),
   midi.NoteOnEvent(tick=0, channel=4, data=[60, 79]),
   midi.NoteOffEvent(tick=720, channel=4, data=[72, 80]),
   midi.NoteOffEvent(tick=0, channel=4, data=[60, 80]),
   midi.NoteOnEvent(tick=0, channel=4, data=[77, 127]),
   midi.NoteOnEvent(tick=0, channel=4, data=[65, 79]),
   midi.NoteOffEvent(tick=240, channel=4, data=[77, 80]),
   midi.NoteOffEvent(tick=0, channel=4, data=[65, 80]),
   midi.NoteOnEvent(tick=0, channel=4, data=[75, 127]),
   midi.NoteOnEvent(tick=0, channel=4, data=[63, 79]),
   midi.NoteOffEvent(tick=240, channel=4, data=[75, 80]),
   midi.NoteOffEvent(tick=0, channel=4, data=[63, 80]),
   midi.NoteOnEvent(tick=0, channel=4, data=[77, 127]),
   midi.NoteOnEvent(tick=0, channel=4, data=[65, 79]),
   midi.NoteOffEvent(tick=240, channel=4, data=[77, 80]),
   midi.NoteOffEvent(tick=0, channel=4, data=[65, 80]),
   midi.NoteOnEvent(tick=0, channel=4, data=[79, 127]),
   midi.NoteOnEvent(tick=0, channel=4, data=[67, 79]),
   midi.NoteOffEvent(tick=240, channel=4, data=[79, 80]),
   midi.NoteOffEvent(tick=0, channel=4, data=[67, 80]),
   midi.NoteOnEvent(tick=0, channel=4, data=[80, 127]),
   midi.NoteOnEvent(tick=0, channel=4, data=[68, 79]),
   midi.NoteOffEvent(tick=240, channel=4, data=[80, 80]),
   midi.NoteOffEvent(tick=0, channel=4, data=[68, 80]),
   midi.NoteOnEvent(tick=0, channel=4, data=[82, 127]),
   midi.NoteOnEvent(tick=0, channel=4, data=[70, 79]),
   midi.NoteOffEvent(tick=240, channel=4, data=[82, 80]),
   midi.NoteOffEvent(tick=0, channel=4, data=[70, 80]),
   midi.NoteOnEvent(tick=0, channel=4, data=[84, 127]),
   midi.NoteOnEvent(tick=0, channel=4, data=[72, 79]),
   midi.NoteOffEvent(tick=240, channel=4, data=[84, 80]),
   midi.NoteOffEvent(tick=0, channel=4, data=[72, 80]),
   midi.NoteOnEvent(tick=0, channel=4, data=[82, 127]),
   midi.NoteOnEvent(tick=0, channel=4, data=[70, 79]),
   midi.NoteOffEvent(tick=720, channel=4, data=[82, 80]),
   midi.NoteOffEvent(tick=0, channel=4, data=[70, 80]),
   midi.NoteOnEvent(tick=0, channel=4, data=[80, 127]),
   midi.NoteOnEvent(tick=0, channel=4, data=[68, 79]),
   midi.NoteOffEvent(tick=480, channel=4, data=[80, 80]),
   midi.NoteOffEvent(tick=0, channel=4, data=[68, 80]),
   midi.NoteOnEvent(tick=0, channel=4, data=[79, 127]),
   midi.NoteOnEvent(tick=0, channel=4, data=[67, 79]),
   midi.NoteOffEvent(tick=240, channel=4, data=[79, 80]),
   midi.NoteOffEvent(tick=0, channel=4, data=[67, 80]),
   midi.NoteOnEvent(tick=0, channel=4, data=[77, 127]),
   midi.NoteOnEvent(tick=0, channel=4, data=[65, 79]),
   midi.NoteOffEvent(tick=2400, channel=4, data=[77, 80]),
   midi.NoteOffEvent(tick=0, channel=4, data=[65, 80]),
   midi.EndOfTrackEvent(tick=0, data=[])]),
 midi.Track(\
  [midi.TrackNameEvent(tick=0, text='Oboe Echo', data=[79, 98, 111, 101, 32, 69, 99, 104, 111]),
   midi.ControlChangeEvent(tick=0, channel=5, data=[100, 0]),
   midi.ControlChangeEvent(tick=0, channel=5, data=[101, 0]),
   midi.ControlChangeEvent(tick=0, channel=5, data=[6, 12]),
   midi.PitchWheelEvent(tick=0, channel=5, data=[0, 64]),
   midi.ControlChangeEvent(tick=0, channel=5, data=[101, 0]),
   midi.ControlChangeEvent(tick=0, channel=5, data=[100, 1]),
   midi.ControlChangeEvent(tick=0, channel=5, data=[6, 64]),
   midi.ControlChangeEvent(tick=0, channel=5, data=[38, 0]),
   midi.ControlChangeEvent(tick=0, channel=5, data=[101, 127]),
   midi.ControlChangeEvent(tick=0, channel=5, data=[100, 127]),
   midi.ControlChangeEvent(tick=0, channel=5, data=[101, 0]),
   midi.ControlChangeEvent(tick=0, channel=5, data=[100, 2]),
   midi.ControlChangeEvent(tick=0, channel=5, data=[6, 64]),
   midi.ControlChangeEvent(tick=0, channel=5, data=[101, 127]),
   midi.ControlChangeEvent(tick=0, channel=5, data=[100, 127]),
   midi.ProgramChangeEvent(tick=0, channel=5, data=[68]),
   midi.ControlChangeEvent(tick=0, channel=5, data=[0, 0]),
   midi.ControlChangeEvent(tick=0, channel=5, data=[7, 56]),
   midi.ControlChangeEvent(tick=0, channel=5, data=[10, 64]),
   midi.ControlChangeEvent(tick=0, channel=5, data=[93, 0]),
   midi.ControlChangeEvent(tick=0, channel=5, data=[91, 0]),
   midi.ControlChangeEvent(tick=0, channel=5, data=[92, 0]),
   midi.ControlChangeEvent(tick=0, channel=5, data=[95, 0]),
   midi.NoteOnEvent(tick=1080, channel=5, data=[72, 127]),
   midi.NoteOnEvent(tick=0, channel=5, data=[63, 127]),
   midi.NoteOffEvent(tick=240, channel=5, data=[72, 80]),
   midi.NoteOffEvent(tick=0, channel=5, data=[63, 80]),
   midi.NoteOnEvent(tick=0, channel=5, data=[74, 127]),
   midi.NoteOnEvent(tick=0, channel=5, data=[65, 127]),
   midi.NoteOffEvent(tick=240, channel=5, data=[74, 80]),
   midi.NoteOffEvent(tick=0, channel=5, data=[65, 80]),
   midi.NoteOnEvent(tick=0, channel=5, data=[75, 127]),
   midi.NoteOnEvent(tick=0, channel=5, data=[67, 127]),
   midi.NoteOffEvent(tick=720, channel=5, data=[75, 80]),
   midi.NoteOffEvent(tick=0, channel=5, data=[67, 80]),
   midi.NoteOnEvent(tick=0, channel=5, data=[77, 127]),
   midi.NoteOnEvent(tick=0, channel=5, data=[68, 127]),
   midi.NoteOffEvent(tick=240, channel=5, data=[77, 80]),
   midi.NoteOffEvent(tick=0, channel=5, data=[68, 80]),
   midi.NoteOnEvent(tick=0, channel=5, data=[75, 127]),
   midi.NoteOnEvent(tick=0, channel=5, data=[67, 127]),
   midi.NoteOffEvent(tick=240, channel=5, data=[75, 80]),
   midi.NoteOffEvent(tick=0, channel=5, data=[67, 80]),
   midi.NoteOnEvent(tick=0, channel=5, data=[74, 127]),
   midi.NoteOnEvent(tick=0, channel=5, data=[65, 127]),
   midi.NoteOffEvent(tick=240, channel=5, data=[74, 80]),
   midi.NoteOffEvent(tick=0, channel=5, data=[65, 80]),
   midi.NoteOnEvent(tick=0, channel=5, data=[72, 127]),
   midi.NoteOnEvent(tick=0, channel=5, data=[63, 127]),
   midi.NoteOffEvent(tick=240, channel=5, data=[72, 80]),
   midi.NoteOffEvent(tick=0, channel=5, data=[63, 80]),
   midi.NoteOnEvent(tick=0, channel=5, data=[70, 127]),
   midi.NoteOnEvent(tick=0, channel=5, data=[62, 127]),
   midi.NoteOffEvent(tick=240, channel=5, data=[70, 80]),
   midi.NoteOffEvent(tick=0, channel=5, data=[62, 80]),
   midi.NoteOnEvent(tick=0, channel=5, data=[72, 127]),
   midi.NoteOnEvent(tick=0, channel=5, data=[63, 127]),
   midi.NoteOffEvent(tick=240, channel=5, data=[72, 80]),
   midi.NoteOffEvent(tick=0, channel=5, data=[63, 80]),
   midi.NoteOnEvent(tick=0, channel=5, data=[60, 127]),
   midi.NoteOnEvent(tick=0, channel=5, data=[68, 127]),
   midi.NoteOffEvent(tick=1200, channel=5, data=[60, 80]),
   midi.NoteOffEvent(tick=0, channel=5, data=[68, 80]),
   midi.NoteOnEvent(tick=0, channel=5, data=[77, 127]),
   midi.NoteOnEvent(tick=0, channel=5, data=[68, 127]),
   midi.NoteOffEvent(tick=960, channel=5, data=[77, 80]),
   midi.NoteOffEvent(tick=0, channel=5, data=[68, 80]),
   midi.NoteOnEvent(tick=0, channel=5, data=[79, 127]),
   midi.NoteOnEvent(tick=0, channel=5, data=[70, 127]),
   midi.NoteOffEvent(tick=360, channel=5, data=[79, 80]),
   midi.NoteOffEvent(tick=0, channel=5, data=[70, 80]),
   midi.NoteOnEvent(tick=0, channel=5, data=[77, 127]),
   midi.NoteOnEvent(tick=0, channel=5, data=[68, 127]),
   midi.NoteOffEvent(tick=360, channel=5, data=[77, 80]),
   midi.NoteOffEvent(tick=0, channel=5, data=[68, 80]),
   midi.NoteOnEvent(tick=0, channel=5, data=[75, 127]),
   midi.NoteOnEvent(tick=0, channel=5, data=[67, 127]),
   midi.NoteOffEvent(tick=240, channel=5, data=[75, 80]),
   midi.NoteOffEvent(tick=0, channel=5, data=[67, 80]),
   midi.NoteOnEvent(tick=0, channel=5, data=[73, 127]),
   midi.NoteOnEvent(tick=0, channel=5, data=[65, 127]),
   midi.NoteOffEvent(tick=1920, channel=5, data=[73, 80]),
   midi.NoteOffEvent(tick=0, channel=5, data=[65, 80]),
   midi.NoteOnEvent(tick=240, channel=5, data=[56, 127]),
   midi.NoteOffEvent(tick=240, channel=5, data=[56, 80]),
   midi.NoteOnEvent(tick=0, channel=5, data=[63, 127]),
   midi.NoteOffEvent(tick=240, channel=5, data=[63, 80]),
   midi.NoteOnEvent(tick=0, channel=5, data=[56, 127]),
   midi.NoteOffEvent(tick=240, channel=5, data=[56, 80]),
   midi.NoteOnEvent(tick=0, channel=5, data=[68, 127]),
   midi.NoteOffEvent(tick=240, channel=5, data=[68, 80]),
   midi.NoteOnEvent(tick=0, channel=5, data=[63, 127]),
   midi.NoteOffEvent(tick=240, channel=5, data=[63, 80]),
   midi.NoteOnEvent(tick=0, channel=5, data=[60, 127]),
   midi.NoteOffEvent(tick=240, channel=5, data=[60, 80]),
   midi.NoteOnEvent(tick=0, channel=5, data=[56, 127]),
   midi.NoteOffEvent(tick=240, channel=5, data=[56, 80]),
   midi.NoteOnEvent(tick=240, channel=5, data=[58, 127]),
   midi.NoteOffEvent(tick=240, channel=5, data=[58, 80]),
   midi.NoteOnEvent(tick=0, channel=5, data=[65, 127]),
   midi.NoteOffEvent(tick=240, channel=5, data=[65, 80]),
   midi.NoteOnEvent(tick=0, channel=5, data=[58, 127]),
   midi.NoteOffEvent(tick=240, channel=5, data=[58, 80]),
   midi.NoteOnEvent(tick=0, channel=5, data=[70, 127]),
   midi.NoteOffEvent(tick=240, channel=5, data=[70, 80]),
   midi.NoteOnEvent(tick=0, channel=5, data=[65, 127]),
   midi.NoteOffEvent(tick=240, channel=5, data=[65, 80]),
   midi.NoteOnEvent(tick=0, channel=5, data=[62, 127]),
   midi.NoteOffEvent(tick=240, channel=5, data=[62, 80]),
   midi.NoteOnEvent(tick=0, channel=5, data=[58, 127]),
   midi.NoteOffEvent(tick=240, channel=5, data=[58, 80]),
   midi.NoteOnEvent(tick=240, channel=5, data=[58, 127]),
   midi.NoteOffEvent(tick=240, channel=5, data=[58, 80]),
   midi.NoteOnEvent(tick=0, channel=5, data=[65, 127]),
   midi.NoteOffEvent(tick=240, channel=5, data=[65, 80]),
   midi.NoteOnEvent(tick=0, channel=5, data=[58, 127]),
   midi.NoteOffEvent(tick=240, channel=5, data=[58, 80]),
   midi.NoteOnEvent(tick=0, channel=5, data=[70, 127]),
   midi.NoteOffEvent(tick=240, channel=5, data=[70, 80]),
   midi.NoteOnEvent(tick=0, channel=5, data=[65, 127]),
   midi.NoteOffEvent(tick=240, channel=5, data=[65, 80]),
   midi.NoteOnEvent(tick=0, channel=5, data=[62, 127]),
   midi.NoteOffEvent(tick=240, channel=5, data=[62, 80]),
   midi.NoteOnEvent(tick=0, channel=5, data=[58, 127]),
   midi.NoteOffEvent(tick=240, channel=5, data=[58, 80]),
   midi.NoteOnEvent(tick=240, channel=5, data=[60, 127]),
   midi.NoteOffEvent(tick=240, channel=5, data=[60, 80]),
   midi.NoteOnEvent(tick=0, channel=5, data=[67, 127]),
   midi.NoteOffEvent(tick=240, channel=5, data=[67, 80]),
   midi.NoteOnEvent(tick=0, channel=5, data=[60, 127]),
   midi.NoteOffEvent(tick=240, channel=5, data=[60, 80]),
   midi.NoteOnEvent(tick=0, channel=5, data=[72, 127]),
   midi.NoteOffEvent(tick=240, channel=5, data=[72, 80]),
   midi.NoteOnEvent(tick=0, channel=5, data=[67, 127]),
   midi.NoteOffEvent(tick=240, channel=5, data=[67, 80]),
   midi.NoteOnEvent(tick=0, channel=5, data=[64, 127]),
   midi.NoteOffEvent(tick=240, channel=5, data=[64, 80]),
   midi.NoteOnEvent(tick=0, channel=5, data=[60, 127]),
   midi.NoteOffEvent(tick=240, channel=5, data=[60, 80]),
   midi.NoteOnEvent(tick=30720, channel=5, data=[72, 127]),
   midi.NoteOnEvent(tick=0, channel=5, data=[63, 127]),
   midi.NoteOffEvent(tick=240, channel=5, data=[72, 80]),
   midi.NoteOffEvent(tick=0, channel=5, data=[63, 80]),
   midi.NoteOnEvent(tick=0, channel=5, data=[74, 127]),
   midi.NoteOnEvent(tick=0, channel=5, data=[65, 127]),
   midi.NoteOffEvent(tick=240, channel=5, data=[74, 80]),
   midi.NoteOffEvent(tick=0, channel=5, data=[65, 80]),
   midi.NoteOnEvent(tick=0, channel=5, data=[75, 127]),
   midi.NoteOnEvent(tick=0, channel=5, data=[67, 127]),
   midi.NoteOffEvent(tick=720, channel=5, data=[75, 80]),
   midi.NoteOffEvent(tick=0, channel=5, data=[67, 80]),
   midi.NoteOnEvent(tick=0, channel=5, data=[77, 127]),
   midi.NoteOnEvent(tick=0, channel=5, data=[68, 127]),
   midi.NoteOffEvent(tick=240, channel=5, data=[77, 80]),
   midi.NoteOffEvent(tick=0, channel=5, data=[68, 80]),
   midi.NoteOnEvent(tick=0, channel=5, data=[75, 127]),
   midi.NoteOnEvent(tick=0, channel=5, data=[67, 127]),
   midi.NoteOffEvent(tick=240, channel=5, data=[75, 80]),
   midi.NoteOffEvent(tick=0, channel=5, data=[67, 80]),
   midi.NoteOnEvent(tick=0, channel=5, data=[74, 127]),
   midi.NoteOnEvent(tick=0, channel=5, data=[65, 127]),
   midi.NoteOffEvent(tick=240, channel=5, data=[74, 80]),
   midi.NoteOffEvent(tick=0, channel=5, data=[65, 80]),
   midi.NoteOnEvent(tick=0, channel=5, data=[72, 127]),
   midi.NoteOnEvent(tick=0, channel=5, data=[63, 127]),
   midi.NoteOffEvent(tick=240, channel=5, data=[72, 80]),
   midi.NoteOffEvent(tick=0, channel=5, data=[63, 80]),
   midi.NoteOnEvent(tick=0, channel=5, data=[70, 127]),
   midi.NoteOnEvent(tick=0, channel=5, data=[62, 127]),
   midi.NoteOffEvent(tick=240, channel=5, data=[70, 80]),
   midi.NoteOffEvent(tick=0, channel=5, data=[62, 80]),
   midi.NoteOnEvent(tick=0, channel=5, data=[72, 127]),
   midi.NoteOnEvent(tick=0, channel=5, data=[63, 127]),
   midi.NoteOffEvent(tick=240, channel=5, data=[72, 80]),
   midi.NoteOffEvent(tick=0, channel=5, data=[63, 80]),
   midi.NoteOnEvent(tick=0, channel=5, data=[60, 127]),
   midi.NoteOnEvent(tick=0, channel=5, data=[68, 127]),
   midi.NoteOffEvent(tick=1200, channel=5, data=[60, 80]),
   midi.NoteOffEvent(tick=0, channel=5, data=[68, 80]),
   midi.NoteOnEvent(tick=0, channel=5, data=[77, 127]),
   midi.NoteOnEvent(tick=0, channel=5, data=[68, 127]),
   midi.NoteOffEvent(tick=960, channel=5, data=[77, 80]),
   midi.NoteOffEvent(tick=0, channel=5, data=[68, 80]),
   midi.NoteOnEvent(tick=0, channel=5, data=[79, 127]),
   midi.NoteOnEvent(tick=0, channel=5, data=[70, 127]),
   midi.NoteOffEvent(tick=360, channel=5, data=[79, 80]),
   midi.NoteOffEvent(tick=0, channel=5, data=[70, 80]),
   midi.NoteOnEvent(tick=0, channel=5, data=[77, 127]),
   midi.NoteOnEvent(tick=0, channel=5, data=[68, 127]),
   midi.NoteOffEvent(tick=360, channel=5, data=[77, 80]),
   midi.NoteOffEvent(tick=0, channel=5, data=[68, 80]),
   midi.NoteOnEvent(tick=0, channel=5, data=[75, 127]),
   midi.NoteOnEvent(tick=0, channel=5, data=[67, 127]),
   midi.NoteOffEvent(tick=240, channel=5, data=[75, 80]),
   midi.NoteOffEvent(tick=0, channel=5, data=[67, 80]),
   midi.NoteOnEvent(tick=0, channel=5, data=[73, 127]),
   midi.NoteOnEvent(tick=0, channel=5, data=[65, 127]),
   midi.NoteOffEvent(tick=1920, channel=5, data=[73, 80]),
   midi.NoteOffEvent(tick=0, channel=5, data=[65, 80]),
   midi.NoteOnEvent(tick=240, channel=5, data=[56, 127]),
   midi.NoteOffEvent(tick=240, channel=5, data=[56, 80]),
   midi.NoteOnEvent(tick=0, channel=5, data=[63, 127]),
   midi.NoteOffEvent(tick=240, channel=5, data=[63, 80]),
   midi.NoteOnEvent(tick=0, channel=5, data=[56, 127]),
   midi.NoteOffEvent(tick=240, channel=5, data=[56, 80]),
   midi.NoteOnEvent(tick=0, channel=5, data=[68, 127]),
   midi.NoteOffEvent(tick=240, channel=5, data=[68, 80]),
   midi.NoteOnEvent(tick=0, channel=5, data=[63, 127]),
   midi.NoteOffEvent(tick=240, channel=5, data=[63, 80]),
   midi.NoteOnEvent(tick=0, channel=5, data=[60, 127]),
   midi.NoteOffEvent(tick=240, channel=5, data=[60, 80]),
   midi.NoteOnEvent(tick=0, channel=5, data=[56, 127]),
   midi.NoteOffEvent(tick=240, channel=5, data=[56, 80]),
   midi.NoteOnEvent(tick=240, channel=5, data=[58, 127]),
   midi.NoteOffEvent(tick=240, channel=5, data=[58, 80]),
   midi.NoteOnEvent(tick=0, channel=5, data=[65, 127]),
   midi.NoteOffEvent(tick=240, channel=5, data=[65, 80]),
   midi.NoteOnEvent(tick=0, channel=5, data=[58, 127]),
   midi.NoteOffEvent(tick=240, channel=5, data=[58, 80]),
   midi.NoteOnEvent(tick=0, channel=5, data=[70, 127]),
   midi.NoteOffEvent(tick=240, channel=5, data=[70, 80]),
   midi.NoteOnEvent(tick=0, channel=5, data=[65, 127]),
   midi.NoteOffEvent(tick=240, channel=5, data=[65, 80]),
   midi.NoteOnEvent(tick=0, channel=5, data=[62, 127]),
   midi.NoteOffEvent(tick=240, channel=5, data=[62, 80]),
   midi.NoteOnEvent(tick=0, channel=5, data=[58, 127]),
   midi.NoteOffEvent(tick=240, channel=5, data=[58, 80]),
   midi.NoteOnEvent(tick=240, channel=5, data=[58, 127]),
   midi.NoteOffEvent(tick=240, channel=5, data=[58, 80]),
   midi.NoteOnEvent(tick=0, channel=5, data=[65, 127]),
   midi.NoteOffEvent(tick=240, channel=5, data=[65, 80]),
   midi.NoteOnEvent(tick=0, channel=5, data=[58, 127]),
   midi.NoteOffEvent(tick=240, channel=5, data=[58, 80]),
   midi.NoteOnEvent(tick=0, channel=5, data=[70, 127]),
   midi.NoteOffEvent(tick=240, channel=5, data=[70, 80]),
   midi.NoteOnEvent(tick=0, channel=5, data=[65, 127]),
   midi.NoteOffEvent(tick=240, channel=5, data=[65, 80]),
   midi.NoteOnEvent(tick=0, channel=5, data=[62, 127]),
   midi.NoteOffEvent(tick=240, channel=5, data=[62, 80]),
   midi.NoteOnEvent(tick=0, channel=5, data=[58, 127]),
   midi.NoteOffEvent(tick=240, channel=5, data=[58, 80]),
   midi.NoteOnEvent(tick=240, channel=5, data=[60, 127]),
   midi.NoteOffEvent(tick=240, channel=5, data=[60, 80]),
   midi.NoteOnEvent(tick=0, channel=5, data=[67, 127]),
   midi.NoteOffEvent(tick=240, channel=5, data=[67, 80]),
   midi.NoteOnEvent(tick=0, channel=5, data=[60, 127]),
   midi.NoteOffEvent(tick=240, channel=5, data=[60, 80]),
   midi.NoteOnEvent(tick=0, channel=5, data=[72, 127]),
   midi.NoteOffEvent(tick=240, channel=5, data=[72, 80]),
   midi.NoteOnEvent(tick=0, channel=5, data=[67, 127]),
   midi.NoteOffEvent(tick=240, channel=5, data=[67, 80]),
   midi.NoteOnEvent(tick=0, channel=5, data=[64, 127]),
   midi.NoteOffEvent(tick=240, channel=5, data=[64, 80]),
   midi.NoteOnEvent(tick=0, channel=5, data=[60, 127]),
   midi.NoteOffEvent(tick=240, channel=5, data=[60, 80]),
   midi.EndOfTrackEvent(tick=0, data=[])]),
 midi.Track(\
  [midi.TrackNameEvent(tick=0, text='Voice 2', data=[86, 111, 105, 99, 101, 32, 50]),
   midi.ControlChangeEvent(tick=0, channel=6, data=[100, 0]),
   midi.ControlChangeEvent(tick=0, channel=6, data=[101, 0]),
   midi.ControlChangeEvent(tick=0, channel=6, data=[6, 12]),
   midi.PitchWheelEvent(tick=0, channel=6, data=[0, 64]),
   midi.ControlChangeEvent(tick=0, channel=6, data=[101, 0]),
   midi.ControlChangeEvent(tick=0, channel=6, data=[100, 1]),
   midi.ControlChangeEvent(tick=0, channel=6, data=[6, 64]),
   midi.ControlChangeEvent(tick=0, channel=6, data=[38, 0]),
   midi.ControlChangeEvent(tick=0, channel=6, data=[101, 127]),
   midi.ControlChangeEvent(tick=0, channel=6, data=[100, 127]),
   midi.ControlChangeEvent(tick=0, channel=6, data=[101, 0]),
   midi.ControlChangeEvent(tick=0, channel=6, data=[100, 2]),
   midi.ControlChangeEvent(tick=0, channel=6, data=[6, 64]),
   midi.ControlChangeEvent(tick=0, channel=6, data=[101, 127]),
   midi.ControlChangeEvent(tick=0, channel=6, data=[100, 127]),
   midi.ProgramChangeEvent(tick=0, channel=6, data=[91]),
   midi.ControlChangeEvent(tick=0, channel=6, data=[0, 0]),
   midi.ControlChangeEvent(tick=0, channel=6, data=[7, 112]),
   midi.ControlChangeEvent(tick=0, channel=6, data=[10, 64]),
   midi.ControlChangeEvent(tick=0, channel=6, data=[93, 0]),
   midi.ControlChangeEvent(tick=0, channel=6, data=[91, 0]),
   midi.ControlChangeEvent(tick=0, channel=6, data=[92, 0]),
   midi.ControlChangeEvent(tick=0, channel=6, data=[95, 0]),
   midi.NoteOnEvent(tick=8640, channel=6, data=[63, 127]),
   midi.NoteOffEvent(tick=720, channel=6, data=[63, 80]),
   midi.NoteOnEvent(tick=0, channel=6, data=[56, 127]),
   midi.NoteOffEvent(tick=720, channel=6, data=[56, 80]),
   midi.NoteOnEvent(tick=0, channel=6, data=[63, 127]),
   midi.NoteOffEvent(tick=480, channel=6, data=[63, 80]),
   midi.NoteOnEvent(tick=0, channel=6, data=[65, 127]),
   midi.NoteOffEvent(tick=1920, channel=6, data=[65, 80]),
   midi.NoteOnEvent(tick=0, channel=6, data=[65, 127]),
   midi.NoteOffEvent(tick=720, channel=6, data=[65, 80]),
   midi.NoteOnEvent(tick=0, channel=6, data=[58, 127]),
   midi.NoteOffEvent(tick=720, channel=6, data=[58, 80]),
   midi.NoteOnEvent(tick=0, channel=6, data=[65, 127]),
   midi.NoteOffEvent(tick=480, channel=6, data=[65, 80]),
   midi.NoteOnEvent(tick=0, channel=6, data=[67, 127]),
   midi.NoteOffEvent(tick=960, channel=6, data=[67, 80]),
   midi.NoteOnEvent(tick=0, channel=6, data=[67, 127]),
   midi.NoteOffEvent(tick=360, channel=6, data=[67, 80]),
   midi.NoteOnEvent(tick=0, channel=6, data=[68, 127]),
   midi.NoteOffEvent(tick=360, channel=6, data=[68, 80]),
   midi.NoteOnEvent(tick=0, channel=6, data=[70, 127]),
   midi.NoteOffEvent(tick=240, channel=6, data=[70, 80]),
   midi.NoteOnEvent(tick=38400, channel=6, data=[63, 127]),
   midi.NoteOffEvent(tick=720, channel=6, data=[63, 80]),
   midi.NoteOnEvent(tick=0, channel=6, data=[56, 127]),
   midi.NoteOffEvent(tick=720, channel=6, data=[56, 80]),
   midi.NoteOnEvent(tick=0, channel=6, data=[63, 127]),
   midi.NoteOffEvent(tick=480, channel=6, data=[63, 80]),
   midi.NoteOnEvent(tick=0, channel=6, data=[65, 127]),
   midi.NoteOffEvent(tick=1920, channel=6, data=[65, 80]),
   midi.NoteOnEvent(tick=0, channel=6, data=[65, 127]),
   midi.NoteOffEvent(tick=720, channel=6, data=[65, 80]),
   midi.NoteOnEvent(tick=0, channel=6, data=[58, 127]),
   midi.NoteOffEvent(tick=720, channel=6, data=[58, 80]),
   midi.NoteOnEvent(tick=0, channel=6, data=[65, 127]),
   midi.NoteOffEvent(tick=480, channel=6, data=[65, 80]),
   midi.NoteOnEvent(tick=0, channel=6, data=[67, 127]),
   midi.NoteOffEvent(tick=960, channel=6, data=[67, 80]),
   midi.NoteOnEvent(tick=0, channel=6, data=[67, 127]),
   midi.NoteOffEvent(tick=360, channel=6, data=[67, 80]),
   midi.NoteOnEvent(tick=0, channel=6, data=[68, 127]),
   midi.NoteOffEvent(tick=360, channel=6, data=[68, 80]),
   midi.NoteOnEvent(tick=0, channel=6, data=[70, 127]),
   midi.NoteOffEvent(tick=240, channel=6, data=[70, 80]),
   midi.EndOfTrackEvent(tick=0, data=[])]),
 midi.Track(\
  [midi.TrackNameEvent(tick=0, text='Synth', data=[83, 121, 110, 116, 104]),
   midi.ControlChangeEvent(tick=0, channel=7, data=[100, 0]),
   midi.ControlChangeEvent(tick=0, channel=7, data=[101, 0]),
   midi.ControlChangeEvent(tick=0, channel=7, data=[6, 12]),
   midi.PitchWheelEvent(tick=0, channel=7, data=[0, 64]),
   midi.ControlChangeEvent(tick=0, channel=7, data=[101, 0]),
   midi.ControlChangeEvent(tick=0, channel=7, data=[100, 1]),
   midi.ControlChangeEvent(tick=0, channel=7, data=[6, 64]),
   midi.ControlChangeEvent(tick=0, channel=7, data=[38, 0]),
   midi.ControlChangeEvent(tick=0, channel=7, data=[101, 127]),
   midi.ControlChangeEvent(tick=0, channel=7, data=[100, 127]),
   midi.ControlChangeEvent(tick=0, channel=7, data=[101, 0]),
   midi.ControlChangeEvent(tick=0, channel=7, data=[100, 2]),
   midi.ControlChangeEvent(tick=0, channel=7, data=[6, 64]),
   midi.ControlChangeEvent(tick=0, channel=7, data=[101, 127]),
   midi.ControlChangeEvent(tick=0, channel=7, data=[100, 127]),
   midi.ProgramChangeEvent(tick=0, channel=7, data=[62]),
   midi.ControlChangeEvent(tick=0, channel=7, data=[0, 0]),
   midi.ControlChangeEvent(tick=0, channel=7, data=[7, 96]),
   midi.ControlChangeEvent(tick=0, channel=7, data=[10, 64]),
   midi.ControlChangeEvent(tick=0, channel=7, data=[93, 0]),
   midi.ControlChangeEvent(tick=0, channel=7, data=[91, 0]),
   midi.ControlChangeEvent(tick=0, channel=7, data=[92, 0]),
   midi.ControlChangeEvent(tick=0, channel=7, data=[95, 0]),
   midi.NoteOnEvent(tick=31680, channel=7, data=[60, 127]),
   midi.NoteOnEvent(tick=0, channel=7, data=[56, 127]),
   midi.NoteOnEvent(tick=0, channel=7, data=[44, 63]),
   midi.NoteOffEvent(tick=600, channel=7, data=[60, 80]),
   midi.NoteOffEvent(tick=0, channel=7, data=[56, 80]),
   midi.NoteOffEvent(tick=0, channel=7, data=[44, 80]),
   midi.NoteOnEvent(tick=120, channel=7, data=[63, 127]),
   midi.NoteOnEvent(tick=0, channel=7, data=[58, 127]),
   midi.NoteOnEvent(tick=0, channel=7, data=[46, 63]),
   midi.NoteOffEvent(tick=600, channel=7, data=[63, 80]),
   midi.NoteOffEvent(tick=0, channel=7, data=[58, 80]),
   midi.NoteOffEvent(tick=0, channel=7, data=[46, 80]),
   midi.NoteOnEvent(tick=120, channel=7, data=[58, 127]),
   midi.NoteOnEvent(tick=0, channel=7, data=[55, 127]),
   midi.NoteOnEvent(tick=0, channel=7, data=[43, 63]),
   midi.NoteOffEvent(tick=600, channel=7, data=[58, 80]),
   midi.NoteOffEvent(tick=0, channel=7, data=[55, 80]),
   midi.NoteOffEvent(tick=0, channel=7, data=[43, 80]),
   midi.NoteOnEvent(tick=120, channel=7, data=[60, 127]),
   midi.NoteOnEvent(tick=0, channel=7, data=[56, 127]),
   midi.NoteOnEvent(tick=0, channel=7, data=[44, 63]),
   midi.NoteOffEvent(tick=600, channel=7, data=[60, 80]),
   midi.NoteOffEvent(tick=0, channel=7, data=[56, 80]),
   midi.NoteOffEvent(tick=0, channel=7, data=[44, 80]),
   midi.NoteOnEvent(tick=120, channel=7, data=[60, 127]),
   midi.NoteOnEvent(tick=0, channel=7, data=[56, 127]),
   midi.NoteOnEvent(tick=0, channel=7, data=[44, 63]),
   midi.NoteOffEvent(tick=360, channel=7, data=[60, 80]),
   midi.NoteOffEvent(tick=0, channel=7, data=[56, 80]),
   midi.NoteOffEvent(tick=0, channel=7, data=[44, 80]),
   midi.NoteOnEvent(tick=120, channel=7, data=[63, 127]),
   midi.NoteOnEvent(tick=0, channel=7, data=[60, 127]),
   midi.NoteOnEvent(tick=0, channel=7, data=[48, 63]),
   midi.NoteOffEvent(tick=360, channel=7, data=[63, 80]),
   midi.NoteOffEvent(tick=0, channel=7, data=[60, 80]),
   midi.NoteOffEvent(tick=0, channel=7, data=[48, 80]),
   midi.NoteOnEvent(tick=120, channel=7, data=[65, 127]),
   midi.NoteOnEvent(tick=0, channel=7, data=[61, 127]),
   midi.NoteOnEvent(tick=0, channel=7, data=[49, 63]),
   midi.NoteOffEvent(tick=600, channel=7, data=[65, 80]),
   midi.NoteOffEvent(tick=0, channel=7, data=[61, 80]),
   midi.NoteOffEvent(tick=0, channel=7, data=[49, 80]),
   midi.NoteOnEvent(tick=120, channel=7, data=[67, 127]),
   midi.NoteOnEvent(tick=0, channel=7, data=[63, 127]),
   midi.NoteOnEvent(tick=0, channel=7, data=[51, 63]),
   midi.NoteOffEvent(tick=600, channel=7, data=[67, 80]),
   midi.NoteOffEvent(tick=0, channel=7, data=[63, 80]),
   midi.NoteOffEvent(tick=0, channel=7, data=[51, 80]),
   midi.NoteOnEvent(tick=120, channel=7, data=[68, 127]),
   midi.NoteOnEvent(tick=0, channel=7, data=[67, 127]),
   midi.NoteOnEvent(tick=0, channel=7, data=[55, 63]),
   midi.NoteOffEvent(tick=840, channel=7, data=[68, 80]),
   midi.NoteOffEvent(tick=0, channel=7, data=[67, 80]),
   midi.NoteOffEvent(tick=0, channel=7, data=[55, 80]),
   midi.NoteOnEvent(tick=120, channel=7, data=[67, 127]),
   midi.NoteOnEvent(tick=0, channel=7, data=[65, 127]),
   midi.NoteOnEvent(tick=0, channel=7, data=[53, 63]),
   midi.NoteOffEvent(tick=360, channel=7, data=[67, 80]),
   midi.NoteOffEvent(tick=0, channel=7, data=[65, 80]),
   midi.NoteOffEvent(tick=0, channel=7, data=[53, 80]),
   midi.NoteOnEvent(tick=120, channel=7, data=[68, 127]),
   midi.NoteOnEvent(tick=0, channel=7, data=[67, 127]),
   midi.NoteOnEvent(tick=0, channel=7, data=[55, 63]),
   midi.NoteOffEvent(tick=360, channel=7, data=[68, 80]),
   midi.NoteOffEvent(tick=0, channel=7, data=[67, 80]),
   midi.NoteOffEvent(tick=0, channel=7, data=[55, 80]),
   midi.NoteOnEvent(tick=120, channel=7, data=[67, 127]),
   midi.NoteOnEvent(tick=0, channel=7, data=[65, 127]),
   midi.NoteOnEvent(tick=0, channel=7, data=[53, 63]),
   midi.NoteOffEvent(tick=360, channel=7, data=[67, 80]),
   midi.NoteOffEvent(tick=0, channel=7, data=[65, 80]),
   midi.NoteOffEvent(tick=0, channel=7, data=[53, 80]),
   midi.NoteOnEvent(tick=120, channel=7, data=[72, 127]),
   midi.NoteOnEvent(tick=0, channel=7, data=[68, 127]),
   midi.NoteOnEvent(tick=0, channel=7, data=[56, 63]),
   midi.NoteOffEvent(tick=600, channel=7, data=[72, 80]),
   midi.NoteOffEvent(tick=0, channel=7, data=[68, 80]),
   midi.NoteOffEvent(tick=0, channel=7, data=[56, 80]),
   midi.NoteOnEvent(tick=120, channel=7, data=[70, 127]),
   midi.NoteOnEvent(tick=0, channel=7, data=[67, 127]),
   midi.NoteOnEvent(tick=0, channel=7, data=[55, 63]),
   midi.NoteOffEvent(tick=600, channel=7, data=[70, 80]),
   midi.NoteOffEvent(tick=0, channel=7, data=[67, 80]),
   midi.NoteOffEvent(tick=0, channel=7, data=[55, 80]),
   midi.NoteOnEvent(tick=120, channel=7, data=[72, 127]),
   midi.NoteOnEvent(tick=0, channel=7, data=[68, 127]),
   midi.NoteOnEvent(tick=0, channel=7, data=[56, 63]),
   midi.NoteOffEvent(tick=600, channel=7, data=[72, 80]),
   midi.NoteOffEvent(tick=0, channel=7, data=[68, 80]),
   midi.NoteOffEvent(tick=0, channel=7, data=[56, 80]),
   midi.NoteOnEvent(tick=120, channel=7, data=[65, 127]),
   midi.NoteOnEvent(tick=0, channel=7, data=[60, 127]),
   midi.NoteOnEvent(tick=0, channel=7, data=[49, 63]),
   midi.NoteOffEvent(tick=600, channel=7, data=[65, 80]),
   midi.NoteOffEvent(tick=0, channel=7, data=[60, 80]),
   midi.NoteOffEvent(tick=0, channel=7, data=[49, 80]),
   midi.NoteOnEvent(tick=120, channel=7, data=[60, 127]),
   midi.NoteOnEvent(tick=0, channel=7, data=[63, 127]),
   midi.NoteOnEvent(tick=0, channel=7, data=[49, 63]),
   midi.NoteOffEvent(tick=360, channel=7, data=[60, 80]),
   midi.NoteOffEvent(tick=0, channel=7, data=[63, 80]),
   midi.NoteOffEvent(tick=0, channel=7, data=[49, 80]),
   midi.NoteOnEvent(tick=120, channel=7, data=[65, 127]),
   midi.NoteOnEvent(tick=0, channel=7, data=[60, 127]),
   midi.NoteOnEvent(tick=0, channel=7, data=[49, 63]),
   midi.NoteOffEvent(tick=360, channel=7, data=[65, 80]),
   midi.NoteOffEvent(tick=0, channel=7, data=[60, 80]),
   midi.NoteOffEvent(tick=0, channel=7, data=[49, 80]),
   midi.NoteOnEvent(tick=120, channel=7, data=[65, 127]),
   midi.NoteOnEvent(tick=0, channel=7, data=[61, 127]),
   midi.NoteOnEvent(tick=0, channel=7, data=[49, 63]),
   midi.NoteOffEvent(tick=600, channel=7, data=[65, 80]),
   midi.NoteOffEvent(tick=0, channel=7, data=[61, 80]),
   midi.NoteOffEvent(tick=0, channel=7, data=[49, 80]),
   midi.NoteOnEvent(tick=120, channel=7, data=[67, 127]),
   midi.NoteOnEvent(tick=0, channel=7, data=[63, 127]),
   midi.NoteOnEvent(tick=0, channel=7, data=[51, 63]),
   midi.NoteOffEvent(tick=600, channel=7, data=[67, 80]),
   midi.NoteOffEvent(tick=0, channel=7, data=[63, 80]),
   midi.NoteOffEvent(tick=0, channel=7, data=[51, 80]),
   midi.NoteOnEvent(tick=120, channel=7, data=[68, 127]),
   midi.NoteOnEvent(tick=0, channel=7, data=[67, 127]),
   midi.NoteOnEvent(tick=0, channel=7, data=[55, 63]),
   midi.NoteOffEvent(tick=840, channel=7, data=[68, 80]),
   midi.NoteOffEvent(tick=0, channel=7, data=[67, 80]),
   midi.NoteOffEvent(tick=0, channel=7, data=[55, 80]),
   midi.NoteOnEvent(tick=120, channel=7, data=[67, 127]),
   midi.NoteOnEvent(tick=0, channel=7, data=[65, 127]),
   midi.NoteOnEvent(tick=0, channel=7, data=[53, 63]),
   midi.NoteOffEvent(tick=360, channel=7, data=[67, 80]),
   midi.NoteOffEvent(tick=0, channel=7, data=[65, 80]),
   midi.NoteOffEvent(tick=0, channel=7, data=[53, 80]),
   midi.NoteOnEvent(tick=120, channel=7, data=[68, 127]),
   midi.NoteOnEvent(tick=0, channel=7, data=[67, 127]),
   midi.NoteOnEvent(tick=0, channel=7, data=[55, 63]),
   midi.NoteOffEvent(tick=360, channel=7, data=[68, 80]),
   midi.NoteOffEvent(tick=0, channel=7, data=[67, 80]),
   midi.NoteOffEvent(tick=0, channel=7, data=[55, 80]),
   midi.NoteOnEvent(tick=120, channel=7, data=[67, 127]),
   midi.NoteOnEvent(tick=0, channel=7, data=[65, 127]),
   midi.NoteOnEvent(tick=0, channel=7, data=[53, 63]),
   midi.NoteOffEvent(tick=360, channel=7, data=[67, 80]),
   midi.NoteOffEvent(tick=0, channel=7, data=[65, 80]),
   midi.NoteOffEvent(tick=0, channel=7, data=[53, 80]),
   midi.NoteOnEvent(tick=30840, channel=7, data=[60, 127]),
   midi.NoteOnEvent(tick=0, channel=7, data=[56, 127]),
   midi.NoteOnEvent(tick=0, channel=7, data=[44, 63]),
   midi.NoteOffEvent(tick=600, channel=7, data=[60, 80]),
   midi.NoteOffEvent(tick=0, channel=7, data=[56, 80]),
   midi.NoteOffEvent(tick=0, channel=7, data=[44, 80]),
   midi.NoteOnEvent(tick=120, channel=7, data=[63, 127]),
   midi.NoteOnEvent(tick=0, channel=7, data=[58, 127]),
   midi.NoteOnEvent(tick=0, channel=7, data=[46, 63]),
   midi.NoteOffEvent(tick=600, channel=7, data=[63, 80]),
   midi.NoteOffEvent(tick=0, channel=7, data=[58, 80]),
   midi.NoteOffEvent(tick=0, channel=7, data=[46, 80]),
   midi.NoteOnEvent(tick=120, channel=7, data=[58, 127]),
   midi.NoteOnEvent(tick=0, channel=7, data=[55, 127]),
   midi.NoteOnEvent(tick=0, channel=7, data=[43, 63]),
   midi.NoteOffEvent(tick=600, channel=7, data=[58, 80]),
   midi.NoteOffEvent(tick=0, channel=7, data=[55, 80]),
   midi.NoteOffEvent(tick=0, channel=7, data=[43, 80]),
   midi.NoteOnEvent(tick=120, channel=7, data=[60, 127]),
   midi.NoteOnEvent(tick=0, channel=7, data=[56, 127]),
   midi.NoteOnEvent(tick=0, channel=7, data=[44, 63]),
   midi.NoteOffEvent(tick=600, channel=7, data=[60, 80]),
   midi.NoteOffEvent(tick=0, channel=7, data=[56, 80]),
   midi.NoteOffEvent(tick=0, channel=7, data=[44, 80]),
   midi.NoteOnEvent(tick=120, channel=7, data=[60, 127]),
   midi.NoteOnEvent(tick=0, channel=7, data=[56, 127]),
   midi.NoteOnEvent(tick=0, channel=7, data=[44, 63]),
   midi.NoteOffEvent(tick=360, channel=7, data=[60, 80]),
   midi.NoteOffEvent(tick=0, channel=7, data=[56, 80]),
   midi.NoteOffEvent(tick=0, channel=7, data=[44, 80]),
   midi.NoteOnEvent(tick=120, channel=7, data=[63, 127]),
   midi.NoteOnEvent(tick=0, channel=7, data=[60, 127]),
   midi.NoteOnEvent(tick=0, channel=7, data=[48, 63]),
   midi.NoteOffEvent(tick=360, channel=7, data=[63, 80]),
   midi.NoteOffEvent(tick=0, channel=7, data=[60, 80]),
   midi.NoteOffEvent(tick=0, channel=7, data=[48, 80]),
   midi.NoteOnEvent(tick=120, channel=7, data=[65, 127]),
   midi.NoteOnEvent(tick=0, channel=7, data=[61, 127]),
   midi.NoteOnEvent(tick=0, channel=7, data=[49, 63]),
   midi.NoteOffEvent(tick=600, channel=7, data=[65, 80]),
   midi.NoteOffEvent(tick=0, channel=7, data=[61, 80]),
   midi.NoteOffEvent(tick=0, channel=7, data=[49, 80]),
   midi.NoteOnEvent(tick=120, channel=7, data=[67, 127]),
   midi.NoteOnEvent(tick=0, channel=7, data=[63, 127]),
   midi.NoteOnEvent(tick=0, channel=7, data=[51, 63]),
   midi.NoteOffEvent(tick=600, channel=7, data=[67, 80]),
   midi.NoteOffEvent(tick=0, channel=7, data=[63, 80]),
   midi.NoteOffEvent(tick=0, channel=7, data=[51, 80]),
   midi.NoteOnEvent(tick=120, channel=7, data=[68, 127]),
   midi.NoteOnEvent(tick=0, channel=7, data=[67, 127]),
   midi.NoteOnEvent(tick=0, channel=7, data=[55, 63]),
   midi.NoteOffEvent(tick=840, channel=7, data=[68, 80]),
   midi.NoteOffEvent(tick=0, channel=7, data=[67, 80]),
   midi.NoteOffEvent(tick=0, channel=7, data=[55, 80]),
   midi.NoteOnEvent(tick=120, channel=7, data=[67, 127]),
   midi.NoteOnEvent(tick=0, channel=7, data=[65, 127]),
   midi.NoteOnEvent(tick=0, channel=7, data=[53, 63]),
   midi.NoteOffEvent(tick=360, channel=7, data=[67, 80]),
   midi.NoteOffEvent(tick=0, channel=7, data=[65, 80]),
   midi.NoteOffEvent(tick=0, channel=7, data=[53, 80]),
   midi.NoteOnEvent(tick=120, channel=7, data=[68, 127]),
   midi.NoteOnEvent(tick=0, channel=7, data=[67, 127]),
   midi.NoteOnEvent(tick=0, channel=7, data=[55, 63]),
   midi.NoteOffEvent(tick=360, channel=7, data=[68, 80]),
   midi.NoteOffEvent(tick=0, channel=7, data=[67, 80]),
   midi.NoteOffEvent(tick=0, channel=7, data=[55, 80]),
   midi.NoteOnEvent(tick=120, channel=7, data=[67, 127]),
   midi.NoteOnEvent(tick=0, channel=7, data=[65, 127]),
   midi.NoteOnEvent(tick=0, channel=7, data=[53, 63]),
   midi.NoteOffEvent(tick=360, channel=7, data=[67, 80]),
   midi.NoteOffEvent(tick=0, channel=7, data=[65, 80]),
   midi.NoteOffEvent(tick=0, channel=7, data=[53, 80]),
   midi.NoteOnEvent(tick=120, channel=7, data=[72, 127]),
   midi.NoteOnEvent(tick=0, channel=7, data=[68, 127]),
   midi.NoteOnEvent(tick=0, channel=7, data=[56, 63]),
   midi.NoteOffEvent(tick=600, channel=7, data=[72, 80]),
   midi.NoteOffEvent(tick=0, channel=7, data=[68, 80]),
   midi.NoteOffEvent(tick=0, channel=7, data=[56, 80]),
   midi.NoteOnEvent(tick=120, channel=7, data=[70, 127]),
   midi.NoteOnEvent(tick=0, channel=7, data=[67, 127]),
   midi.NoteOnEvent(tick=0, channel=7, data=[55, 63]),
   midi.NoteOffEvent(tick=600, channel=7, data=[70, 80]),
   midi.NoteOffEvent(tick=0, channel=7, data=[67, 80]),
   midi.NoteOffEvent(tick=0, channel=7, data=[55, 80]),
   midi.NoteOnEvent(tick=120, channel=7, data=[72, 127]),
   midi.NoteOnEvent(tick=0, channel=7, data=[68, 127]),
   midi.NoteOnEvent(tick=0, channel=7, data=[56, 63]),
   midi.NoteOffEvent(tick=600, channel=7, data=[72, 80]),
   midi.NoteOffEvent(tick=0, channel=7, data=[68, 80]),
   midi.NoteOffEvent(tick=0, channel=7, data=[56, 80]),
   midi.NoteOnEvent(tick=120, channel=7, data=[65, 127]),
   midi.NoteOnEvent(tick=0, channel=7, data=[60, 127]),
   midi.NoteOnEvent(tick=0, channel=7, data=[49, 63]),
   midi.NoteOffEvent(tick=600, channel=7, data=[65, 80]),
   midi.NoteOffEvent(tick=0, channel=7, data=[60, 80]),
   midi.NoteOffEvent(tick=0, channel=7, data=[49, 80]),
   midi.NoteOnEvent(tick=120, channel=7, data=[60, 127]),
   midi.NoteOnEvent(tick=0, channel=7, data=[63, 127]),
   midi.NoteOnEvent(tick=0, channel=7, data=[49, 63]),
   midi.NoteOffEvent(tick=360, channel=7, data=[60, 80]),
   midi.NoteOffEvent(tick=0, channel=7, data=[63, 80]),
   midi.NoteOffEvent(tick=0, channel=7, data=[49, 80]),
   midi.NoteOnEvent(tick=120, channel=7, data=[65, 127]),
   midi.NoteOnEvent(tick=0, channel=7, data=[60, 127]),
   midi.NoteOnEvent(tick=0, channel=7, data=[49, 63]),
   midi.NoteOffEvent(tick=360, channel=7, data=[65, 80]),
   midi.NoteOffEvent(tick=0, channel=7, data=[60, 80]),
   midi.NoteOffEvent(tick=0, channel=7, data=[49, 80]),
   midi.NoteOnEvent(tick=120, channel=7, data=[65, 127]),
   midi.NoteOnEvent(tick=0, channel=7, data=[61, 127]),
   midi.NoteOnEvent(tick=0, channel=7, data=[49, 63]),
   midi.NoteOffEvent(tick=600, channel=7, data=[65, 80]),
   midi.NoteOffEvent(tick=0, channel=7, data=[61, 80]),
   midi.NoteOffEvent(tick=0, channel=7, data=[49, 80]),
   midi.NoteOnEvent(tick=120, channel=7, data=[67, 127]),
   midi.NoteOnEvent(tick=0, channel=7, data=[63, 127]),
   midi.NoteOnEvent(tick=0, channel=7, data=[51, 63]),
   midi.NoteOffEvent(tick=600, channel=7, data=[67, 80]),
   midi.NoteOffEvent(tick=0, channel=7, data=[63, 80]),
   midi.NoteOffEvent(tick=0, channel=7, data=[51, 80]),
   midi.NoteOnEvent(tick=120, channel=7, data=[68, 127]),
   midi.NoteOnEvent(tick=0, channel=7, data=[67, 127]),
   midi.NoteOnEvent(tick=0, channel=7, data=[55, 63]),
   midi.NoteOffEvent(tick=840, channel=7, data=[68, 80]),
   midi.NoteOffEvent(tick=0, channel=7, data=[67, 80]),
   midi.NoteOffEvent(tick=0, channel=7, data=[55, 80]),
   midi.NoteOnEvent(tick=120, channel=7, data=[67, 127]),
   midi.NoteOnEvent(tick=0, channel=7, data=[65, 127]),
   midi.NoteOnEvent(tick=0, channel=7, data=[53, 63]),
   midi.NoteOffEvent(tick=360, channel=7, data=[67, 80]),
   midi.NoteOffEvent(tick=0, channel=7, data=[65, 80]),
   midi.NoteOffEvent(tick=0, channel=7, data=[53, 80]),
   midi.NoteOnEvent(tick=120, channel=7, data=[68, 127]),
   midi.NoteOnEvent(tick=0, channel=7, data=[67, 127]),
   midi.NoteOnEvent(tick=0, channel=7, data=[55, 63]),
   midi.NoteOffEvent(tick=360, channel=7, data=[68, 80]),
   midi.NoteOffEvent(tick=0, channel=7, data=[67, 80]),
   midi.NoteOffEvent(tick=0, channel=7, data=[55, 80]),
   midi.NoteOnEvent(tick=120, channel=7, data=[67, 127]),
   midi.NoteOnEvent(tick=0, channel=7, data=[65, 127]),
   midi.NoteOnEvent(tick=0, channel=7, data=[53, 63]),
   midi.NoteOffEvent(tick=360, channel=7, data=[67, 80]),
   midi.NoteOffEvent(tick=0, channel=7, data=[65, 80]),
   midi.NoteOffEvent(tick=0, channel=7, data=[53, 80]),
   midi.EndOfTrackEvent(tick=0, data=[])])])
